<svg xmlns="http://www.w3.org/2000/svg" width="480" height="55" viewBox="0 0 480 55" fill="none">
    <g opacity="0.54">
        <path d="M189.488 -41.3504C184.518 -41.3504 180.488 -37.321 180.488 -32.3504C180.488 -27.3798 184.518 -23.3504 189.488 -23.3504C194.459 -23.3504 198.488 -27.3798 198.488 -32.3504C198.488 -37.321 194.459 -41.3504 189.488 -41.3504ZM189.488 -40.3504C193.906 -40.3504 197.488 -36.7686 197.488 -32.3504C197.488 -27.9322 193.906 -24.3504 189.488 -24.3504C185.07 -24.3504 181.488 -27.9322 181.488 -32.3504C181.488 -36.7686 185.07 -40.3504 189.488 -40.3504ZM189.488 -40.0254C185.25 -40.0254 181.813 -36.5882 181.813 -32.3504C181.813 -28.1126 185.25 -24.6754 189.488 -24.6754C193.726 -24.6754 197.163 -28.1126 197.163 -32.3504C197.163 -36.5882 193.726 -40.0254 189.488 -40.0254ZM189.488 -39.8754C193.645 -39.8754 197.013 -36.5072 197.013 -32.3504C197.013 -28.1936 193.645 -24.8254 189.488 -24.8254C185.331 -24.8254 181.963 -28.1936 181.963 -32.3504C181.963 -36.5072 185.331 -39.8754 189.488 -39.8754ZM190.544 -37.9816C189.57 -37.9816 188.678 -37.7672 187.869 -37.3316C186.558 -36.629 185.743 -35.47 185.432 -33.8566H184.557L184.344 -32.8628H185.332C185.327 -32.759 185.326 -32.6556 185.326 -32.5566C185.326 -32.3142 185.336 -32.0894 185.351 -31.8816H184.557L184.344 -30.888H185.501C185.616 -30.3534 185.752 -29.8952 185.913 -29.5192C186.712 -27.6584 188.248 -26.7316 190.519 -26.7316C191.278 -26.7316 191.973 -26.8696 192.601 -27.1566V-28.688C192.073 -28.203 191.34 -27.9628 190.401 -27.9628C189.727 -27.9628 189.104 -28.134 188.526 -28.4754C187.722 -28.9504 187.212 -29.7546 187.001 -30.888H191.482L191.694 -31.8816H186.844C186.839 -31.9558 186.832 -32.1818 186.832 -32.5628C186.832 -32.657 186.839 -32.759 186.844 -32.8628H191.901L192.101 -33.8566H186.963C187.013 -34.2624 187.182 -34.6876 187.463 -35.138C187.74 -35.5734 188.047 -35.9128 188.388 -36.1504C188.961 -36.5512 189.669 -36.7504 190.513 -36.7504C191.292 -36.7504 191.988 -36.5002 192.601 -36.0004L192.901 -37.3816C192.263 -37.7824 191.479 -37.9816 190.544 -37.9816Z" fill="white"/>
        <path d="M208.488 11.6496C203.518 11.6496 199.488 15.679 199.488 20.6496C199.488 25.6202 203.518 29.6496 208.488 29.6496C213.459 29.6496 217.488 25.6202 217.488 20.6496C217.488 15.679 213.459 11.6496 208.488 11.6496ZM208.488 12.6496C212.906 12.6496 216.488 16.2314 216.488 20.6496C216.488 25.0678 212.906 28.6496 208.488 28.6496C204.07 28.6496 200.488 25.0678 200.488 20.6496C200.488 16.2314 204.07 12.6496 208.488 12.6496ZM208.488 12.9746C204.25 12.9746 200.813 16.4118 200.813 20.6496C200.813 24.8874 204.25 28.3246 208.488 28.3246C212.726 28.3246 216.163 24.8874 216.163 20.6496C216.163 16.4118 212.726 12.9746 208.488 12.9746ZM208.488 13.1246C212.645 13.1246 216.013 16.4928 216.013 20.6496C216.013 24.8064 212.645 28.1746 208.488 28.1746C204.331 28.1746 200.963 24.8064 200.963 20.6496C200.963 16.4928 204.331 13.1246 208.488 13.1246ZM209.544 15.0184C208.57 15.0184 207.678 15.2328 206.869 15.6684C205.558 16.371 204.743 17.53 204.432 19.1434H203.557L203.344 20.1372H204.332C204.327 20.241 204.326 20.3444 204.326 20.4434C204.326 20.6858 204.336 20.9106 204.351 21.1184H203.557L203.344 22.112H204.501C204.616 22.6466 204.752 23.1048 204.913 23.4808C205.712 25.3416 207.248 26.2684 209.519 26.2684C210.278 26.2684 210.973 26.1304 211.601 25.8434V24.312C211.073 24.797 210.34 25.0372 209.401 25.0372C208.727 25.0372 208.104 24.866 207.526 24.5246C206.722 24.0496 206.212 23.2454 206.001 22.112H210.482L210.694 21.1184H205.844C205.839 21.0442 205.832 20.8182 205.832 20.4372C205.832 20.343 205.839 20.241 205.844 20.1372H210.901L211.101 19.1434H205.963C206.013 18.7376 206.182 18.3124 206.463 17.862C206.74 17.4266 207.047 17.0872 207.388 16.8496C207.961 16.4488 208.669 16.2496 209.513 16.2496C210.292 16.2496 210.988 16.4998 211.601 16.9996L211.901 15.6184C211.263 15.2176 210.479 15.0184 209.544 15.0184Z" fill="white"/>
        <path d="M352.488 28.6496C347.518 28.6496 343.488 32.679 343.488 37.6496C343.488 42.6202 347.518 46.6496 352.488 46.6496C357.459 46.6496 361.488 42.6202 361.488 37.6496C361.488 32.679 357.459 28.6496 352.488 28.6496ZM352.488 29.6496C356.906 29.6496 360.488 33.2314 360.488 37.6496C360.488 42.0678 356.906 45.6496 352.488 45.6496C348.07 45.6496 344.488 42.0678 344.488 37.6496C344.488 33.2314 348.07 29.6496 352.488 29.6496ZM352.488 29.9746C348.25 29.9746 344.813 33.4118 344.813 37.6496C344.813 41.8874 348.25 45.3246 352.488 45.3246C356.726 45.3246 360.163 41.8874 360.163 37.6496C360.163 33.4118 356.726 29.9746 352.488 29.9746ZM352.488 30.1246C356.645 30.1246 360.013 33.4928 360.013 37.6496C360.013 41.8064 356.645 45.1746 352.488 45.1746C348.331 45.1746 344.963 41.8064 344.963 37.6496C344.963 33.4928 348.331 30.1246 352.488 30.1246ZM353.544 32.0184C352.57 32.0184 351.678 32.2328 350.869 32.6684C349.558 33.371 348.743 34.53 348.432 36.1434H347.557L347.344 37.1372H348.332C348.327 37.241 348.326 37.3444 348.326 37.4434C348.326 37.6858 348.336 37.9106 348.351 38.1184H347.557L347.344 39.112H348.501C348.616 39.6466 348.752 40.1048 348.913 40.4808C349.712 42.3416 351.248 43.2684 353.519 43.2684C354.278 43.2684 354.973 43.1304 355.601 42.8434V41.312C355.073 41.797 354.34 42.0372 353.401 42.0372C352.727 42.0372 352.104 41.866 351.526 41.5246C350.722 41.0496 350.212 40.2454 350.001 39.112H354.482L354.694 38.1184H349.844C349.839 38.0442 349.832 37.8182 349.832 37.4372C349.832 37.343 349.839 37.241 349.844 37.1372H354.901L355.101 36.1434H349.963C350.013 35.7376 350.182 35.3124 350.463 34.862C350.74 34.4266 351.047 34.0872 351.388 33.8496C351.961 33.4488 352.669 33.2496 353.513 33.2496C354.292 33.2496 354.988 33.4998 355.601 33.9996L355.901 32.6184C355.263 32.2176 354.479 32.0184 353.544 32.0184Z" fill="white"/>
        <path d="M383.138 -13.1828C376.935 -2.43953 380.616 11.2976 391.359 17.5002C402.102 23.7029 415.839 20.022 422.042 9.27873C428.245 -1.46453 424.564 -15.2017 413.821 -21.4043C403.077 -27.6069 389.34 -23.9261 383.138 -13.1828ZM385.299 -11.9349C390.812 -21.4843 403.023 -24.7562 412.573 -19.2429C422.122 -13.7296 425.394 -1.51846 419.881 8.03087C414.367 17.5802 402.156 20.8522 392.607 15.3389C383.058 9.82556 379.786 -2.3856 385.299 -11.9349ZM386.001 -11.5294C380.713 -2.36996 383.853 9.34823 393.012 14.6364C402.172 19.9246 413.89 16.7847 419.178 7.62531C424.466 -1.5341 421.327 -13.2523 412.167 -18.5405C403.008 -23.8287 391.289 -20.6888 386.001 -11.5294ZM386.326 -11.3422C391.513 -20.3265 402.996 -23.4034 411.98 -18.2163C420.964 -13.0292 424.041 -1.54622 418.854 7.43813C413.667 16.4225 402.184 19.4993 393.2 14.3122C384.215 9.12511 381.138 -2.35785 386.326 -11.3422ZM391.737 -11.2618C390.52 -9.15493 389.872 -6.96118 389.804 -4.66907C389.686 -0.957912 391.174 2.24901 394.273 4.93536L393.181 6.82655L395.064 8.52618L396.296 6.39162C396.514 6.53195 396.736 6.66401 396.95 6.78712C397.474 7.09003 397.972 7.34894 398.44 7.57582L397.45 9.29108L399.332 10.9905L400.775 8.49149C402.074 8.90874 403.235 9.18613 404.248 9.30779C409.267 9.90288 413.187 7.73912 416.021 2.83067C416.968 1.19063 417.536 -0.48243 417.699 -2.1979L414.389 -4.10888C414.78 -2.36376 414.384 -0.479752 413.212 1.55106C412.371 3.0061 411.223 4.14072 409.764 4.96353C407.734 6.10853 405.36 6.2073 402.646 5.24945L408.239 -4.43648L406.356 -6.13543L400.304 4.34718C400.137 4.26539 399.64 3.99937 398.816 3.52393C398.613 3.40639 398.401 3.26311 398.183 3.12277L404.493 -7.8055L402.594 -9.4779L396.183 1.62588C395.369 1.01099 394.66 0.116432 394.038 -1.05381C393.442 -2.19453 393.091 -3.2816 393.004 -4.31641C392.852 -6.05458 393.305 -7.8334 394.359 -9.65802C395.331 -11.3413 396.739 -12.5325 398.585 -13.2337L395.974 -15.6057C394.311 -14.7269 392.903 -13.2818 391.737 -11.2618Z" fill="white"/>
        <path d="M241.278 -38.379C238.124 -32.9153 239.996 -25.9289 245.46 -22.7744C250.923 -19.6199 257.91 -21.4919 261.064 -26.9557C264.219 -32.4194 262.347 -39.4058 256.883 -42.5603C251.419 -45.7148 244.433 -43.8428 241.278 -38.379ZM242.378 -37.7444C245.181 -42.6009 251.392 -44.265 256.248 -41.4611C261.105 -38.6571 262.769 -32.4468 259.965 -27.5903C257.161 -22.7337 250.951 -21.0697 246.094 -23.8736C241.238 -26.6775 239.574 -32.8878 242.378 -37.7444ZM242.735 -37.5381C240.045 -32.8799 241.642 -26.9203 246.3 -24.2309C250.959 -21.5414 256.918 -23.1383 259.608 -27.7965C262.297 -32.4548 260.7 -38.4144 256.042 -41.1038C251.384 -43.7933 245.424 -42.1964 242.735 -37.5381ZM242.9 -37.4429C245.538 -42.0122 251.378 -43.577 255.947 -40.9389C260.516 -38.3009 262.081 -32.461 259.443 -27.8917C256.805 -23.3225 250.965 -21.7577 246.396 -24.3957C241.826 -27.0338 240.262 -32.8737 242.9 -37.4429ZM245.652 -37.4021C245.033 -36.3306 244.703 -35.2149 244.668 -34.0492C244.609 -32.1618 245.366 -30.5308 246.941 -29.1646L246.386 -28.2028L247.344 -27.3384L247.97 -28.424C248.081 -28.3526 248.194 -28.2854 248.303 -28.2228C248.569 -28.0688 248.823 -27.9371 249.061 -27.8217L248.557 -26.9494L249.514 -26.0851L250.248 -27.356C250.909 -27.1438 251.499 -27.0027 252.015 -26.9409C254.567 -26.6382 256.561 -27.7387 258.002 -30.235C258.483 -31.0691 258.772 -31.9199 258.856 -32.7924L257.172 -33.7643C257.371 -32.8767 257.169 -31.9186 256.573 -30.8857C256.146 -30.1458 255.562 -29.5687 254.82 -29.1503C253.788 -28.5679 252.58 -28.5177 251.2 -29.0048L254.044 -33.9309L253.087 -34.7949L250.009 -29.4637C249.924 -29.5053 249.671 -29.6406 249.252 -29.8824C249.148 -29.9422 249.041 -30.015 248.93 -30.0864L252.139 -35.6443L251.174 -36.4948L247.913 -30.8477C247.499 -31.1604 247.138 -31.6154 246.822 -32.2105C246.519 -32.7907 246.34 -33.3435 246.296 -33.8698C246.219 -34.7538 246.449 -35.6585 246.985 -36.5864C247.479 -37.4425 248.196 -38.0483 249.134 -38.4049L247.806 -39.6113C246.961 -39.1643 246.245 -38.4294 245.652 -37.4021Z" fill="white"/>
        <path d="M206.725 74.1249C203.571 79.5887 200.176 83.5346 199.144 82.9384C198.111 82.3422 199.831 77.4297 202.986 71.9659C206.14 66.5022 209.535 62.5563 210.567 63.1525C211.6 63.7487 209.88 68.6612 206.725 74.1249ZM206.518 74.005C209.321 69.1485 210.85 64.7817 209.933 64.2517C209.015 63.7218 205.997 67.2293 203.193 72.0859C200.39 76.9424 198.861 81.3092 199.778 81.8392C200.696 82.3691 203.714 78.8616 206.518 74.005ZM206.45 73.966C203.761 78.6243 200.865 81.9902 199.985 81.4819C199.104 80.9736 200.572 76.7831 203.261 72.1249C205.95 67.4666 208.846 64.1007 209.726 64.609C210.607 65.1173 209.139 69.3078 206.45 73.966ZM206.419 73.948C209.057 69.3788 210.495 65.2724 209.631 64.7738C208.768 64.2753 205.93 67.5737 203.292 72.1429C200.654 76.7121 199.216 80.8185 200.08 81.317C200.943 81.8156 203.781 78.5172 206.419 73.948ZM206.696 72.5599C206.077 73.6314 205.467 74.5853 204.863 75.4223C203.885 76.7796 203.127 77.536 202.594 77.6847L202.039 78.6465L201.698 78.761L202.324 77.6755C202.3 77.6685 202.277 77.6577 202.257 77.6456C202.206 77.6167 202.166 77.5787 202.132 77.5373L201.629 78.4097L201.287 78.5242L202.021 77.2533C201.983 77.0621 201.975 76.8574 201.999 76.6355C202.119 75.5341 202.901 73.7343 204.343 71.238C204.824 70.4039 205.294 69.6572 205.752 69.0013L206.07 69.185C205.634 69.7065 205.119 70.4834 204.523 71.5163C204.096 72.2562 203.735 72.9625 203.44 73.6385C203.028 74.5793 202.872 75.2363 202.973 75.6044L205.817 70.6784L206.158 70.5641L203.08 75.8953C203.093 75.9097 203.135 75.9449 203.214 75.9906C203.234 76.0019 203.259 76.006 203.284 76.013L206.493 70.4552L206.826 70.3545L203.566 76.0016C203.682 75.9951 203.877 75.861 204.15 75.6057C204.415 75.3541 204.681 75.0574 204.947 74.7104C205.394 74.1288 205.884 73.3745 206.42 72.4465C206.914 71.5904 207.304 70.7958 207.589 70.062L208.066 69.8979C207.745 70.6473 207.289 71.5326 206.696 72.5599Z" fill="white"/>
        <path d="M462.739 37.3436C451.002 34.1988 438.939 41.1636 435.794 52.8999C432.649 64.6362 439.614 76.6995 451.351 79.8443C463.087 82.989 475.15 76.0243 478.295 64.2879C481.44 52.5516 474.475 40.4883 462.739 37.3436ZM462.106 39.7047C472.538 42.5 478.729 53.2232 475.934 63.6553C473.139 74.0873 462.415 80.2784 451.983 77.4831C441.551 74.6879 435.36 63.9646 438.155 53.5326C440.951 43.1005 451.674 36.9094 462.106 39.7047ZM461.9 40.4721C451.894 37.791 441.604 43.7321 438.923 53.7382C436.242 63.7443 442.183 74.0346 452.189 76.7158C462.195 79.3969 472.485 73.4557 475.166 63.4496C477.848 53.4436 471.906 43.1532 461.9 40.4721ZM461.805 40.8262C471.62 43.4561 477.442 53.5399 474.812 63.3548C472.182 73.1696 462.099 78.9915 452.284 76.3616C442.469 73.7317 436.647 63.6479 439.277 53.8331C441.907 44.0182 451.991 38.1964 461.805 40.8262ZM456.389 44.4521L455.302 48.5104C454.764 48.3778 454.243 48.2581 453.73 48.1205L453.734 48.1059L450.325 47.1926L449.621 49.8196C449.621 49.8196 451.445 50.2724 451.407 50.298C452.408 50.5667 452.586 51.2471 452.545 51.7733L449.568 62.8858C449.44 63.1886 449.121 63.6347 448.421 63.448C448.445 63.4849 446.621 62.9656 446.621 62.9656L445.343 65.7866L448.56 66.6486C449.159 66.8101 449.735 66.9747 450.312 67.1343L449.227 71.2405L451.692 71.9008L452.779 67.8425C453.455 68.0387 454.112 68.2163 454.753 68.3869L453.669 72.4306L456.134 73.091L457.229 69.0034C461.449 69.8785 464.652 69.604 466.058 65.8018C467.191 62.7404 466.078 60.9405 463.87 59.7426C465.499 59.397 466.742 58.362 467.106 56.1654C467.608 53.1647 465.339 51.4995 462.223 50.3649L463.311 46.3066L460.846 45.6462L459.786 49.6011C459.136 49.4269 458.465 49.2648 457.801 49.1011L458.869 45.1164L456.389 44.4521ZM458.579 52.394C460.398 52.8935 462.79 53.8558 462.206 56.0386C461.457 58.8282 457.156 57.3271 455.76 56.9531L457.085 52.0093C457.434 52.1027 457.973 52.227 458.579 52.394ZM456.886 59.8956C459.066 60.4956 461.947 61.6065 461.304 64.006C460.483 67.0739 455.314 65.3254 453.637 64.8776L455.096 59.4323C455.515 59.5441 456.159 59.6958 456.886 59.8956Z" fill="white"/>
        <path d="M259.695 27.6983C251.35 25.4622 242.773 30.4145 240.537 38.7595C238.301 47.1045 243.253 55.682 251.598 57.918C259.943 60.1541 268.521 55.2019 270.757 46.8568C272.993 38.5118 268.04 29.9343 259.695 27.6983ZM259.246 29.3771C266.663 31.3647 271.065 38.9894 269.078 46.407C267.09 53.8246 259.466 58.2267 252.048 56.2392C244.63 54.2516 240.228 46.6269 242.216 39.2093C244.203 31.7917 251.828 27.3896 259.246 29.3771ZM259.099 29.9228C251.985 28.0164 244.668 32.2408 242.761 39.3555C240.855 46.4703 245.079 53.7871 252.194 55.6935C259.309 57.5999 266.626 53.3755 268.532 46.2608C270.439 39.146 266.214 31.8292 259.099 29.9228ZM259.032 30.1746C266.011 32.0446 270.15 39.2146 268.28 46.1933C266.41 53.1721 259.24 57.3116 252.262 55.4417C245.283 53.5717 241.143 46.4018 243.013 39.423C244.883 32.4443 252.053 28.3047 259.032 30.1746ZM255.181 32.7527L254.408 35.6384C254.025 35.5441 253.655 35.4589 253.29 35.3611L253.293 35.3507L250.869 34.7013L250.368 36.5692C250.368 36.5692 251.665 36.8912 251.638 36.9094C252.35 37.1005 252.476 37.5843 252.448 37.9584L250.33 45.8599C250.239 46.0751 250.013 46.3924 249.515 46.2596C249.532 46.2859 248.235 45.9166 248.235 45.9166L247.326 47.9225L249.614 48.5353C250.04 48.6502 250.449 48.7672 250.859 48.8807L250.088 51.8004L251.841 52.2699L252.614 49.3843C253.094 49.5238 253.562 49.6501 254.017 49.7714L253.247 52.6466L254.999 53.1162L255.778 50.2097C258.778 50.832 261.056 50.6368 262.056 47.9332C262.861 45.7565 262.07 44.4767 260.5 43.6249C261.658 43.3792 262.542 42.6433 262.801 41.0813C263.158 38.9478 261.544 37.7637 259.329 36.957L260.102 34.0714L258.35 33.6018L257.596 36.4139C257.134 36.29 256.657 36.1747 256.185 36.0584L256.944 33.2251L255.181 32.7527ZM256.738 38.3998C258.031 38.7549 259.732 39.4391 259.316 40.9912C258.784 42.9748 255.726 41.9074 254.734 41.6415L255.675 38.1262C255.923 38.1926 256.307 38.281 256.738 38.3998ZM255.534 43.7337C257.084 44.1603 259.132 44.9502 258.675 46.6564C258.092 48.8378 254.416 47.5945 253.224 47.2761L254.261 43.4043C254.559 43.4837 255.017 43.5916 255.534 43.7337Z" fill="white"/>
        <path d="M134.559 -20.3508C124.786 -22.9694 114.741 -17.1699 112.123 -7.39729C109.504 2.37537 115.303 12.4203 125.076 15.0388C134.849 17.6574 144.894 11.858 147.512 2.08534C150.131 -7.68731 144.331 -17.7322 134.559 -20.3508ZM134.032 -18.3847C142.718 -16.0571 147.874 -7.12806 145.546 1.55853C143.219 10.2451 134.289 15.4003 125.603 13.0728C116.916 10.7452 111.761 1.81611 114.089 -6.87048C116.416 -15.5571 125.345 -20.7123 134.032 -18.3847ZM133.861 -17.7457C125.529 -19.9782 116.96 -15.0312 114.728 -6.69926C112.495 1.63264 117.442 10.2012 125.774 12.4338C134.106 14.6663 142.675 9.71922 144.907 1.38731C147.14 -6.94459 142.193 -15.5132 133.861 -17.7457ZM133.782 -17.4508C141.954 -15.261 146.802 -6.86436 144.612 1.30829C142.422 9.48093 134.026 14.3287 125.853 12.1389C117.68 9.94901 112.833 1.55241 115.023 -6.62024C117.212 -14.7929 125.609 -19.6407 133.782 -17.4508ZM129.272 -14.4316L128.366 -11.0523C127.918 -11.1627 127.485 -11.2625 127.057 -11.377L127.06 -11.3892L124.222 -12.1497L123.636 -9.96222C123.636 -9.96222 125.155 -9.58512 125.123 -9.56384C125.956 -9.34008 126.105 -8.77354 126.071 -8.33537L123.592 0.917847C123.485 1.16993 123.22 1.5414 122.636 1.38593C122.657 1.41669 121.137 0.984291 121.137 0.984291L120.074 3.33327L122.752 4.051C123.251 4.18549 123.731 4.32254 124.211 4.45544L123.308 7.87459L125.36 8.42447L126.266 5.04515C126.828 5.20856 127.375 5.35641 127.909 5.4985L127.007 8.86562L129.059 9.41551L129.971 6.01182C133.485 6.74054 136.152 6.51196 137.323 3.34587C138.266 0.796768 137.339 -0.702015 135.501 -1.69948C136.857 -1.98723 137.892 -2.84907 138.196 -4.6782C138.613 -7.1768 136.724 -8.5634 134.129 -9.50812L135.035 -12.8874L132.983 -13.4373L132.1 -10.1441C131.559 -10.2892 131 -10.4242 130.447 -10.5605L131.336 -13.8785L129.272 -14.4316ZM131.095 -7.81853C132.61 -7.40261 134.601 -6.60134 134.115 -4.78378C133.492 -2.46086 129.91 -3.71081 128.748 -4.02226L129.851 -8.13887C130.141 -8.06111 130.591 -7.95757 131.095 -7.81853ZM129.685 -1.57207C131.501 -1.07248 133.899 -0.147453 133.364 1.85059C132.681 4.40515 128.376 2.94919 126.98 2.57633L128.195 -1.95787C128.544 -1.8648 129.08 -1.73848 129.685 -1.57207Z" fill="white"/>
        <path d="M161.955 38.9606C157.831 41.3416 156.418 46.6147 158.799 50.7386C161.18 54.8625 166.453 56.2755 170.577 53.8945C174.701 51.5136 176.114 46.2404 173.733 42.1165C171.352 37.9926 166.079 36.5797 161.955 38.9606ZM162.434 39.7903C166.1 37.6739 170.787 38.9299 172.903 42.5955C175.02 46.2611 173.764 50.9485 170.098 53.0648C166.433 55.1812 161.745 53.9252 159.629 50.2596C157.513 46.594 158.769 41.9066 162.434 39.7903ZM162.59 40.0599C159.074 42.0898 157.869 46.588 159.899 50.1039C161.928 53.6199 166.427 54.8251 169.943 52.7952C173.458 50.7653 174.664 46.2671 172.634 42.7512C170.604 39.2353 166.106 38.03 162.59 40.0599ZM162.662 40.1844C166.11 38.1932 170.518 39.3743 172.509 42.8231C174.501 46.2718 173.319 50.6796 169.871 52.6708C166.422 54.6619 162.014 53.4808 160.023 50.0321C158.032 46.5833 159.213 42.1755 162.662 40.1844ZM162.166 42.6901L162.989 44.1161C162.803 44.2285 162.625 44.3396 162.445 44.4438L162.442 44.4386L161.244 45.1301L161.777 46.0532C161.777 46.0532 162.408 45.6731 162.405 45.691C162.757 45.488 162.995 45.6272 163.129 45.7842L165.384 49.6889C165.432 49.8084 165.467 50.0202 165.221 50.1626C165.238 50.1661 164.589 50.5278 164.589 50.5278L165.017 51.6637L166.147 51.0111C166.358 50.8898 166.563 50.7757 166.767 50.6601L167.604 52.0986L168.47 51.5986L167.647 50.1726C167.889 50.0397 168.12 49.9069 168.345 49.7766L169.165 51.1975L170.031 50.6975L169.202 49.2612C170.614 48.3343 171.426 47.3706 170.762 45.9271C170.227 44.7649 169.42 44.5745 168.476 44.8543C168.832 44.3072 168.889 43.6759 168.382 42.9662C167.689 41.9957 166.599 42.1629 165.421 42.712L164.597 41.286L163.731 41.786L164.534 43.1757C164.305 43.3076 164.074 43.4487 163.845 43.5872L163.037 42.1871L162.166 42.6901ZM164.973 44.2841C165.616 43.9185 166.545 43.5223 166.988 44.2892C167.554 45.2697 165.946 46.0456 165.456 46.3287L164.453 44.5916C164.575 44.5209 164.759 44.4058 164.973 44.2841ZM166.583 46.8324C167.353 46.3943 168.46 45.904 168.946 46.747C169.569 47.8247 167.652 48.7727 167.063 49.1133L165.959 47.1999C166.106 47.1147 166.326 46.9784 166.583 46.8324Z" fill="white"/>
        <path d="M398.955 47.9606C394.831 50.3416 393.418 55.6147 395.799 59.7386C398.18 63.8625 403.453 65.2755 407.577 62.8945C411.701 60.5136 413.114 55.2404 410.733 51.1165C408.352 46.9926 403.079 45.5797 398.955 47.9606ZM399.434 48.7903C403.1 46.6739 407.787 47.9299 409.903 51.5955C412.02 55.2611 410.764 59.9485 407.098 62.0648C403.433 64.1812 398.745 62.9252 396.629 59.2596C394.513 55.594 395.769 50.9066 399.434 48.7903ZM399.59 49.0599C396.074 51.0898 394.869 55.588 396.899 59.1039C398.928 62.6199 403.427 63.8251 406.943 61.7952C410.458 59.7653 411.664 55.2671 409.634 51.7512C407.604 48.2353 403.106 47.03 399.59 49.0599ZM399.662 49.1844C403.11 47.1932 407.518 48.3743 409.509 51.8231C411.5 55.2718 410.319 59.6796 406.871 61.6708C403.422 63.6619 399.014 62.4808 397.023 59.0321C395.032 55.5833 396.213 51.1755 399.662 49.1844ZM399.166 51.6901L399.989 53.1161C399.803 53.2285 399.625 53.3396 399.445 53.4438L399.442 53.4386L398.244 54.1301L398.777 55.0532C398.777 55.0532 399.408 54.6731 399.405 54.691C399.757 54.488 399.995 54.6272 400.129 54.7842L402.384 58.6889C402.432 58.8084 402.467 59.0202 402.221 59.1626C402.238 59.1661 401.589 59.5278 401.589 59.5278L402.017 60.6637L403.147 60.0111C403.358 59.8898 403.563 59.7757 403.767 59.6601L404.604 61.0986L405.47 60.5986L404.647 59.1726C404.889 59.0397 405.12 58.9069 405.345 58.7766L406.165 60.1975L407.031 59.6975L406.202 58.2612C407.614 57.3343 408.426 56.3706 407.762 54.9271C407.227 53.7649 406.42 53.5745 405.476 53.8543C405.832 53.3072 405.889 52.6759 405.382 51.9662C404.689 50.9957 403.599 51.1629 402.421 51.712L401.598 50.286L400.731 50.786L401.534 52.1757C401.305 52.3076 401.074 52.4487 400.845 52.5872L400.037 51.1871L399.166 51.6901ZM401.973 53.2841C402.616 52.9185 403.545 52.5223 403.988 53.2892C404.554 54.2697 402.946 55.0456 402.456 55.3287L401.453 53.5916C401.575 53.5209 401.759 53.4058 401.973 53.2841ZM403.583 55.8324C404.353 55.3943 405.459 54.904 405.946 55.747C406.569 56.8247 404.652 57.7727 404.063 58.1133L402.959 56.1999C403.106 56.1147 403.326 55.9784 403.583 55.8324Z" fill="white"/>
        <path d="M268.544 99.8161C275.202 106.474 285.997 106.474 292.655 99.8161C299.313 93.158 299.313 82.3632 292.655 75.7051C285.997 69.047 275.202 69.047 268.544 75.7051C261.886 82.3632 261.886 93.158 268.544 99.8161ZM269.883 98.4766C263.965 92.5584 263.965 82.9628 269.883 77.0446C275.801 71.1264 285.397 71.1264 291.315 77.0446C297.233 82.9628 297.233 92.5584 291.315 98.4766C285.397 104.395 275.801 104.395 269.883 98.4766ZM270.318 98.0412C275.995 103.718 285.203 103.718 290.88 98.0412C296.556 92.3647 296.556 83.1565 290.88 77.4799C285.203 71.8034 275.995 71.8034 270.318 77.4799C264.642 83.1565 264.642 92.3647 270.318 98.0412ZM270.519 97.8403C264.951 92.2723 264.951 83.2489 270.519 77.6809C276.087 72.1128 285.111 72.1128 290.679 77.6809C296.247 83.2489 296.247 92.2723 290.679 97.8403C285.111 103.408 276.087 103.408 270.519 97.8403ZM275.559 97.5054L277.861 95.2031C278.171 95.5007 278.474 95.7828 278.766 96.0741L278.757 96.0824L280.691 98.0161L282.181 96.5257C282.181 96.5257 281.133 95.5149 281.168 95.5128C280.601 94.9446 280.745 94.419 280.976 94.0814L287.28 87.7772C287.483 87.6237 287.87 87.4477 288.268 87.8444C288.266 87.8102 289.289 88.8657 289.289 88.8657L291.24 87.4675L289.415 85.6426C289.075 85.3021 288.752 84.9683 288.427 84.6377L290.746 82.3021L289.348 80.904L287.045 83.2063C286.668 82.8127 286.296 82.439 285.932 82.0763L288.226 79.7823L286.828 78.3841L284.509 80.703C282.016 78.4805 279.76 77.4237 277.343 79.4305C275.396 81.0462 275.446 82.6855 276.463 84.3449C275.236 83.9457 274.001 84.1587 272.905 85.4917C271.406 87.3113 272.284 89.308 273.935 91.2768L271.633 93.5791L273.031 94.9773L275.275 92.7336C275.644 93.1025 276.031 93.4714 276.413 93.8384L274.153 96.099L275.559 97.5054ZM277.167 91.3269C276.14 90.2869 274.907 88.7143 276.145 87.4758C277.729 85.8936 280.033 88.5675 280.825 89.3594L278.021 92.1641C277.823 91.9664 277.509 91.6738 277.167 91.3269ZM281.21 86.9486C279.979 85.701 278.477 83.8393 279.837 82.4779C281.577 80.7371 284.369 83.9135 285.321 84.8638L282.232 87.9529C281.994 87.7156 281.621 87.3644 281.21 86.9486Z" fill="white"/>
        <path d="M102.661 48.4958C94.6031 53.0597 91.7705 63.2917 96.3344 71.3499C100.898 79.4081 111.13 82.2407 119.188 77.6768C127.247 73.1129 130.079 62.8809 125.515 54.8227C120.952 46.7645 110.719 43.9319 102.661 48.4958ZM103.579 50.117C110.742 46.0603 119.838 48.5782 123.894 55.7409C127.951 62.9035 125.433 71.999 118.27 76.0557C111.108 80.1124 102.012 77.5944 97.9555 70.4317C93.8988 63.2691 96.4168 54.1737 103.579 50.117ZM103.878 50.6438C97.0077 54.5349 94.5914 63.2631 98.4824 70.1333C102.373 77.0035 111.102 79.4198 117.972 75.5288C124.842 71.6377 127.258 62.9095 123.367 56.0393C119.476 49.1691 110.748 46.7528 103.878 50.6438ZM104.016 50.887C110.754 47.0703 119.307 49.4381 123.124 56.177C126.941 62.9159 124.573 71.4689 117.834 75.2856C111.095 79.1023 102.542 76.7345 98.7256 69.9956C94.9089 63.2567 97.2767 54.7037 104.016 50.887ZM104.928 53.515L105.456 54.4472C104.241 55.307 103.47 56.2162 103.141 57.1637C102.647 58.5754 102.788 59.9668 103.571 61.3496C104.012 62.1275 104.578 62.7272 105.26 63.1497C105.941 63.5723 106.688 63.7848 107.504 63.7795C108.604 63.7747 109.593 63.6143 110.478 63.313L113.984 69.5036C113.176 69.8568 112.303 69.8432 111.364 69.4619C110.705 69.1883 110.004 68.574 109.261 67.6152L107.512 69.0874C108.155 70.0551 108.906 70.7614 109.744 71.209C110.583 71.6569 111.39 71.871 112.176 71.8395C112.962 71.808 113.872 71.5732 114.914 71.1452L116.015 73.0906L117.161 72.442L116.047 70.4762C117.372 69.6404 118.213 68.5251 118.56 67.1392C118.907 65.7538 118.704 64.3935 117.942 63.0468C117.595 62.4345 117.161 61.9218 116.658 61.5121C116.155 61.1028 115.605 60.8193 115.007 60.6538C114.41 60.4884 113.733 60.4429 112.977 60.5189C112.583 60.5617 111.823 60.7335 110.705 61.0432L107.531 55.4398C108.238 55.2107 108.896 55.2002 109.49 55.4013C110.084 55.6022 110.654 56.0486 111.202 56.7466L113.036 55.3065C112.166 54.1729 111.108 53.4895 109.859 53.265C108.882 53.0859 107.793 53.2662 106.602 53.7986L106.074 52.8664L104.928 53.515ZM106.375 56.0683L109.422 61.4487C108.385 61.6838 107.553 61.6782 106.929 61.4418C106.305 61.2054 105.806 60.7585 105.431 60.0957C105.051 59.4259 104.949 58.7268 105.108 57.9901C105.266 57.2537 105.684 56.6117 106.375 56.0683ZM111.778 62.9377C113.013 62.6849 113.937 62.6744 114.529 62.9052C115.121 63.1356 115.605 63.5988 116.004 64.3044C116.473 65.1328 116.622 65.9695 116.447 66.8107C116.272 67.652 115.832 68.3331 115.129 68.855L111.778 62.9377Z" fill="white"/>
        <path d="M399.637 84.2826C390.703 79.1246 379.279 82.1855 374.121 91.1196C368.963 100.054 372.024 111.477 380.958 116.635C389.892 121.794 401.316 118.733 406.474 109.799C411.632 100.864 408.571 89.4407 399.637 84.2826ZM398.599 86.08C406.54 90.6649 409.261 100.82 404.677 108.761C400.092 116.702 389.937 119.423 381.996 114.838C374.055 110.253 371.334 100.099 375.919 92.1573C380.503 84.2161 390.658 81.4952 398.599 86.08ZM398.262 86.6642C390.645 82.2665 380.9 84.8776 376.503 92.4946C372.105 100.112 374.716 109.856 382.333 114.254C389.95 118.652 399.695 116.04 404.092 108.424C408.49 100.807 405.879 91.0618 398.262 86.6642ZM398.106 86.9338C405.578 91.2474 408.136 100.797 403.823 108.268C399.509 115.739 389.96 118.298 382.489 113.984C375.017 109.671 372.459 100.122 376.772 92.6502C381.086 85.1789 390.635 82.6202 398.106 86.9338ZM396.099 89.2948L395.502 90.3283C393.99 89.6469 392.682 89.4207 391.586 89.6399C389.952 89.963 388.696 90.8847 387.811 92.4179C387.313 93.2803 387.057 94.1632 387.036 95.0563C387.016 95.9491 387.233 96.7862 387.699 97.566C388.326 98.6198 389.038 99.4784 389.827 100.158L385.865 107.021C385.069 106.445 384.589 105.599 384.425 104.483C384.315 103.695 384.509 102.675 385.01 101.42L382.608 100.573C382.042 101.737 381.788 102.856 381.832 103.914C381.876 104.972 382.126 105.868 382.6 106.605C383.075 107.342 383.815 108.083 384.814 108.841L383.569 110.998L384.838 111.731L386.097 109.552C387.647 110.351 389.193 110.529 390.72 110.079C392.246 109.63 393.437 108.666 394.3 107.174C394.691 106.494 394.939 105.788 395.048 105.074C395.157 104.36 395.118 103.672 394.939 103.004C394.76 102.337 394.422 101.662 393.922 100.979C393.658 100.624 393.064 99.9917 392.135 99.0935L395.721 92.881C396.341 93.4304 396.722 94.0556 396.865 94.7394C397.008 95.4234 396.901 96.2234 396.54 97.1433L398.959 98.0907C399.556 96.6148 399.615 95.2137 399.125 93.8872C398.745 92.8483 397.956 91.9048 396.772 91.0614L397.369 90.0279L396.099 89.2948ZM394.465 92.1257L391.021 98.0909C390.209 97.2283 389.744 96.4261 389.619 95.6937C389.494 94.9612 389.64 94.2294 390.065 93.4946C390.493 92.7519 391.107 92.2593 391.904 91.9951C392.7 91.7312 393.553 91.7693 394.465 92.1257ZM390.922 101.194C391.863 102.238 392.395 103.118 392.508 103.817C392.621 104.516 392.449 105.241 391.998 106.024C391.467 106.942 390.748 107.557 389.842 107.865C388.935 108.172 388.033 108.134 387.134 107.754L390.922 101.194Z" fill="white"/>
        <path d="M311.805 -35.7635C310.74 -31.7876 313.099 -27.7009 317.075 -26.6356C321.051 -25.5702 325.138 -27.9297 326.203 -31.9056C327.268 -35.8815 324.909 -39.9682 320.933 -41.0335C316.957 -42.0989 312.87 -39.7394 311.805 -35.7635ZM312.605 -35.5492C313.552 -39.0832 317.185 -41.1806 320.719 -40.2336C324.253 -39.2867 326.35 -35.654 325.403 -32.1199C324.456 -28.5858 320.823 -26.4885 317.289 -27.4354C313.755 -28.3824 311.658 -32.0151 312.605 -35.5492ZM312.865 -35.4795C311.957 -32.0898 313.969 -28.6037 317.359 -27.6954C320.749 -26.7871 324.235 -28.7998 325.143 -32.1896C326.051 -35.5793 324.039 -39.0654 320.649 -39.9737C317.259 -40.882 313.773 -38.8693 312.865 -35.4795ZM312.985 -35.4474C313.876 -38.7723 317.292 -40.7446 320.617 -39.8537C323.942 -38.9628 325.914 -35.5467 325.023 -32.2217C324.132 -28.8967 320.716 -26.9245 317.391 -27.8154C314.066 -28.7063 312.094 -32.1224 312.985 -35.4474ZM314.102 -34.9176L314.562 -34.7943C314.456 -34.1411 314.504 -33.6135 314.701 -33.2139C314.994 -32.6173 315.479 -32.2284 316.162 -32.0456C316.546 -31.9428 316.912 -31.9354 317.259 -32.0197C317.605 -32.1039 317.905 -32.2743 318.157 -32.5344C318.499 -32.8846 318.756 -33.2479 318.936 -33.6222L321.991 -32.8038C321.851 -32.4376 321.575 -32.1653 321.161 -31.9867C320.869 -31.863 320.456 -31.8322 319.921 -31.8958L319.842 -30.8827C320.349 -30.7849 320.807 -30.8025 321.21 -30.9287C321.613 -31.0549 321.933 -31.2438 322.168 -31.5027C322.402 -31.7616 322.612 -32.1233 322.801 -32.5867L323.761 -32.3295L323.912 -32.8946L322.942 -33.1545C323.09 -33.8346 322.999 -34.4487 322.668 -34.9908C322.337 -35.5326 321.843 -35.8922 321.178 -36.0704C320.876 -36.1512 320.579 -36.1735 320.292 -36.1418C320.005 -36.11 319.744 -36.0241 319.506 -35.8863C319.267 -35.7485 319.042 -35.5482 318.83 -35.2851C318.721 -35.1467 318.538 -34.8523 318.288 -34.4016L315.523 -35.1424C315.671 -35.4378 315.873 -35.6494 316.121 -35.7749C316.37 -35.9006 316.69 -35.9423 317.081 -35.8982L317.197 -36.9283C316.566 -37.0058 316.02 -36.8838 315.56 -36.5578C315.198 -36.3041 314.916 -35.9029 314.713 -35.3594L314.254 -35.4826L314.102 -34.9176ZM315.362 -34.58L318.017 -33.8687C317.768 -33.4668 317.507 -33.2049 317.237 -33.0809C316.968 -32.9569 316.671 -32.938 316.344 -33.0256C316.013 -33.1141 315.76 -33.2998 315.576 -33.5796C315.392 -33.8593 315.319 -34.1917 315.362 -34.58ZM319.223 -34.1511C319.528 -34.6215 319.812 -34.9175 320.07 -35.0331C320.328 -35.1489 320.625 -35.1577 320.973 -35.0644C321.382 -34.9549 321.693 -34.7412 321.905 -34.4236C322.117 -34.1058 322.196 -33.7543 322.142 -33.3688L319.223 -34.1511Z" fill="white"/>
        <path d="M350.119 -61.3651C340.382 -55.8503 336.959 -43.4864 342.474 -33.7493C347.988 -24.0122 360.352 -20.5894 370.089 -26.1041C379.826 -31.6189 383.249 -43.9828 377.734 -53.72C372.22 -63.4571 359.856 -66.8799 350.119 -61.3651ZM351.228 -59.4062C359.883 -64.3081 370.874 -61.2655 375.776 -52.6105C380.677 -43.9555 377.635 -32.965 368.98 -28.0631C360.325 -23.1612 349.334 -26.2038 344.432 -34.8588C339.531 -43.5138 342.573 -54.5042 351.228 -59.4062ZM351.589 -58.7695C343.287 -54.0677 340.367 -43.521 345.069 -35.2194C349.771 -26.9177 360.318 -23.998 368.619 -28.6997C376.921 -33.4015 379.841 -43.9483 375.139 -52.2499C370.437 -60.5515 359.89 -63.4713 351.589 -58.7695ZM351.755 -58.4757C359.898 -63.0876 370.233 -60.2264 374.845 -52.0835C379.457 -43.9405 376.596 -33.6055 368.453 -28.9936C360.31 -24.3817 349.975 -27.2428 345.363 -35.3858C340.751 -43.5287 343.612 -53.8638 351.755 -58.4757ZM352.858 -55.3001L353.496 -54.1737C352.027 -53.1348 351.096 -52.0361 350.698 -50.8912C350.101 -49.1854 350.272 -47.5041 351.218 -45.8332C351.751 -44.8933 352.435 -44.1685 353.259 -43.658C354.082 -43.1473 354.985 -42.8906 355.97 -42.897C357.3 -42.9028 358.494 -43.0967 359.564 -43.4607L363.8 -35.9803C362.824 -35.5535 361.769 -35.57 360.635 -36.0307C359.838 -36.3613 358.991 -37.1036 358.093 -38.2622L355.98 -36.4832C356.757 -35.314 357.664 -34.4604 358.677 -33.9196C359.691 -33.3784 360.666 -33.1197 361.615 -33.1577C362.565 -33.1957 363.665 -33.4795 364.924 -33.9966L366.255 -31.6459L367.639 -32.4297L366.294 -34.8051C367.894 -35.8149 368.91 -37.1626 369.33 -38.8373C369.749 -40.5114 369.504 -42.1551 368.583 -43.7824C368.163 -44.5223 367.639 -45.1418 367.031 -45.6368C366.424 -46.1314 365.759 -46.4739 365.037 -46.6739C364.315 -46.8739 363.497 -46.9288 362.584 -46.837C362.107 -46.7853 361.189 -46.5777 359.838 -46.2034L356.003 -52.9743C356.857 -53.2511 357.652 -53.2638 358.37 -53.0208C359.088 -52.7781 359.777 -52.2387 360.439 -51.3952L362.655 -53.1354C361.603 -54.5052 360.326 -55.3309 358.816 -55.6022C357.636 -55.8186 356.32 -55.6008 354.88 -54.9575L354.242 -56.0839L352.858 -55.3001ZM354.606 -52.2148L358.288 -45.7135C357.035 -45.4293 356.029 -45.4362 355.276 -45.7218C354.522 -46.0074 353.918 -46.5475 353.465 -47.3483C353.006 -48.1577 352.883 -49.0024 353.075 -49.8927C353.266 -50.7825 353.771 -51.5583 354.606 -52.2148ZM361.135 -43.9141C362.628 -44.2196 363.744 -44.2324 364.459 -43.9534C365.175 -43.6751 365.759 -43.1153 366.242 -42.2628C366.809 -41.2618 366.988 -40.2508 366.776 -39.2343C366.565 -38.2176 366.034 -37.3947 365.184 -36.764L361.135 -43.9141Z" fill="white"/>
        <path d="M306.464 -0.854404C299.293 -4.99437 290.124 -2.53757 285.984 4.63306C281.844 11.8037 284.301 20.9726 291.472 25.1125C298.642 29.2525 307.811 26.7957 311.951 19.6251C316.091 12.4544 313.634 3.28556 306.464 -0.854404ZM305.631 0.588203C312.004 4.26807 314.188 12.4185 310.509 18.7922C306.829 25.1659 298.678 27.3498 292.305 23.6699C285.931 19.9901 283.747 11.8397 287.427 5.46594C291.107 -0.907784 299.257 -3.09167 305.631 0.588203ZM305.36 1.05705C299.247 -2.47257 291.425 -0.376846 287.896 5.73663C284.366 11.8501 286.462 19.6715 292.575 23.2011C298.689 26.7307 306.51 24.635 310.04 18.5215C313.569 12.408 311.474 4.58667 305.36 1.05705ZM305.235 1.27345C311.232 4.7356 313.285 12.3999 309.823 18.3966C306.361 24.3932 298.697 26.4468 292.7 22.9847C286.703 19.5225 284.65 11.8582 288.112 5.86156C291.574 -0.135063 299.238 -2.18871 305.235 1.27345ZM303.624 3.16846L303.145 3.99796C301.931 3.45106 300.881 3.26952 300.002 3.4454C298.69 3.70473 297.682 4.44456 296.971 5.6751C296.572 6.36726 296.367 7.07587 296.35 7.79267C296.333 8.50931 296.508 9.18118 296.882 9.80708C297.385 10.6528 297.957 11.3419 298.59 11.8873L295.41 17.396C294.771 16.9335 294.386 16.2548 294.254 15.3585C294.166 14.7263 294.321 13.9074 294.723 12.9005L292.796 12.2204C292.342 13.1547 292.138 14.0532 292.173 14.9023C292.208 15.7516 292.409 16.4704 292.79 17.0618C293.17 17.6531 293.764 18.2484 294.566 18.8568L293.567 20.5879L294.586 21.1763L295.596 19.427C296.84 20.0686 298.081 20.211 299.307 19.8502C300.532 19.4895 301.488 18.7163 302.18 17.5182C302.494 16.973 302.693 16.4062 302.78 15.8328C302.868 15.2597 302.837 14.7075 302.693 14.1719C302.55 13.6362 302.278 13.0942 301.877 12.5464C301.665 12.2617 301.188 11.7539 300.442 11.033L303.321 6.04681C303.818 6.48772 304.124 6.98954 304.239 7.53837C304.353 8.08736 304.268 8.72945 303.978 9.46776L305.92 10.2282C306.399 9.0436 306.446 7.91908 306.052 6.85436C305.747 6.02051 305.115 5.26325 304.164 4.58632L304.643 3.75682L303.624 3.16846ZM302.312 5.44057L299.548 10.2283C298.897 9.53604 298.524 8.89214 298.423 8.30428C298.322 7.71642 298.44 7.12899 298.781 6.53925C299.125 5.94317 299.617 5.54779 300.257 5.33572C300.896 5.12393 301.58 5.15453 302.312 5.44057ZM299.469 12.7189C300.224 13.5565 300.651 14.2635 300.741 14.8243C300.832 15.385 300.695 15.9675 300.332 16.5953C299.907 17.3325 299.329 17.8262 298.602 18.0729C297.874 18.3193 297.15 18.2895 296.429 17.9844L299.469 12.7189Z" fill="white"/>
        <path d="M19.6955 27.6983C11.3505 25.4622 2.77295 30.4145 0.536911 38.7595C-1.69913 47.1045 3.25309 55.682 11.5981 57.918C19.9431 60.1541 28.5206 55.2019 30.7567 46.8568C32.9927 38.5118 28.0405 29.9343 19.6955 27.6983ZM19.2456 29.3771C26.6632 31.3647 31.0653 38.9894 29.0778 46.407C27.0903 53.8246 19.4656 58.2267 12.048 56.2392C4.63036 54.2516 0.228245 46.6269 2.21579 39.2093C4.20333 31.7917 11.828 27.3896 19.2456 29.3771ZM19.0994 29.9228C11.9847 28.0164 4.66781 32.2408 2.76142 39.3555C0.855033 46.4703 5.07943 53.7871 12.1942 55.6935C19.3089 57.5999 26.6258 53.3755 28.5322 46.2608C30.4386 39.146 26.2142 31.8292 19.0994 29.9228ZM19.0319 30.1746C26.0107 32.0446 30.1503 39.2146 28.2803 46.1933C26.4104 53.1721 19.2404 57.3116 12.2616 55.4417C5.2829 53.5717 1.1433 46.4018 3.01325 39.423C4.8832 32.4443 12.0532 28.3047 19.0319 30.1746ZM15.181 32.7527L14.4078 35.6384C14.025 35.5441 13.6548 35.4589 13.2898 35.3611L13.2926 35.3507L10.869 34.7013L10.3685 36.5692C10.3685 36.5692 11.6656 36.8912 11.638 36.9094C12.3498 37.1005 12.4764 37.5843 12.4477 37.9584L10.3306 45.8599C10.2394 46.0751 10.013 46.3924 9.51484 46.2596C9.53227 46.2859 8.23486 45.9166 8.23486 45.9166L7.32636 47.9225L9.61366 48.5353C10.0396 48.6502 10.4494 48.7672 10.8595 48.8807L10.0884 51.8004L11.8408 52.2699L12.614 49.3843C13.0945 49.5238 13.5616 49.6501 14.0171 49.7714L13.2467 52.6466L14.9991 53.1162L15.7779 50.2097C18.7785 50.832 21.0559 50.6368 22.056 47.9332C22.8613 45.7565 22.0699 44.4767 20.5001 43.6249C21.6582 43.3792 22.5421 42.6433 22.8012 41.0813C23.1576 38.9478 21.5445 37.7637 19.3289 36.957L20.1021 34.0714L18.3497 33.6018L17.5962 36.4139C17.1338 36.29 16.6566 36.1747 16.1847 36.0584L16.9438 33.2251L15.181 32.7527ZM16.738 38.3998C18.0313 38.7549 19.732 39.4391 19.3165 40.9912C18.7842 42.9748 15.7262 41.9074 14.7337 41.6415L15.6756 38.1262C15.9234 38.1926 16.3071 38.281 16.738 38.3998ZM15.5337 43.7337C17.0843 44.1603 19.1323 44.9502 18.6755 46.6564C18.0917 48.8378 14.4161 47.5945 13.2239 47.2761L14.2613 43.4043C14.5592 43.4837 15.0169 43.5916 15.5337 43.7337Z" fill="white"/>
        <path d="M28.5435 99.816C35.2016 106.474 45.9964 106.474 52.6545 99.816C59.3126 93.1579 59.3126 82.3631 52.6545 75.705C45.9964 69.0469 35.2016 69.0469 28.5435 75.705C21.8854 82.3631 21.8854 93.1579 28.5435 99.816ZM29.883 98.4765C23.9649 92.5583 23.9649 82.9627 29.883 77.0445C35.8012 71.1263 45.3968 71.1263 51.315 77.0445C57.2332 82.9627 57.2332 92.5583 51.315 98.4765C45.3968 104.395 35.8012 104.395 29.883 98.4765ZM30.3184 98.0412C35.9949 103.718 45.2031 103.718 50.8797 98.0412C56.5562 92.3647 56.5562 83.1564 50.8797 77.4799C45.2031 71.8033 35.9949 71.8033 30.3184 77.4799C24.6418 83.1564 24.6418 92.3647 30.3184 98.0412ZM30.5193 97.8403C24.9513 92.2722 24.9513 83.2488 30.5193 77.6808C36.0873 72.1128 45.1107 72.1128 50.6788 77.6808C56.2468 83.2488 56.2468 92.2722 50.6788 97.8403C45.1107 103.408 36.0873 103.408 30.5193 97.8403ZM35.559 97.5054L37.8614 95.203C38.1713 95.5007 38.4743 95.7828 38.7655 96.074L38.7572 96.0823L40.6909 98.016L42.1812 96.5257C42.1812 96.5257 41.1324 95.5149 41.1683 95.5127C40.6006 94.9445 40.7448 94.4189 40.9757 94.0814L47.2799 87.7771C47.4832 87.6236 47.8698 87.4476 48.2677 87.8444C48.2655 87.8101 49.2889 88.8656 49.2889 88.8656L51.2395 87.4674L49.4145 85.6425C49.0751 85.302 48.752 84.9682 48.4268 84.6376L50.7457 82.3021L49.3476 80.9039L47.0452 83.2062C46.6678 82.8127 46.2956 82.439 45.9318 82.0762L48.2259 79.7822L46.8277 78.384L44.5088 80.703C42.0157 78.4805 39.7597 77.4236 37.3424 79.4305C35.3961 81.0462 35.4457 82.6854 36.4632 84.3448C35.2362 83.9456 34.0009 84.1586 32.9052 85.4917C31.406 87.3113 32.2834 89.3079 33.935 91.2767L31.6327 93.579L33.0308 94.9772L35.2745 92.7336C35.6434 93.1024 36.0311 93.4713 36.4131 93.8384L34.1525 96.0989L35.559 97.5054ZM37.1667 91.3268C36.1396 90.2868 34.9072 88.7142 36.1452 87.4758C37.7285 85.8935 40.0332 88.5674 40.8251 89.3594L38.0205 92.164C37.8228 91.9663 37.5088 91.6737 37.1667 91.3268ZM41.2101 86.9485C39.9791 85.7009 38.4765 83.8393 39.8374 82.4778C41.5771 80.737 44.3689 83.9135 45.3208 84.8637L42.2316 87.9529C41.9937 87.7155 41.6205 87.3643 41.2101 86.9485Z" fill="white"/>
        <path d="M71.8051 -35.7635C70.7397 -31.7876 73.0992 -27.7009 77.0751 -26.6356C81.051 -25.5702 85.1377 -27.9297 86.2031 -31.9056C87.2684 -35.8815 84.909 -39.9682 80.933 -41.0335C76.9571 -42.0989 72.8704 -39.7394 71.8051 -35.7635ZM72.605 -35.5492C73.5519 -39.0832 77.1846 -41.1806 80.7187 -40.2336C84.2528 -39.2867 86.3501 -35.654 85.4032 -32.1199C84.4562 -28.5858 80.8235 -26.4885 77.2894 -27.4354C73.7554 -28.3824 71.658 -32.0151 72.605 -35.5492ZM72.8649 -35.4795C71.9566 -32.0898 73.9693 -28.6037 77.3591 -27.6954C80.7489 -26.7871 84.2349 -28.7998 85.1432 -32.1896C86.0515 -35.5793 84.0388 -39.0654 80.649 -39.9737C77.2593 -40.882 73.7732 -38.8693 72.8649 -35.4795ZM72.9849 -35.4474C73.8758 -38.7723 77.2919 -40.7446 80.6169 -39.8537C83.9419 -38.9628 85.9141 -35.5467 85.0232 -32.2217C84.1323 -28.8967 80.7162 -26.9245 77.3912 -27.8154C74.0663 -28.7063 72.094 -32.1224 72.9849 -35.4474ZM74.1022 -34.9176L74.5621 -34.7943C74.4557 -34.1411 74.5036 -33.6135 74.7012 -33.2139C74.9945 -32.6173 75.4795 -32.2284 76.1618 -32.0456C76.5456 -31.9428 76.9122 -31.9354 77.2586 -32.0197C77.6048 -32.1039 77.905 -32.2743 78.1574 -32.5344C78.4988 -32.8846 78.7562 -33.2479 78.9365 -33.6222L81.991 -32.8038C81.8511 -32.4376 81.5747 -32.1653 81.1613 -31.9867C80.8691 -31.863 80.4558 -31.8322 79.9206 -31.8958L79.842 -30.8827C80.3491 -30.7849 80.8068 -30.8025 81.21 -30.9287C81.6133 -31.0549 81.9326 -31.2438 82.1676 -31.5027C82.4026 -31.7616 82.612 -32.1233 82.801 -32.5867L83.7608 -32.3295L83.9122 -32.8946L82.9423 -33.1545C83.0902 -33.8346 82.999 -34.4487 82.668 -34.9908C82.3372 -35.5326 81.8429 -35.8922 81.1786 -36.0704C80.8763 -36.1512 80.5787 -36.1735 80.292 -36.1418C80.0056 -36.11 79.7444 -36.0241 79.5057 -35.8863C79.2669 -35.7485 79.0416 -35.5482 78.8302 -35.2851C78.7207 -35.1467 78.5383 -34.8523 78.2881 -34.4016L75.5233 -35.1424C75.6711 -35.4378 75.8727 -35.6494 76.1215 -35.7749C76.3704 -35.9006 76.6896 -35.9423 77.0814 -35.8982L77.1968 -36.9283C76.5664 -37.0058 76.0203 -36.8838 75.5597 -36.5578C75.1985 -36.3041 74.9163 -35.9029 74.7135 -35.3594L74.2536 -35.4826L74.1022 -34.9176ZM75.362 -34.58L78.0167 -33.8687C77.7681 -33.4668 77.5069 -33.2049 77.2375 -33.0809C76.9682 -32.9569 76.671 -32.938 76.344 -33.0256C76.0134 -33.1141 75.7602 -33.2998 75.5761 -33.5796C75.3921 -33.8593 75.3188 -34.1917 75.362 -34.58ZM79.2228 -34.1511C79.5278 -34.6215 79.8124 -34.9175 80.0701 -35.0331C80.3276 -35.1489 80.625 -35.1577 80.9732 -35.0644C81.3819 -34.9549 81.6933 -34.7412 81.9053 -34.4236C82.1173 -34.1058 82.1961 -33.7543 82.1424 -33.3688L79.2228 -34.1511Z" fill="white"/>
        <path d="M66.4636 -0.854404C59.293 -4.99437 50.1241 -2.53757 45.9841 4.63306C41.8442 11.8037 44.3009 20.9726 51.4716 25.1125C58.6422 29.2525 67.8111 26.7957 71.951 19.6251C76.091 12.4544 73.6342 3.28556 66.4636 -0.854404ZM65.6307 0.588203C72.0044 4.26807 74.1883 12.4185 70.5084 18.7922C66.8286 25.1659 58.6782 27.3498 52.3045 23.6699C45.9307 19.9901 43.7468 11.8397 47.4267 5.46594C51.1066 -0.907784 59.257 -3.09167 65.6307 0.588203ZM65.36 1.05705C59.2465 -2.47257 51.4252 -0.376846 47.8956 5.73663C44.366 11.8501 46.4617 19.6715 52.5752 23.2011C58.6886 26.7307 66.51 24.635 70.0396 18.5215C73.5692 12.408 71.4735 4.58667 65.36 1.05705ZM65.2351 1.27345C71.2317 4.7356 73.2854 12.3999 69.8232 18.3966C66.361 24.3932 58.6967 26.4468 52.7001 22.9847C46.7035 19.5225 44.6498 11.8582 48.112 5.86156C51.5741 -0.135063 59.2384 -2.18871 65.2351 1.27345ZM63.624 3.16846L63.145 3.99796C61.9313 3.45106 60.8812 3.26952 60.0018 3.4454C58.6899 3.70473 57.6819 4.44456 56.9714 5.6751C56.5718 6.36726 56.3666 7.07587 56.3501 7.79267C56.3334 8.50931 56.5083 9.18118 56.8821 9.80708C57.3848 10.6528 57.9567 11.3419 58.5901 11.8873L55.4097 17.396C54.7711 16.9335 54.3859 16.2548 54.254 15.3585C54.1658 14.7263 54.3212 13.9074 54.7233 12.9005L52.7959 12.2204C52.3419 13.1547 52.1378 14.0532 52.1731 14.9023C52.2082 15.7516 52.4091 16.4704 52.7898 17.0618C53.1704 17.6531 53.7643 18.2484 54.5663 18.8568L53.5668 20.5879L54.5859 21.1763L55.5958 19.427C56.8404 20.0686 58.0811 20.211 59.3066 19.8502C60.5315 19.4895 61.4877 18.7163 62.1798 17.5182C62.4942 16.973 62.6925 16.4062 62.7801 15.8328C62.8675 15.2597 62.8366 14.7075 62.693 14.1719C62.5495 13.6362 62.2777 13.0942 61.8765 12.5464C61.6647 12.2617 61.1877 11.7539 60.4421 11.033L63.3209 6.04681C63.818 6.48772 64.1242 6.98954 64.2386 7.53837C64.3532 8.08736 64.268 8.72945 63.9783 9.46776L65.9197 10.2282C66.3986 9.0436 66.4458 7.91908 66.0522 6.85436C65.7473 6.02051 65.1147 5.26325 64.1641 4.58632L64.643 3.75682L63.624 3.16846ZM62.3122 5.44057L59.548 10.2283C58.8966 9.53604 58.5236 8.89214 58.4229 8.30428C58.3223 7.71642 58.4402 7.12899 58.7807 6.53925C59.1248 5.94317 59.6174 5.54779 60.2569 5.33572C60.8962 5.12393 61.5802 5.15453 62.3122 5.44057ZM59.4688 12.7189C60.2239 13.5565 60.6509 14.2635 60.7414 14.8243C60.8324 15.385 60.6946 15.9675 60.3321 16.5953C59.9065 17.3325 59.3291 17.8262 58.6016 18.0729C57.8738 18.3193 57.1497 18.2895 56.4287 17.9844L59.4688 12.7189Z" fill="white"/>
    </g>
</svg>
