<svg xmlns="http://www.w3.org/2000/svg" width="450" height="55" viewBox="0 0 450 55" fill="none">
    <g opacity="0.54">
        <path d="M163.199 56.1195C163.737 54.7825 163.733 53.2882 163.187 51.9544C162.64 50.6206 161.595 49.5525 160.274 48.9774C158.952 48.4022 157.458 48.3654 156.11 48.8746C154.761 49.3839 153.665 50.3991 153.053 51.7044L152.966 51.9174C151.815 51.0021 150.348 50.5815 148.887 50.7481C147.426 50.9148 146.091 51.655 145.175 52.806C144.26 53.957 143.839 55.4244 144.006 56.8855C144.173 58.3466 144.913 59.6817 146.064 60.597L146.199 60.705L140.598 62.2057C139.685 62.4523 138.907 63.0497 138.432 63.8676C137.958 64.6856 137.826 65.6579 138.065 66.5728L139.22 70.8849C139.42 71.6327 139.856 72.296 140.463 72.7761C141.071 73.2561 141.817 73.5271 142.59 73.5487L145.766 85.4017C146.006 86.2968 146.591 87.0605 147.393 87.5256C148.194 87.9907 149.147 88.1192 150.044 87.8831L161.373 84.8475C161.515 84.8674 161.659 84.8586 161.798 84.8214C161.937 84.7842 162.067 84.7196 162.18 84.6312L173.509 81.5956C174.403 81.352 175.164 80.7641 175.626 79.9605C176.088 79.1569 176.212 78.2032 175.972 77.308L172.796 65.4551C173.455 65.0495 173.966 64.4417 174.252 63.7224C174.538 63.0031 174.584 62.2106 174.383 61.4631L173.227 57.1511C173.106 56.6961 172.897 56.2694 172.611 55.8954C172.325 55.5213 171.969 55.2073 171.562 54.9711C171.154 54.7349 170.705 54.5812 170.238 54.5188C169.772 54.4564 169.297 54.4865 168.842 54.6074L163.199 56.1195ZM157.232 50.6454C158.105 50.4115 159.036 50.534 159.819 50.986C160.601 51.438 161.173 52.1825 161.407 53.0557C161.641 53.9289 161.518 54.8593 161.066 55.6423C160.614 56.4252 159.87 56.9964 158.996 57.2304L155.711 58.1107L154.827 54.8112C154.596 53.9399 154.719 53.0124 155.169 52.2317C155.62 51.451 156.362 50.8806 157.232 50.6454ZM148.608 52.9563C149.478 52.727 150.404 52.8515 151.183 53.3024C151.963 53.7534 152.532 54.4942 152.766 55.3633L153.649 58.6558L150.363 59.5361C149.49 59.7701 148.56 59.6476 147.777 59.1955C146.994 58.7435 146.423 57.999 146.189 57.1258C145.955 56.2526 146.077 55.3222 146.529 54.5393C146.981 53.7564 147.726 53.1851 148.599 52.9511L148.608 52.9563ZM141.281 70.3328L140.125 66.0207C140.025 65.6451 140.077 65.2449 140.272 64.9082C140.466 64.5714 140.787 64.3257 141.162 64.2251L154.205 60.7304L156.102 67.811L143.038 71.3114C142.663 71.412 142.262 71.3594 141.926 71.1649C141.589 70.9705 141.343 70.6503 141.243 70.2747L141.281 70.3328ZM144.689 73.1382L156.669 69.9281L160.16 82.9564L149.49 85.8156C149.142 85.9086 148.772 85.8599 148.461 85.6801C148.149 85.5003 147.922 85.204 147.829 84.8566L144.689 73.1382ZM172.889 79.5381L162.219 82.3972L158.73 69.376L170.71 66.1659L173.848 77.8772C173.941 78.2246 173.892 78.5948 173.713 78.9062C173.533 79.2177 173.236 79.445 172.889 79.5381ZM172.251 62.0342C172.352 62.4098 172.299 62.81 172.105 63.1467C171.911 63.4834 171.59 63.7291 171.215 63.8298L158.179 67.3226L156.282 60.242L169.346 56.7416C169.721 56.6409 170.122 56.6936 170.458 56.888C170.795 57.0825 171.041 57.4027 171.141 57.7783L172.297 62.0904L172.251 62.0342Z" fill="white"/>
        <path d="M86.9759 3.00947C87.0669 2.26187 86.8625 1.50828 86.4064 0.908993C85.9503 0.309702 85.2784 -0.0880108 84.5336 -0.199556C83.7888 -0.311102 83.0299 -0.12768 82.4182 0.311699C81.8066 0.751078 81.3904 1.41175 81.2584 2.15319L81.2432 2.2725C80.5385 1.96619 79.741 1.95236 79.0262 2.23405C78.3113 2.51574 77.7376 3.06988 77.4313 3.77456C77.1249 4.47925 77.1111 5.27676 77.3928 5.99164C77.6745 6.70652 78.2286 7.28023 78.9333 7.58654L79.0161 7.62275L76.3924 9.13758C75.965 9.38549 75.6529 9.79224 75.524 10.2692C75.3952 10.7462 75.46 11.2548 75.7044 11.6842L76.8707 13.7043C77.0726 14.0547 77.3823 14.3305 77.7537 14.4907C78.1251 14.6508 78.5383 14.6867 78.9317 14.593L82.1376 20.1456C82.3797 20.565 82.7781 20.8714 83.2456 20.9977C83.713 21.124 84.2115 21.06 84.6319 20.8196L89.9391 17.7555C90.0135 17.7463 90.0854 17.7223 90.1503 17.6848C90.2153 17.6472 90.2721 17.5971 90.3172 17.5372L95.6244 14.473C96.0428 14.2292 96.3475 13.8295 96.4718 13.3615C96.5962 12.8935 96.53 12.3953 96.2879 11.9759L93.0821 6.42327C93.36 6.1294 93.5355 5.75363 93.5825 5.35192C93.6295 4.95022 93.5455 4.54408 93.343 4.19399L92.1767 2.17394C92.0541 1.96068 91.8908 1.77365 91.696 1.62352C91.5011 1.47339 91.2786 1.3631 91.0412 1.29896C90.8037 1.23481 90.556 1.21807 90.3121 1.24967C90.0682 1.28127 89.8328 1.36062 89.6196 1.48316L86.9759 3.00947ZM83.2241 1.05366C83.6332 0.817484 84.1193 0.753483 84.5756 0.875738C85.0318 0.997993 85.4208 1.29649 85.657 1.70556C85.8932 2.11463 85.9572 2.60077 85.8349 3.05703C85.7127 3.51329 85.4142 3.9023 85.0051 4.13848L83.466 5.02707L82.5736 3.48135C82.339 3.07292 82.2757 2.58817 82.3976 2.13319C82.5195 1.67821 82.8167 1.29005 83.2241 1.05366ZM79.184 3.38622C79.5923 3.15279 80.0765 3.09038 80.5307 3.21261C80.9849 3.33484 81.3723 3.63179 81.6084 4.03864L82.4989 5.58105L80.9598 6.46964C80.5507 6.70582 80.0646 6.76982 79.6083 6.64756C79.152 6.52531 78.763 6.22681 78.5268 5.81774C78.2907 5.40867 78.2267 4.92253 78.3489 4.46627C78.4712 4.01001 78.7697 3.621 79.1787 3.38482L79.184 3.38622ZM77.8359 13.147L76.6697 11.1269C76.5681 10.951 76.5406 10.7419 76.5931 10.5456C76.6457 10.3494 76.7741 10.1821 76.9501 10.0805L83.06 6.55293L84.9751 9.86994L78.8552 13.4033C78.6792 13.5048 78.4701 13.5324 78.2739 13.4798C78.0777 13.4272 77.9103 13.2988 77.8088 13.1229L77.8359 13.147ZM79.9353 14.102L85.5477 10.8617L89.0714 16.965L84.0727 19.851C83.9099 19.945 83.7165 19.9705 83.535 19.9218C83.3535 19.8732 83.1987 19.7544 83.1047 19.5917L79.9353 14.102ZM95.0335 13.5184L90.0347 16.4044L86.5129 10.3044L92.1253 7.06413L95.2928 12.5505C95.3868 12.7132 95.4122 12.9066 95.3636 13.0881C95.315 13.2697 95.1962 13.4244 95.0335 13.5184ZM92.3445 4.77043C92.4461 4.94638 92.4736 5.15547 92.4211 5.35171C92.3685 5.54795 92.2401 5.71527 92.0641 5.81685L85.9575 9.3425L84.0425 6.02549L90.1623 2.49218C90.3383 2.3906 90.5474 2.36307 90.7436 2.41565C90.9399 2.46824 91.1072 2.59662 91.2088 2.77257L92.375 4.79263L92.3445 4.77043Z" fill="white"/>
        <path d="M29.7197 2.13886C30.7718 2.56253 31.9476 2.55906 32.9971 2.12917C34.0467 1.69929 34.8871 0.876919 35.3396 -0.163036C35.7922 -1.20299 35.8212 -2.37847 35.4205 -3.43948C35.0197 -4.50048 34.2209 -5.36329 33.1938 -5.8444L33.0262 -5.91294C33.7464 -6.81862 34.0774 -7.97331 33.9463 -9.12301C33.8151 -10.2727 33.2327 -11.3232 32.327 -12.0435C31.4213 -12.7637 30.2666 -13.0947 29.1169 -12.9636C27.9672 -12.8324 26.9167 -12.25 26.1965 -11.3443L26.1115 -11.2379L24.9306 -15.645C24.7366 -16.3633 24.2666 -16.9759 23.623 -17.3493C22.9793 -17.7226 22.2142 -17.8265 21.4944 -17.6384L18.1013 -16.7292C17.5128 -16.5721 16.9909 -16.229 16.6132 -15.7512C16.2355 -15.2734 16.0222 -14.6864 16.0052 -14.0775L6.67848 -11.5784C5.97409 -11.3897 5.37315 -10.9296 5.00721 -10.2988C4.64127 -9.66803 4.54012 -8.91797 4.72591 -8.21279L7.11453 0.701632C7.09884 0.813503 7.10583 0.927387 7.13507 1.0365C7.1643 1.14562 7.2152 1.24774 7.28471 1.33678L9.67333 10.2512C9.86501 10.9548 10.3276 11.5538 10.9599 11.9171C11.5922 12.2804 12.3427 12.3784 13.0471 12.1896L22.3738 9.69056C22.693 10.2093 23.1712 10.6111 23.7372 10.8361C24.3032 11.061 24.9268 11.0971 25.515 10.9389L28.908 10.0298C29.266 9.93464 29.6017 9.76992 29.896 9.54504C30.1904 9.32015 30.4375 9.03949 30.6234 8.71909C30.8092 8.39869 30.9302 8.04482 30.9793 7.67769C31.0284 7.31055 31.0047 6.93734 30.9095 6.57936L29.7197 2.13886ZM34.0271 -2.55641C34.2112 -1.8693 34.1148 -1.1372 33.7591 -0.521149C33.4035 0.0948982 32.8176 0.54442 32.1305 0.728531C31.4434 0.912642 30.7113 0.816259 30.0952 0.460585C29.4792 0.10491 29.0297 -0.480919 28.8456 -1.16803L28.1529 -3.75321L30.7492 -4.4489C31.4348 -4.63102 32.1646 -4.53414 32.7789 -4.17946C33.3932 -3.82479 33.842 -3.2412 34.0271 -2.55641ZM32.2087 -9.34251C32.3891 -8.65751 32.2912 -7.92896 31.9364 -7.31589C31.5815 -6.70282 30.9986 -6.25501 30.3148 -6.07021L27.724 -5.37602L27.0313 -7.9612C26.8472 -8.64831 26.9436 -9.38041 27.2993 -9.99646C27.6549 -10.6125 28.2408 -11.062 28.9279 -11.2461C29.615 -11.4303 30.3471 -11.3339 30.9631 -10.9782C31.5792 -10.6225 32.0287 -10.0367 32.2128 -9.34958L32.2087 -9.34251ZM18.5357 -15.1079L21.9288 -16.0171C22.2243 -16.0962 22.5392 -16.0548 22.8042 -15.9018C23.0691 -15.7488 23.2625 -15.4969 23.3417 -15.2013L26.0916 -4.9386L20.52 -3.44572L17.7657 -13.7252C17.6865 -14.0207 17.7279 -14.3356 17.8809 -14.6005C18.0339 -14.8655 18.2859 -15.0589 18.5814 -15.138L18.5357 -15.1079ZM16.3282 -12.4263L18.8542 -2.99935L8.60257 -0.252441L6.35279 -8.64871C6.27955 -8.92208 6.31789 -9.21335 6.4594 -9.45844C6.6009 -9.70354 6.83398 -9.88238 7.10734 -9.95563L16.3282 -12.4263ZM11.2923 9.76365L9.04257 1.36738L19.2886 -1.37804L21.8145 8.04897L12.5993 10.5182C12.3259 10.5914 12.0346 10.5531 11.7895 10.4116C11.5444 10.2701 11.3656 10.037 11.2923 9.76365ZM25.0656 9.26191C24.7701 9.3411 24.4552 9.29964 24.1902 9.14666C23.9253 8.99369 23.7319 8.74172 23.6527 8.44619L20.9043 -1.81097L26.4758 -3.30385L29.2302 6.97559C29.3094 7.27112 29.2679 7.586 29.115 7.85097C28.962 8.11594 28.71 8.30928 28.4145 8.38847L25.0214 9.29763L25.0656 9.26191Z" fill="white"/>
        <path d="M150.026 -20.2922C149.316 -20.4823 148.712 -20.2469 148.203 -20.0662C147.695 -19.8855 147.243 -19.7367 147.052 -19.7357C146.862 -19.7348 146.419 -19.8827 145.912 -20.0581C145.405 -20.2336 144.8 -20.4583 144.089 -20.2608C143.378 -20.0634 142.964 -19.5502 142.61 -19.1358C142.256 -18.7214 141.942 -18.3643 141.776 -18.2666C141.611 -18.169 141.144 -18.0707 140.617 -17.9638C140.089 -17.857 139.456 -17.7451 138.933 -17.213C138.411 -16.6809 138.306 -16.03 138.201 -15.493C138.096 -14.956 137.991 -14.4907 137.895 -14.3225C137.799 -14.1543 137.448 -13.8279 137.04 -13.4673C136.633 -13.1068 136.132 -12.6883 135.938 -11.9641C135.744 -11.24 135.969 -10.6268 136.141 -10.111C136.313 -9.59528 136.455 -9.13667 136.454 -8.94302C136.453 -8.74934 136.311 -8.29421 136.133 -7.77663C135.956 -7.25906 135.721 -6.64298 135.908 -5.92079C136.094 -5.19861 136.586 -4.78522 136.99 -4.42891C137.393 -4.07259 137.749 -3.75401 137.843 -3.5868C137.937 -3.41959 138.031 -2.95307 138.13 -2.41711C138.23 -1.88117 138.331 -1.23009 138.849 -0.703392C139.366 -0.176697 140.004 -0.0766945 140.531 0.0247021C141.057 0.126099 141.513 0.2276 141.678 0.323624C141.842 0.419598 142.159 0.774422 142.509 1.18513C142.859 1.59582 143.265 2.1021 143.974 2.29218C144.684 2.48227 145.288 2.24683 145.797 2.06613C146.305 1.88543 146.757 1.73667 146.947 1.73568C147.138 1.73469 147.583 1.87479 148.09 2.05017C148.597 2.22561 149.199 2.45816 149.911 2.2607C150.622 2.06324 151.036 1.55007 151.39 1.13569C151.744 0.721327 152.058 0.364218 152.224 0.266518C152.389 0.168842 152.856 0.0705833 153.383 -0.0362835C153.911 -0.14315 154.544 -0.255047 155.067 -0.787148C155.589 -1.31925 155.702 -1.96809 155.807 -2.50511C155.912 -3.04212 156.009 -3.50943 156.105 -3.67764C156.201 -3.84583 156.552 -4.17228 156.959 -4.5328C157.367 -4.89329 157.868 -5.3118 158.062 -6.03595C158.256 -6.76012 158.031 -7.37332 157.859 -7.88908C157.687 -8.40483 157.545 -8.86345 157.546 -9.05711C157.547 -9.25076 157.697 -9.70385 157.874 -10.2214C158.052 -10.739 158.279 -11.3571 158.092 -12.0793C157.906 -12.8015 157.413 -13.2149 157.01 -13.5712C156.607 -13.9275 156.251 -14.2461 156.157 -14.4133C156.063 -14.5805 155.969 -15.0471 155.869 -15.583C155.77 -16.119 155.669 -16.77 155.151 -17.2967C154.634 -17.8234 153.998 -17.9313 153.471 -18.0327C152.945 -18.1341 152.487 -18.2277 152.322 -18.3237C152.158 -18.4197 151.841 -18.7745 151.491 -19.1852C151.141 -19.5959 150.735 -20.1022 150.026 -20.2922ZM149.622 -18.7866C149.731 -18.7576 150.009 -18.5337 150.327 -18.1607C150.645 -17.7876 150.98 -17.2998 151.547 -16.968C152.115 -16.6363 152.689 -16.5924 153.168 -16.5003C153.646 -16.4082 153.986 -16.2731 154.065 -16.1926C154.144 -16.1122 154.274 -15.7672 154.364 -15.2804C154.454 -14.7937 154.501 -14.2048 154.827 -13.6268C155.152 -13.0488 155.627 -12.7132 155.994 -12.3896C156.36 -12.0659 156.587 -11.7785 156.615 -11.6682C156.644 -11.5579 156.588 -11.1886 156.427 -10.7186C156.266 -10.2485 156.023 -9.71519 156.02 -9.04582C156.016 -8.37644 156.254 -7.83788 156.41 -7.36945C156.567 -6.90103 156.617 -6.54178 156.587 -6.43117C156.558 -6.32058 156.333 -6.02658 155.963 -5.69915C155.593 -5.37171 155.12 -5.03193 154.788 -4.45053C154.457 -3.86913 154.398 -3.27824 154.303 -2.7905C154.207 -2.30279 154.073 -1.9629 153.993 -1.88164C153.913 -1.80037 153.573 -1.66492 153.094 -1.56786C152.615 -1.4708 152.034 -1.40971 151.463 -1.07207C150.891 -0.734402 150.557 -0.247614 150.235 0.128716C149.913 0.505066 149.631 0.731216 149.522 0.761356C149.414 0.791521 149.051 0.738478 148.591 0.579142C148.131 0.419836 147.61 0.178551 146.952 0.181971C146.295 0.185387 145.763 0.432789 145.301 0.596912C144.839 0.761036 144.486 0.815533 144.378 0.786495C144.269 0.757463 143.983 0.531504 143.665 0.158474C143.347 -0.214558 143.018 -0.692516 142.45 -1.02425C141.883 -1.35599 141.303 -1.4098 140.825 -1.5019C140.346 -1.59398 140.014 -1.72718 139.935 -1.80753C139.856 -1.88795 139.724 -2.2251 139.634 -2.71188C139.543 -3.19862 139.489 -3.78956 139.164 -4.36757C138.838 -4.94555 138.365 -5.289 137.999 -5.61262C137.632 -5.93623 137.413 -6.2216 137.385 -6.3319C137.356 -6.4422 137.41 -6.80363 137.571 -7.2737C137.732 -7.74379 137.977 -8.28494 137.98 -8.95431C137.984 -9.62368 137.744 -10.1544 137.587 -10.6228C137.431 -11.0913 137.383 -11.4583 137.413 -11.5689C137.442 -11.6795 137.665 -11.9657 138.035 -12.2931C138.405 -12.6206 138.88 -12.9682 139.211 -13.5496C139.543 -14.131 139.6 -14.714 139.695 -15.2018C139.791 -15.6895 139.927 -16.0372 140.007 -16.1185C140.087 -16.1997 140.419 -16.3373 140.898 -16.4343C141.377 -16.5314 141.956 -16.5846 142.528 -16.9223C143.099 -17.2599 143.441 -17.7447 143.763 -18.121C144.084 -18.4973 144.369 -18.7313 144.478 -18.7615C144.586 -18.7916 144.941 -18.7407 145.401 -18.5813C145.861 -18.422 146.388 -18.1708 147.046 -18.1743C147.703 -18.1777 148.229 -18.435 148.691 -18.5991C149.153 -18.7632 149.514 -18.8157 149.622 -18.7866ZM145.597 -15.562C144.112 -15.9599 142.559 -15.0419 142.153 -13.5263C141.747 -12.0107 142.633 -10.4392 144.117 -10.0414C145.602 -9.64359 147.155 -10.5616 147.561 -12.0772C147.967 -13.5927 147.081 -15.1642 145.597 -15.562ZM152.128 -12.7445C151.955 -12.7667 151.779 -12.7279 151.629 -12.6344L141.611 -6.71216C141.518 -6.66412 141.434 -6.59713 141.367 -6.51531C141.299 -6.43349 141.248 -6.33859 141.218 -6.23647C141.188 -6.13435 141.178 -6.02717 141.19 -5.92157C141.202 -5.81597 141.235 -5.71419 141.287 -5.6225C141.339 -5.53082 141.409 -5.45119 141.493 -5.38852C141.577 -5.32585 141.673 -5.28148 141.774 -5.25815C141.876 -5.23483 141.982 -5.23303 142.085 -5.25289C142.187 -5.27275 142.285 -5.31383 142.373 -5.37359L152.391 -11.2958C152.531 -11.3763 152.643 -11.4993 152.711 -11.6474C152.78 -11.7956 152.801 -11.9614 152.772 -12.1215C152.743 -12.2816 152.665 -12.4278 152.55 -12.5396C152.434 -12.6514 152.287 -12.723 152.128 -12.7445ZM145.193 -14.0564C145.881 -13.8722 146.274 -13.1743 146.086 -12.4724C145.898 -11.7706 145.208 -11.3628 144.521 -11.5471C143.833 -11.7313 143.44 -12.4293 143.628 -13.1311C143.816 -13.8329 144.506 -14.2407 145.193 -14.0564ZM149.883 -7.95868C148.398 -8.35651 146.845 -7.43849 146.439 -5.92293C146.033 -4.40737 146.919 -2.8359 148.403 -2.43808C149.888 -2.04026 151.441 -2.95826 151.847 -4.47382C152.253 -5.98938 151.367 -7.56086 149.883 -7.95868ZM149.479 -6.45306C150.167 -6.26883 150.56 -5.57085 150.372 -4.86903C150.184 -4.16716 149.494 -3.75946 148.807 -3.94369C148.119 -4.12792 147.726 -4.82585 147.914 -5.52772C148.102 -6.22954 148.792 -6.63729 149.479 -6.45306Z" fill="white"/>
        <path d="M23 35.5216C21.525 35.5216 20.4744 36.2927 19.5819 36.9075C18.6895 37.5223 17.8901 38.0458 17.5215 38.1466C17.153 38.2474 16.2157 38.191 15.1417 38.114C14.0677 38.0371 12.7774 37.9156 11.5 38.6684C10.2226 39.4212 9.68767 40.6315 9.21597 41.6195C8.74427 42.6074 8.31978 43.4636 8.05 43.739C7.78023 44.0144 6.92545 44.4477 5.95764 44.9292C4.98983 45.4108 3.82013 45.9568 3.08264 47.2608C2.34516 48.5647 2.48015 49.8818 2.55556 50.9782C2.63095 52.0745 2.67026 53.0313 2.5715 53.4075C2.47276 53.7837 1.95991 54.5998 1.35761 55.5108C0.755346 56.4217 0 57.4943 0 58.9999C0 60.5056 0.755346 61.5781 1.35764 62.4891C1.95994 63.4 2.47279 64.2161 2.57153 64.5923C2.67027 64.9685 2.63097 65.9253 2.55558 67.0217C2.48018 68.118 2.34518 69.4351 3.08266 70.739C3.82015 72.043 4.98986 72.589 5.95766 73.0705C6.92547 73.5521 7.78025 73.9854 8.05003 74.2608C8.31981 74.5361 8.7443 75.3924 9.216 76.3803C9.68769 77.3682 10.2227 78.5786 11.5 79.3314C12.7774 80.0842 14.0677 79.9464 15.1417 79.8695C16.2157 79.7925 17.153 79.7524 17.5216 79.8533C17.8901 79.9541 18.6896 80.4776 19.582 81.0924C20.4744 81.7072 21.525 82.4783 23 82.4783C24.475 82.4783 25.5257 81.7072 26.4181 81.0924C27.3105 80.4776 28.1099 79.9541 28.4785 79.8533C28.847 79.7525 29.7843 79.7926 30.8583 79.8695C31.9323 79.9465 33.2227 80.0842 34.5 79.3314C35.7774 78.5786 36.3123 77.3683 36.784 76.3803C37.2557 75.3924 37.6802 74.5362 37.95 74.2608C38.2198 73.9854 39.0746 73.5521 40.0424 73.0705C41.0102 72.589 42.1799 72.043 42.9174 70.739C43.6548 69.4351 43.5358 68.1179 43.4604 67.0216C43.385 65.9253 43.3297 64.9685 43.4285 64.5923C43.5272 64.2161 44.0401 63.3999 44.6424 62.489C45.2447 61.5781 46 60.5056 46 58.9999C46 57.4943 45.2447 56.4217 44.6424 55.5108C44.0401 54.5998 43.5272 53.7837 43.4285 53.4075C43.3297 53.0313 43.385 52.0745 43.4604 50.9782C43.5358 49.8818 43.6548 48.5647 42.9174 47.2608C42.1799 45.9568 41.0102 45.4108 40.0424 44.9292C39.0746 44.4477 38.2198 44.0144 37.95 43.739C37.6802 43.4636 37.2557 42.6074 36.784 41.6195C36.3123 40.6315 35.7774 39.4212 34.5 38.6684C33.2227 37.9156 31.9323 38.0371 30.8583 38.114C29.7843 38.191 28.847 38.2474 28.4785 38.1466C28.1099 38.0458 27.3105 37.5223 26.4181 36.9075C25.5257 36.2927 24.475 35.5216 23 35.5216ZM23 38.6521C23.2253 38.6521 23.8825 38.9415 24.6931 39.4999C25.5036 40.0583 26.4061 40.8308 27.6799 41.1792C28.9536 41.5276 30.0906 41.3144 31.066 41.2445C32.0414 41.1746 32.7716 41.2599 32.9667 41.3749C33.1618 41.4899 33.5924 42.0918 34.0208 42.989C34.4492 43.8863 34.8453 45.0045 35.7778 45.9564C36.7102 46.9083 37.8057 47.3126 38.6847 47.7499C39.5637 48.1872 40.1533 48.6268 40.266 48.826C40.3786 49.0251 40.4622 49.7705 40.3938 50.7662C40.3253 51.7619 40.1323 52.9224 40.4736 54.2227C40.8149 55.523 41.5557 56.4443 42.1028 57.2716C42.6498 58.099 42.9333 58.7699 42.9333 58.9999C42.9333 59.2299 42.6498 59.9171 42.1028 60.7445C41.5557 61.5718 40.8149 62.4768 40.4736 63.7771C40.1323 65.0773 40.3253 66.2542 40.3938 67.2499C40.4622 68.2456 40.3787 68.9747 40.266 69.1738C40.1533 69.373 39.5637 69.8126 38.6847 70.2499C37.8057 70.6872 36.7102 71.1078 35.7778 72.0597C34.8453 73.0116 34.4492 74.1298 34.0208 75.0271C33.5924 75.9244 33.1618 76.51 32.9667 76.6249C32.7716 76.7399 32.0414 76.8252 31.066 76.7553C30.0906 76.6855 28.9536 76.4884 27.6799 76.8369C26.4061 77.1853 25.5036 77.9415 24.6931 78.4999C23.8825 79.0583 23.2253 79.3477 23 79.3477C22.7747 79.3477 22.1015 79.0583 21.291 78.4999C20.4805 77.9415 19.5939 77.1853 18.3201 76.8369C17.0464 76.4884 15.8935 76.6855 14.9181 76.7553C13.9426 76.8252 13.2284 76.7397 13.0333 76.6249C12.8382 76.51 12.4076 75.9244 11.9792 75.0271C11.5508 74.1298 11.1387 73.0116 10.2063 72.0597C9.27376 71.1078 8.17829 70.6872 7.29931 70.2499C6.42032 69.8126 5.84667 69.373 5.73403 69.1738C5.62139 68.9747 5.53777 68.2456 5.60625 67.2499C5.67473 66.2542 5.8677 65.0773 5.52639 63.7771C5.18508 62.4768 4.44425 61.5718 3.89722 60.7445C3.3502 59.9171 3.06667 59.2299 3.06667 58.9999C3.06667 58.7699 3.3502 58.099 3.89722 57.2716C4.44425 56.4443 5.18508 55.523 5.52639 54.2227C5.8677 52.9224 5.67473 51.7619 5.60625 50.7662C5.53777 49.7705 5.62138 49.0251 5.73403 48.826C5.84667 48.6268 6.42032 48.1872 7.29931 47.7499C8.17829 47.3126 9.27376 46.9083 10.2063 45.9564C11.1387 45.0045 11.5508 43.8863 11.9792 42.989C12.4076 42.0918 12.8382 41.4899 13.0333 41.3749C13.2284 41.2599 13.9426 41.1746 14.9181 41.2445C15.8935 41.3144 17.0464 41.5276 18.3201 41.1792C19.5939 40.8308 20.4805 40.0583 21.291 39.4999C22.1015 38.9415 22.7747 38.6521 23 38.6521ZM16.8667 46.9999C13.7798 46.9999 11.2444 49.5879 11.2444 52.739C11.2444 55.8901 13.7798 58.4782 16.8667 58.4782C19.9536 58.4782 22.4889 55.8901 22.4889 52.739C22.4889 49.5879 19.9536 46.9999 16.8667 46.9999ZM31.0021 49.0705C30.6546 49.1173 30.3333 49.2842 30.0917 49.5434L13.7361 66.2391C13.5792 66.381 13.4525 66.5542 13.3638 66.7481C13.275 66.942 13.2262 67.1524 13.2203 67.3663C13.2143 67.5802 13.2514 67.7931 13.3293 67.9918C13.4071 68.1905 13.524 68.3708 13.6728 68.5216C13.8216 68.6724 13.9991 68.7904 14.1943 68.8684C14.3895 68.9463 14.5984 68.9826 14.8079 68.975C15.0174 68.9674 15.2231 68.916 15.4124 68.824C15.6017 68.732 15.7705 68.6013 15.9083 68.4401L32.2639 51.7445C32.4939 51.5155 32.6477 51.2185 32.7035 50.8956C32.7593 50.5726 32.7143 50.2398 32.5749 49.9444C32.4354 49.6489 32.2086 49.4056 31.9264 49.2488C31.6442 49.092 31.3209 49.0296 31.0021 49.0705ZM16.8667 50.1303C18.2962 50.1303 19.4222 51.2797 19.4222 52.739C19.4222 54.1982 18.2962 55.3477 16.8667 55.3477C15.4372 55.3477 14.3111 54.1982 14.3111 52.739C14.3111 51.2797 15.4371 50.1303 16.8667 50.1303ZM29.1333 59.5217C26.0464 59.5217 23.5111 62.1097 23.5111 65.2608C23.5111 68.4119 26.0465 70.9999 29.1333 70.9999C32.2202 70.9999 34.7556 68.4119 34.7556 65.2608C34.7556 62.1097 32.2202 59.5217 29.1333 59.5217ZM29.1333 62.6521C30.5629 62.6521 31.6889 63.8016 31.6889 65.2608C31.6889 66.7201 30.5629 67.8695 29.1333 67.8695C27.7038 67.8695 26.5778 66.7201 26.5778 65.2608C26.5778 63.8016 27.7038 62.6521 29.1333 62.6521Z" fill="white"/>
        <path d="M436 37.326C435.102 37.326 434.463 37.8079 433.919 38.1922C433.376 38.5764 432.89 38.9036 432.665 38.9666C432.441 39.0296 431.87 38.9943 431.217 38.9462C430.563 38.8981 429.778 38.8222 429 39.2927C428.222 39.7632 427.897 40.5197 427.61 41.1371C427.323 41.7546 427.064 42.2897 426.9 42.4619C426.736 42.634 426.216 42.9048 425.626 43.2057C425.037 43.5067 424.325 43.848 423.876 44.6629C423.427 45.4779 423.51 46.3011 423.556 46.9863C423.601 47.6715 423.625 48.2695 423.565 48.5047C423.505 48.7398 423.193 49.2498 422.826 49.8192C422.46 50.3885 422 51.0589 422 51.9999C422 52.9409 422.46 53.6113 422.826 54.1806C423.193 54.75 423.505 55.26 423.565 55.4951C423.625 55.7303 423.601 56.3283 423.556 57.0135C423.51 57.6987 423.427 58.5219 423.876 59.3369C424.325 60.1518 425.037 60.4931 425.626 60.7941C426.216 61.095 426.736 61.3658 426.9 61.5379C427.064 61.7101 427.323 62.2452 427.61 62.8627C427.897 63.4801 428.223 64.2366 429 64.7071C429.778 65.1776 430.563 65.0915 431.217 65.0434C431.87 64.9953 432.441 64.9702 432.665 65.0333C432.89 65.0963 433.376 65.4235 433.919 65.8077C434.463 66.192 435.102 66.6739 436 66.6739C436.898 66.6739 437.537 66.192 438.081 65.8077C438.624 65.4235 439.11 65.0963 439.335 65.0333C439.559 64.9703 440.13 64.9953 440.783 65.0434C441.437 65.0915 442.222 65.1776 443 64.7071C443.778 64.2366 444.103 63.4801 444.39 62.8627C444.677 62.2452 444.936 61.7101 445.1 61.5379C445.264 61.3658 445.785 61.095 446.374 60.7941C446.963 60.4931 447.675 60.1518 448.124 59.3369C448.573 58.5219 448.5 57.6987 448.454 57.0135C448.408 56.3283 448.375 55.7303 448.435 55.4951C448.495 55.26 448.807 54.7499 449.174 54.1806C449.54 53.6113 450 52.9409 450 51.9999C450 51.0589 449.54 50.3885 449.174 49.8192C448.807 49.2498 448.495 48.7398 448.435 48.5047C448.375 48.2695 448.408 47.6715 448.454 46.9863C448.5 46.3011 448.573 45.4779 448.124 44.6629C447.675 43.848 446.963 43.5067 446.374 43.2057C445.785 42.9048 445.264 42.634 445.1 42.4619C444.936 42.2897 444.677 41.7546 444.39 41.1371C444.103 40.5197 443.778 39.7632 443 39.2927C442.222 38.8222 441.437 38.8981 440.783 38.9462C440.13 38.9943 439.559 39.0296 439.335 38.9666C439.11 38.9036 438.624 38.5764 438.081 38.1922C437.537 37.8079 436.898 37.326 436 37.326ZM436 39.2825C436.137 39.2825 436.537 39.4634 437.031 39.8124C437.524 40.1614 438.073 40.6442 438.849 40.862C439.624 41.0797 440.316 40.9464 440.91 40.9028C441.503 40.8591 441.948 40.9124 442.067 40.9843C442.185 41.0561 442.448 41.4323 442.708 41.9931C442.969 42.5539 443.21 43.2528 443.778 43.8477C444.345 44.4426 445.012 44.6953 445.547 44.9687C446.082 45.242 446.441 45.5167 446.51 45.6412C446.578 45.7657 446.629 46.2315 446.587 46.8538C446.546 47.4762 446.428 48.2015 446.636 49.0142C446.844 49.8268 447.295 50.4026 447.628 50.9197C447.961 51.4368 448.133 51.8562 448.133 51.9999C448.133 52.1436 447.961 52.5732 447.628 53.0903C447.295 53.6074 446.844 54.173 446.636 54.9856C446.428 55.7983 446.546 56.5338 446.587 57.1562C446.629 57.7785 446.578 58.2341 446.51 58.3586C446.441 58.4831 446.082 58.7578 445.547 59.0312C445.012 59.3045 444.345 59.5674 443.778 60.1623C443.21 60.7572 442.969 61.4561 442.708 62.0169C442.448 62.5777 442.185 62.9437 442.067 63.0155C441.948 63.0874 441.503 63.1407 440.91 63.097C440.316 63.0534 439.624 62.9302 438.849 63.148C438.073 63.3658 437.524 63.8384 437.031 64.1874C436.537 64.5364 436.137 64.7173 436 64.7173C435.863 64.7173 435.453 64.5364 434.96 64.1874C434.466 63.8384 433.927 63.3658 433.151 63.148C432.376 62.9302 431.674 63.0534 431.081 63.097C430.487 63.1407 430.052 63.0873 429.933 63.0155C429.815 62.9437 429.552 62.5777 429.292 62.0169C429.031 61.4561 428.78 60.7572 428.212 60.1623C427.645 59.5674 426.978 59.3045 426.443 59.0312C425.908 58.7578 425.559 58.4831 425.49 58.3586C425.422 58.2341 425.371 57.7785 425.413 57.1562C425.454 56.5338 425.572 55.7983 425.364 54.9856C425.156 54.173 424.705 53.6074 424.372 53.0903C424.039 52.5732 423.867 52.1436 423.867 51.9999C423.867 51.8562 424.039 51.4368 424.372 50.9197C424.705 50.4026 425.156 49.8268 425.364 49.0142C425.572 48.2015 425.454 47.4762 425.413 46.8538C425.371 46.2315 425.422 45.7657 425.49 45.6412C425.559 45.5167 425.908 45.242 426.443 44.9687C426.978 44.6953 427.645 44.4426 428.212 43.8477C428.78 43.2528 429.031 42.5539 429.292 41.9931C429.552 41.4323 429.815 41.0561 429.933 40.9843C430.052 40.9124 430.487 40.8591 431.081 40.9028C431.674 40.9464 432.376 41.0797 433.151 40.862C433.927 40.6442 434.466 40.1614 434.96 39.8124C435.453 39.4634 435.863 39.2825 436 39.2825ZM432.267 44.4999C430.388 44.4999 428.844 46.1174 428.844 48.0869C428.844 50.0563 430.388 51.6738 432.267 51.6738C434.146 51.6738 435.689 50.0563 435.689 48.0869C435.689 46.1174 434.146 44.4999 432.267 44.4999ZM440.871 45.7941C440.659 45.8233 440.464 45.9276 440.317 46.0896L430.361 56.5244C430.266 56.6131 430.188 56.7214 430.134 56.8425C430.08 56.9637 430.051 57.0952 430.047 57.2289C430.044 57.3626 430.066 57.4957 430.113 57.6199C430.161 57.7441 430.232 57.8567 430.323 57.951C430.413 58.0452 430.521 58.1189 430.64 58.1677C430.759 58.2164 430.886 58.2391 431.013 58.2343C431.141 58.2296 431.266 58.1974 431.381 58.1399C431.497 58.0824 431.599 58.0008 431.683 57.9L441.639 47.4653C441.779 47.3222 441.872 47.1366 441.906 46.9347C441.94 46.7328 441.913 46.5249 441.828 46.3402C441.743 46.1555 441.605 46.0034 441.433 45.9054C441.262 45.8075 441.065 45.7685 440.871 45.7941ZM432.267 46.4564C433.137 46.4564 433.822 47.1748 433.822 48.0869C433.822 48.9989 433.137 49.7173 432.267 49.7173C431.397 49.7173 430.711 48.9989 430.711 48.0869C430.711 47.1748 431.397 46.4564 432.267 46.4564ZM439.733 52.326C437.854 52.326 436.311 53.9435 436.311 55.913C436.311 57.8824 437.854 59.4999 439.733 59.4999C441.612 59.4999 443.156 57.8824 443.156 55.913C443.156 53.9435 441.612 52.326 439.733 52.326ZM439.733 54.2825C440.603 54.2825 441.289 55.001 441.289 55.913C441.289 56.825 440.603 57.5434 439.733 57.5434C438.863 57.5434 438.178 56.825 438.178 55.913C438.178 55.001 438.863 54.2825 439.733 54.2825Z" fill="white"/>
        <path d="M249 -0.782707C248.359 -0.782707 247.902 -0.461437 247.514 -0.205261C247.126 0.0509148 246.778 0.269043 246.618 0.311043C246.458 0.353041 246.05 0.329519 245.583 0.297455C245.116 0.265385 244.555 0.21476 244 0.528433C243.445 0.84211 243.212 1.34642 243.007 1.75805C242.802 2.16969 242.617 2.52646 242.5 2.6412C242.383 2.75595 242.011 2.9365 241.59 3.13713C241.169 3.33776 240.661 3.56529 240.34 4.1086C240.02 4.6519 240.078 5.20071 240.111 5.65751C240.144 6.11431 240.161 6.51299 240.118 6.66974C240.075 6.82648 239.852 7.16653 239.59 7.5461C239.328 7.92566 239 8.37255 239 8.99991C239 9.62726 239.328 10.0742 239.59 10.4537C239.852 10.8333 240.075 11.1733 240.118 11.3301C240.161 11.4868 240.144 11.8855 240.111 12.3423C240.078 12.7991 240.02 13.3479 240.34 13.8912C240.661 14.4345 241.169 14.662 241.59 14.8627C242.011 15.0633 242.383 15.2439 242.5 15.3586C242.617 15.4733 242.802 15.8301 243.007 16.2417C243.212 16.6534 243.445 17.1577 244 17.4714C244.555 17.785 245.116 17.7276 245.583 17.6956C246.05 17.6635 246.458 17.6468 246.618 17.6888C246.778 17.7308 247.126 17.9489 247.514 18.2051C247.902 18.4613 248.359 18.7826 249 18.7826C249.641 18.7826 250.098 18.4613 250.486 18.2051C250.874 17.9489 251.222 17.7308 251.382 17.6888C251.542 17.6468 251.95 17.6635 252.417 17.6956C252.884 17.7276 253.445 17.785 254 17.4714C254.555 17.1577 254.788 16.6534 254.993 16.2417C255.198 15.8301 255.383 15.4734 255.5 15.3586C255.617 15.2439 255.989 15.0633 256.41 14.8627C256.831 14.662 257.339 14.4345 257.66 13.8912C257.98 13.3479 257.929 12.7991 257.896 12.3423C257.863 11.8855 257.839 11.4868 257.882 11.3301C257.925 11.1733 258.148 10.8333 258.41 10.4537C258.672 10.0742 259 9.62726 259 8.99991C259 8.37255 258.672 7.92566 258.41 7.5461C258.148 7.16653 257.925 6.82648 257.882 6.66974C257.839 6.51299 257.863 6.11431 257.896 5.65751C257.929 5.20071 257.98 4.6519 257.66 4.1086C257.339 3.56529 256.831 3.33776 256.41 3.13713C255.989 2.9365 255.617 2.75595 255.5 2.6412C255.383 2.52646 255.198 2.16969 254.993 1.75805C254.788 1.34642 254.555 0.84211 254 0.528433C253.445 0.21476 252.884 0.265385 252.417 0.297455C251.95 0.329525 251.542 0.353037 251.382 0.311043C251.222 0.269043 250.874 0.0509148 250.486 -0.205261C250.098 -0.461437 249.641 -0.782707 249 -0.782707ZM249 0.521641C249.098 0.521641 249.384 0.642235 249.736 0.874901C250.089 1.10757 250.481 1.42946 251.035 1.57463C251.589 1.7198 252.083 1.63093 252.507 1.6018C252.931 1.57268 253.249 1.60824 253.333 1.65615C253.418 1.70406 253.605 1.95484 253.792 2.3287C253.978 2.70256 254.15 3.1685 254.556 3.56512C254.961 3.96173 255.437 4.13019 255.819 4.3124C256.202 4.49461 256.458 4.67779 256.507 4.76077C256.556 4.84375 256.592 5.15431 256.562 5.56919C256.533 5.98407 256.449 6.46763 256.597 7.00941C256.746 7.55119 257.068 7.93506 257.306 8.27979C257.543 8.62452 257.667 8.90409 257.667 8.99991C257.667 9.09572 257.543 9.38206 257.306 9.7268C257.068 10.0715 256.746 10.4486 256.597 10.9904C256.449 11.5322 256.533 12.0225 256.562 12.4374C256.592 12.8523 256.556 13.1561 256.507 13.239C256.458 13.322 256.202 13.5052 255.819 13.6874C255.437 13.8696 254.961 14.0449 254.556 14.4415C254.15 14.8381 253.978 15.304 253.792 15.6779C253.605 16.0518 253.418 16.2958 253.333 16.3437C253.249 16.3916 252.931 16.4271 252.507 16.398C252.083 16.3689 251.589 16.2868 251.035 16.432C250.481 16.5771 250.089 16.8922 249.736 17.1249C249.384 17.3576 249.098 17.4782 249 17.4782C248.902 17.4782 248.609 17.3576 248.257 17.1249C247.905 16.8922 247.519 16.5771 246.965 16.432C246.411 16.2868 245.91 16.3689 245.486 16.398C245.062 16.4271 244.751 16.3915 244.667 16.3437C244.582 16.2958 244.395 16.0518 244.208 15.6779C244.022 15.304 243.843 14.8381 243.438 14.4415C243.032 14.0449 242.556 13.8696 242.174 13.6874C241.791 13.5052 241.542 13.322 241.493 13.239C241.444 13.1561 241.408 12.8523 241.438 12.4374C241.467 12.0225 241.551 11.5322 241.403 10.9904C241.254 10.4486 240.932 10.0715 240.694 9.7268C240.457 9.38206 240.333 9.09572 240.333 8.99991C240.333 8.90409 240.457 8.62452 240.694 8.27979C240.932 7.93506 241.254 7.55119 241.403 7.00941C241.551 6.46763 241.467 5.98407 241.438 5.56919C241.408 5.15431 241.444 4.84375 241.493 4.76077C241.542 4.67779 241.791 4.49461 242.174 4.3124C242.556 4.13019 243.032 3.96173 243.438 3.56512C243.843 3.1685 244.022 2.70256 244.208 2.3287C244.395 1.95484 244.582 1.70406 244.667 1.65615C244.751 1.60824 245.062 1.57268 245.486 1.6018C245.91 1.63093 246.411 1.7198 246.965 1.57463C247.519 1.42946 247.905 1.10757 248.257 0.874901C248.609 0.642235 248.902 0.521641 249 0.521641ZM246.333 3.9999C244.991 3.9999 243.889 5.07824 243.889 6.3912C243.889 7.70415 244.991 8.78252 246.333 8.78252C247.675 8.78252 248.778 7.70415 248.778 6.3912C248.778 5.07824 247.675 3.9999 246.333 3.9999ZM252.479 4.86267C252.328 4.88216 252.188 4.95169 252.083 5.05968L244.972 12.0162C244.904 12.0754 244.849 12.1475 244.81 12.2283C244.772 12.3091 244.751 12.3968 244.748 12.4859C244.745 12.575 244.761 12.6637 244.795 12.7465C244.829 12.8293 244.88 12.9045 244.945 12.9673C245.009 13.0301 245.087 13.0793 245.171 13.1118C245.256 13.1443 245.347 13.1594 245.438 13.1562C245.529 13.153 245.619 13.1316 245.701 13.0933C245.783 13.0549 245.857 13.0005 245.917 12.9333L253.028 5.9768C253.128 5.8814 253.195 5.75767 253.219 5.62309C253.243 5.48851 253.224 5.34988 253.163 5.22676C253.102 5.10364 253.004 5.00227 252.881 4.93694C252.758 4.87161 252.618 4.84563 252.479 4.86267ZM246.333 5.30425C246.955 5.30425 247.444 5.78317 247.444 6.3912C247.444 6.99921 246.955 7.47816 246.333 7.47816C245.712 7.47816 245.222 6.99921 245.222 6.3912C245.222 5.78317 245.712 5.30425 246.333 5.30425ZM251.667 9.2173C250.325 9.2173 249.222 10.2957 249.222 11.6086C249.222 12.9216 250.325 13.9999 251.667 13.9999C253.009 13.9999 254.111 12.9216 254.111 11.6086C254.111 10.2957 253.009 9.2173 251.667 9.2173ZM251.667 10.5217C252.288 10.5217 252.778 11.0006 252.778 11.6086C252.778 12.2167 252.288 12.6956 251.667 12.6956C251.045 12.6956 250.556 12.2167 250.556 11.6086C250.556 11.0006 251.045 10.5217 251.667 10.5217Z" fill="white"/>
        <path d="M216 25.4346C214.717 25.4346 213.804 26.0771 213.028 26.5895C212.252 27.1018 211.557 27.5381 211.236 27.6221C210.916 27.7061 210.101 27.659 209.167 27.5949C208.233 27.5308 207.111 27.4295 206 28.0569C204.889 28.6842 204.424 29.6928 204.014 30.5161C203.604 31.3394 203.235 32.0529 203 32.2824C202.765 32.5119 202.022 32.873 201.181 33.2743C200.339 33.6755 199.322 34.1306 198.681 35.2172C198.039 36.3038 198.157 37.4014 198.222 38.315C198.288 39.2286 198.322 40.026 198.236 40.3395C198.15 40.653 197.704 41.3331 197.181 42.0922C196.657 42.8513 196 43.7451 196 44.9998C196 46.2545 196.657 47.1483 197.181 47.9074C197.704 48.6666 198.15 49.3466 198.236 49.6601C198.322 49.9736 198.288 50.771 198.222 51.6846C198.157 52.5982 198.039 53.6958 198.681 54.7824C199.322 55.869 200.339 56.3241 201.181 56.7253C202.022 57.1266 202.765 57.4877 203 57.7172C203.235 57.9467 203.604 58.6602 204.014 59.4835C204.424 60.3067 204.889 61.3154 206 61.9427C207.111 62.5701 208.233 62.4552 209.167 62.3911C210.101 62.327 210.916 62.2935 211.236 62.3776C211.557 62.4616 212.252 62.8979 213.028 63.4102C213.804 63.9225 214.717 64.5651 216 64.5651C217.283 64.5651 218.196 63.9226 218.972 63.4102C219.748 62.8979 220.443 62.4616 220.764 62.3776C221.084 62.2936 221.899 62.3271 222.833 62.3911C223.767 62.4553 224.889 62.5701 226 61.9427C227.111 61.3154 227.576 60.3068 227.986 59.4835C228.396 58.6602 228.765 57.9467 229 57.7172C229.235 57.4877 229.978 57.1266 230.819 56.7253C231.661 56.3241 232.678 55.869 233.319 54.7824C233.961 53.6958 233.857 52.5982 233.792 51.6845C233.726 50.7709 233.678 49.9736 233.764 49.6601C233.85 49.3466 234.296 48.6665 234.819 47.9074C235.343 47.1483 236 46.2545 236 44.9998C236 43.7451 235.343 42.8513 234.819 42.0922C234.296 41.3331 233.85 40.653 233.764 40.3395C233.678 40.026 233.726 39.2286 233.792 38.315C233.857 37.4014 233.961 36.3038 233.319 35.2172C232.678 34.1306 231.661 33.6755 230.819 33.2743C229.978 32.873 229.235 32.5119 229 32.2824C228.765 32.0529 228.396 31.3394 227.986 30.5161C227.576 29.6928 227.111 28.6842 226 28.0569C224.889 27.4295 223.767 27.5308 222.833 27.5949C221.899 27.659 221.084 27.7061 220.764 27.6221C220.443 27.5381 219.748 27.1018 218.972 26.5895C218.196 26.0771 217.283 25.4346 216 25.4346ZM216 28.0433C216.196 28.0433 216.767 28.2845 217.472 28.7498C218.177 29.2151 218.962 29.8589 220.069 30.1493C221.177 30.4396 222.166 30.2619 223.014 30.2036C223.862 30.1453 224.497 30.2165 224.667 30.3123C224.836 30.4081 225.211 30.9097 225.583 31.6574C225.956 32.4051 226.3 33.337 227.111 34.1302C227.922 34.9235 228.875 35.2604 229.639 35.6248C230.403 35.9892 230.916 36.3556 231.014 36.5215C231.112 36.6875 231.185 37.3086 231.125 38.1384C231.065 38.9681 230.898 39.9352 231.194 41.0188C231.491 42.1024 232.135 42.8701 232.611 43.5596C233.087 44.249 233.333 44.8082 233.333 44.9998C233.333 45.1914 233.087 45.7641 232.611 46.4536C232.135 47.1431 231.491 47.8972 231.194 48.9808C230.898 50.0643 231.065 51.045 231.125 51.8748C231.185 52.7046 231.112 53.3121 231.014 53.4781C230.916 53.644 230.403 54.0104 229.639 54.3748C228.875 54.7393 227.922 55.0897 227.111 55.8829C226.3 56.6762 225.956 57.6081 225.583 58.3558C225.211 59.1035 224.836 59.5915 224.667 59.6873C224.497 59.7831 223.862 59.8542 223.014 59.796C222.166 59.7378 221.177 59.5736 220.069 59.8639C218.962 60.1543 218.177 60.7844 217.472 61.2498C216.767 61.7151 216.196 61.9563 216 61.9563C215.804 61.9563 215.219 61.7151 214.514 61.2498C213.809 60.7844 213.038 60.1543 211.931 59.8639C210.823 59.5736 209.82 59.7378 208.972 59.796C208.124 59.8542 207.503 59.7829 207.333 59.6873C207.164 59.5915 206.789 59.1035 206.417 58.3558C206.044 57.6081 205.686 56.6762 204.875 55.8829C204.064 55.0897 203.112 54.7393 202.347 54.3748C201.583 54.0104 201.084 53.644 200.986 53.4781C200.888 53.3121 200.815 52.7046 200.875 51.8748C200.935 51.045 201.102 50.0643 200.806 48.9808C200.509 47.8972 199.865 47.1431 199.389 46.4536C198.913 45.7641 198.667 45.1914 198.667 44.9998C198.667 44.8082 198.913 44.249 199.389 43.5596C199.865 42.8701 200.509 42.1024 200.806 41.0188C201.102 39.9352 200.935 38.9681 200.875 38.1384C200.815 37.3086 200.888 36.6875 200.986 36.5215C201.084 36.3556 201.583 35.9892 202.347 35.6248C203.112 35.2604 204.064 34.9235 204.875 34.1302C205.686 33.337 206.044 32.4051 206.417 31.6574C206.789 30.9097 207.164 30.4081 207.333 30.3123C207.503 30.2165 208.124 30.1453 208.972 30.2036C209.82 30.2619 210.823 30.4396 211.931 30.1493C213.038 29.8589 213.809 29.2151 214.514 28.7498C215.219 28.2845 215.804 28.0433 216 28.0433ZM210.667 34.9998C207.982 34.9998 205.778 37.1565 205.778 39.7824C205.778 42.4083 207.982 44.565 210.667 44.565C213.351 44.565 215.556 42.4083 215.556 39.7824C215.556 37.1565 213.351 34.9998 210.667 34.9998ZM222.958 36.7253C222.656 36.7643 222.377 36.9034 222.167 37.1194L207.944 51.0324C207.808 51.1507 207.698 51.2951 207.621 51.4566C207.544 51.6182 207.501 51.7936 207.496 51.9718C207.491 52.1501 207.523 52.3275 207.591 52.4931C207.658 52.6587 207.76 52.8089 207.889 52.9345C208.019 53.0602 208.173 53.1585 208.343 53.2235C208.513 53.2885 208.694 53.3187 208.876 53.3124C209.059 53.306 209.237 53.2632 209.402 53.1865C209.567 53.1098 209.713 53.001 209.833 52.8666L224.056 38.9536C224.256 38.7628 224.389 38.5153 224.438 38.2462C224.486 37.977 224.447 37.6997 224.326 37.4535C224.205 37.2073 224.007 37.0045 223.762 36.8739C223.517 36.7432 223.236 36.6913 222.958 36.7253ZM210.667 37.6085C211.91 37.6085 212.889 38.5663 212.889 39.7824C212.889 40.9984 211.91 41.9563 210.667 41.9563C209.424 41.9563 208.444 40.9984 208.444 39.7824C208.444 38.5663 209.424 37.6085 210.667 37.6085ZM221.333 45.4346C218.649 45.4346 216.444 47.5913 216.444 50.2172C216.444 52.8431 218.649 54.9998 221.333 54.9998C224.018 54.9998 226.222 52.8431 226.222 50.2172C226.222 47.5913 224.018 45.4346 221.333 45.4346ZM221.333 48.0433C222.576 48.0433 223.556 49.0012 223.556 50.2172C223.556 51.4333 222.576 52.3911 221.333 52.3911C220.09 52.3911 219.111 51.4333 219.111 50.2172C219.111 49.0012 220.09 48.0433 221.333 48.0433Z" fill="white"/>
        <path d="M242.591 60.0659C242.697 59.1974 242.46 58.3221 241.93 57.6259C241.4 56.9298 240.619 56.4678 239.754 56.3382C238.889 56.2086 238.007 56.4217 237.297 56.9321C236.586 57.4425 236.103 58.2099 235.95 59.0712L235.932 59.2098C235.113 58.854 234.187 58.8379 233.357 59.1651C232.526 59.4923 231.86 60.136 231.504 60.9546C231.148 61.7732 231.132 62.6996 231.459 63.53C231.787 64.3604 232.43 65.0268 233.249 65.3826L233.345 65.4247L230.297 67.1843C229.801 67.4723 229.438 67.9448 229.289 68.4989C229.139 69.0529 229.214 69.6437 229.498 70.1425L230.853 72.489C231.087 72.8961 231.447 73.2165 231.879 73.4025C232.31 73.5886 232.79 73.6303 233.247 73.5214L236.971 79.9714C237.252 80.4586 237.715 80.8145 238.258 80.9612C238.801 81.1079 239.38 81.0335 239.868 80.7543L246.033 77.195C246.12 77.1843 246.203 77.1564 246.279 77.1128C246.354 77.0693 246.42 77.011 246.473 76.9414L252.637 73.3821C253.123 73.0988 253.477 72.6345 253.622 72.0909C253.766 71.5473 253.689 70.9685 253.408 70.4814L249.684 64.0314C250.007 63.69 250.211 63.2535 250.265 62.7869C250.32 62.3203 250.223 61.8485 249.987 61.4418L248.632 59.0953C248.49 58.8476 248.3 58.6303 248.074 58.4559C247.848 58.2815 247.589 58.1534 247.313 58.0789C247.038 58.0044 246.75 57.9849 246.467 58.0216C246.183 58.0584 245.91 58.1505 245.662 58.2929L242.591 60.0659ZM238.233 57.794C238.708 57.5196 239.273 57.4453 239.803 57.5873C240.333 57.7293 240.785 58.076 241.059 58.5512C241.334 59.0264 241.408 59.5911 241.266 60.1211C241.124 60.6511 240.777 61.103 240.302 61.3773L238.514 62.4095L237.477 60.614C237.205 60.1396 237.131 59.5765 237.273 59.048C237.415 58.5194 237.76 58.0686 238.233 57.794ZM233.54 60.5035C234.014 60.2323 234.577 60.1598 235.104 60.3018C235.632 60.4438 236.082 60.7887 236.356 61.2613L237.391 63.053L235.603 64.0852C235.128 64.3596 234.563 64.4339 234.033 64.2919C233.503 64.1499 233.051 63.8032 232.777 63.328C232.502 62.8528 232.428 62.2881 232.57 61.7581C232.712 61.2281 233.059 60.7762 233.534 60.5019L233.54 60.5035ZM231.974 71.8417L230.619 69.4952C230.501 69.2908 230.469 69.0479 230.53 68.82C230.592 68.592 230.741 68.3976 230.945 68.2796L238.042 64.182L240.267 68.035L233.158 72.1394C232.954 72.2574 232.711 72.2894 232.483 72.2283C232.255 72.1672 232.061 72.0181 231.943 71.8137L231.974 71.8417ZM234.413 72.9511L240.932 69.1871L245.025 76.2768L239.219 79.6292C239.03 79.7384 238.805 79.7679 238.594 79.7114C238.383 79.6549 238.204 79.517 238.094 79.3279L234.413 72.9511ZM251.951 72.2731L246.144 75.6256L242.053 68.5398L248.573 64.7758L252.252 71.1488C252.361 71.3378 252.391 71.5625 252.334 71.7734C252.278 71.9842 252.14 72.164 251.951 72.2731ZM248.827 62.1114C248.945 62.3158 248.977 62.5587 248.916 62.7866C248.855 63.0146 248.706 63.2089 248.502 63.3269L241.408 67.4224L239.184 63.5693L246.293 59.465C246.497 59.347 246.74 59.315 246.968 59.3761C247.196 59.4371 247.39 59.5863 247.508 59.7907L248.863 62.1372L248.827 62.1114Z" fill="white"/>
        <path d="M391.9 -20.4352C392.006 -21.3037 391.769 -22.179 391.239 -22.8752C390.709 -23.5713 389.928 -24.0333 389.063 -24.1629C388.198 -24.2925 387.317 -24.0794 386.606 -23.569C385.896 -23.0586 385.412 -22.2912 385.259 -21.4299L385.241 -21.2913C384.423 -21.6471 383.496 -21.6632 382.666 -21.336C381.835 -21.0088 381.169 -20.3651 380.813 -19.5465C380.457 -18.7279 380.441 -17.8015 380.768 -16.9711C381.096 -16.1407 381.739 -15.4743 382.558 -15.1185L382.654 -15.0764L379.606 -13.3168C379.11 -13.0288 378.747 -12.5563 378.598 -12.0022C378.448 -11.4481 378.523 -10.8574 378.807 -10.3586L380.162 -8.01205C380.397 -7.60498 380.756 -7.28457 381.188 -7.09855C381.619 -6.91253 382.099 -6.87084 382.556 -6.97971L386.28 -0.529657C386.561 -0.0425186 387.024 0.313358 387.567 0.460081C388.11 0.606804 388.689 0.532421 389.177 0.253214L395.342 -3.3061C395.429 -3.31675 395.512 -3.34469 395.588 -3.38826C395.663 -3.43183 395.729 -3.49014 395.782 -3.55971L401.947 -7.11903C402.432 -7.40231 402.786 -7.86658 402.931 -8.41021C403.075 -8.95384 402.998 -9.53256 402.717 -10.0197L398.993 -16.4697C399.316 -16.8111 399.52 -17.2476 399.575 -17.7142C399.629 -18.1808 399.532 -18.6526 399.296 -19.0593L397.942 -21.4058C397.799 -21.6535 397.609 -21.8708 397.383 -22.0452C397.157 -22.2196 396.898 -22.3477 396.623 -22.4222C396.347 -22.4967 396.059 -22.5162 395.776 -22.4795C395.492 -22.4427 395.219 -22.3506 394.971 -22.2082L391.9 -20.4352ZM387.542 -22.7071C388.017 -22.9815 388.582 -23.0558 389.112 -22.9138C389.642 -22.7718 390.094 -22.4251 390.368 -21.9499C390.643 -21.4747 390.717 -20.91 390.575 -20.38C390.433 -19.85 390.086 -19.3981 389.611 -19.1238L387.823 -18.0916L386.786 -19.8871C386.514 -20.3615 386.44 -20.9246 386.582 -21.4531C386.724 -21.9817 387.069 -22.4325 387.542 -22.7071ZM382.849 -19.9976C383.323 -20.2688 383.886 -20.3413 384.413 -20.1993C384.941 -20.0573 385.391 -19.7124 385.665 -19.2398L386.7 -17.4481L384.912 -16.4159C384.437 -16.1415 383.872 -16.0672 383.342 -16.2092C382.812 -16.3512 382.36 -16.6979 382.086 -17.1731C381.811 -17.6483 381.737 -18.213 381.879 -18.743C382.021 -19.273 382.368 -19.7249 382.843 -19.9992L382.849 -19.9976ZM381.283 -8.6594L379.928 -11.0059C379.81 -11.2103 379.778 -11.4532 379.84 -11.6811C379.901 -11.9091 380.05 -12.1035 380.254 -12.2215L387.352 -16.3191L389.576 -12.466L382.467 -8.36171C382.263 -8.24371 382.02 -8.21173 381.792 -8.27281C381.564 -8.33389 381.37 -8.48303 381.252 -8.68741L381.283 -8.6594ZM383.722 -7.55L390.241 -11.314L394.334 -4.22432L388.528 -0.871883C388.339 -0.762735 388.114 -0.733158 387.903 -0.789658C387.692 -0.846157 387.513 -0.984106 387.403 -1.17316L383.722 -7.55ZM401.26 -8.22796L395.453 -4.87552L391.362 -11.9613L397.882 -15.7253L401.561 -9.35232C401.67 -9.16327 401.7 -8.9386 401.644 -8.72774C401.587 -8.51688 401.449 -8.3371 401.26 -8.22796ZM398.137 -18.3897C398.255 -18.1853 398.286 -17.9424 398.225 -17.7145C398.164 -17.4865 398.015 -17.2922 397.811 -17.1742L390.717 -13.0787L388.493 -16.9318L395.602 -21.0361C395.806 -21.1541 396.049 -21.1861 396.277 -21.125C396.505 -21.0639 396.699 -20.9148 396.817 -20.7104L398.172 -18.3639L398.137 -18.3897Z" fill="white"/>
        <path d="M381.757 41.5781C381.809 40.7693 381.558 39.9378 381.058 39.2605C380.557 38.5833 379.847 38.1136 379.077 37.9515C378.307 37.7894 377.539 37.9477 376.935 38.3926C376.332 38.8375 375.941 39.5339 375.846 40.3338L375.837 40.4629C375.098 40.091 374.279 40.0324 373.562 40.3C372.844 40.5676 372.286 41.1395 372.01 41.8898C371.734 42.6402 371.764 43.5076 372.092 44.3012C372.42 45.0948 373.019 45.7495 373.759 46.1215L373.846 46.1654L371.238 47.6711C370.813 47.9177 370.515 48.3434 370.409 48.8556C370.303 49.3678 370.397 49.925 370.671 50.4057L371.977 52.6684C372.204 53.0609 372.536 53.3781 372.926 53.5727C373.316 53.7673 373.741 53.8289 374.14 53.7484L377.73 59.9679C378.002 60.4376 378.427 60.7928 378.913 60.9559C379.4 61.1189 379.907 61.0764 380.325 60.8377L385.601 57.792C385.676 57.7861 385.749 57.7638 385.813 57.7265C385.878 57.6893 385.933 57.6377 385.976 57.575L391.252 54.5293C391.667 54.2866 391.958 53.8682 392.06 53.3655C392.162 52.8629 392.067 52.3169 391.796 51.8472L388.205 45.6277C388.474 45.323 388.633 44.9235 388.66 44.4888C388.686 44.0541 388.578 43.6074 388.351 43.2152L387.044 40.9526C386.907 40.7137 386.729 40.5012 386.521 40.3272C386.313 40.1531 386.079 40.0209 385.832 39.9381C385.585 39.8553 385.33 39.8236 385.082 39.8446C384.833 39.8657 384.596 39.9393 384.384 40.061L381.757 41.5781ZM377.802 39.2443C378.209 39.0095 378.704 38.9664 379.178 39.1244C379.653 39.2824 380.068 39.6285 380.333 40.0867C380.597 40.5449 380.69 41.0776 380.589 41.5676C380.489 42.0576 380.204 42.4648 379.797 42.6995L378.267 43.5828L377.268 41.8514C377.005 41.394 376.913 40.8629 377.014 40.3743C377.114 39.8856 377.397 39.4793 377.802 39.2443ZM373.786 41.5628C374.192 41.331 374.685 41.2895 375.158 41.4473C375.63 41.6052 376.044 41.9496 376.308 42.4054L377.306 44.133L375.776 45.0163C375.369 45.251 374.874 45.2942 374.4 45.1362C373.925 44.9782 373.51 44.632 373.245 44.1738C372.981 43.7156 372.889 43.1829 372.989 42.6929C373.089 42.2029 373.374 41.7958 373.781 41.561L373.786 41.5628ZM372.937 52.1144L371.631 49.8518C371.517 49.6547 371.477 49.4256 371.52 49.2149C371.564 49.0041 371.686 48.829 371.861 48.728L377.934 45.2216L380.079 48.937L373.996 52.4491C373.821 52.5501 373.608 52.5686 373.404 52.5006C373.2 52.4327 373.021 52.2838 372.908 52.0867L372.937 52.1144ZM375.142 53.2687L380.721 50.0479L384.668 56.8841L379.699 59.7528C379.537 59.8462 379.34 59.8634 379.151 59.8005C378.962 59.7377 378.797 59.5999 378.692 59.4176L375.142 53.2687ZM390.594 53.4578L385.625 56.3265L381.68 49.4939L387.259 46.2731L390.807 52.4183C390.912 52.6006 390.949 52.8125 390.909 53.0075C390.869 53.2024 390.755 53.3644 390.594 53.4578ZM387.358 43.7882C387.472 43.9853 387.512 44.2144 387.469 44.4252C387.425 44.6359 387.303 44.811 387.128 44.912L381.058 48.4165L378.913 44.7011L384.996 41.189C385.171 41.0881 385.384 41.0695 385.588 41.1375C385.792 41.2054 385.971 41.3543 386.085 41.5514L387.391 43.814L387.358 43.7882Z" fill="white"/>
        <path d="M207.437 5.8954C208.454 6.01908 209.479 5.74119 210.294 5.12083C211.109 4.50047 211.65 3.58659 211.802 2.57356C211.954 1.56052 211.704 0.528269 211.107 -0.303665C210.509 -1.1356 209.611 -1.70157 208.602 -1.8812L208.44 -1.90181C208.856 -2.86027 208.875 -3.94497 208.492 -4.91731C208.109 -5.88964 207.355 -6.66995 206.397 -7.08658C205.438 -7.5032 204.354 -7.52202 203.381 -7.13888C202.409 -6.75574 201.629 -6.00204 201.212 -5.04358L201.163 -4.93093L199.102 -8.49957C198.765 -9.08087 198.212 -9.50539 197.563 -9.68066C196.914 -9.85592 196.223 -9.76773 195.639 -9.4353L192.891 -7.84901C192.415 -7.57437 192.039 -7.15311 191.822 -6.64798C191.604 -6.14284 191.555 -5.58086 191.682 -5.04573L184.13 -0.685389C183.56 -0.356081 183.143 0.185783 182.971 0.821608C182.799 1.45743 182.886 2.13542 183.213 2.70718L187.381 9.92566C187.393 10.0269 187.426 10.1246 187.477 10.213C187.528 10.3014 187.596 10.3785 187.678 10.44L191.846 17.6585C192.177 18.2275 192.721 18.6419 193.357 18.811C193.994 18.9801 194.672 18.8902 195.242 18.5609L202.794 14.2005C203.194 14.5785 203.705 14.8172 204.251 14.8812C204.798 14.9451 205.35 14.8308 205.826 14.5554L208.574 12.9691C208.864 12.8024 209.118 12.5802 209.323 12.3152C209.527 12.0502 209.677 11.7476 209.764 11.4247C209.851 11.1017 209.874 10.7647 209.831 10.433C209.788 10.1012 209.68 9.78116 209.513 9.4911L207.437 5.8954ZM210.098 0.792425C210.419 1.34882 210.506 2.01003 210.34 2.6306C210.173 3.25117 209.767 3.78027 209.211 4.1015C208.655 4.42274 207.993 4.50978 207.373 4.3435C206.752 4.17722 206.223 3.77123 205.902 3.21484L204.693 1.12148L206.796 -0.0923328C207.351 -0.41147 208.01 -0.497551 208.629 -0.331736C209.248 -0.16592 209.776 0.238285 210.098 0.792425ZM206.925 -4.70264C207.243 -4.14722 207.327 -3.48876 207.161 -2.87098C206.995 -2.25319 206.591 -1.72626 206.038 -1.40519L203.94 -0.193987L202.731 -2.28735C202.41 -2.84374 202.323 -3.50495 202.489 -4.12552C202.655 -4.74609 203.061 -5.27519 203.618 -5.59643C204.174 -5.91766 204.835 -6.00471 205.456 -5.83842C206.077 -5.67214 206.606 -5.26615 206.927 -4.70976L206.925 -4.70264ZM193.649 -6.53615L196.397 -8.12244C196.636 -8.2606 196.92 -8.29804 197.187 -8.22652C197.454 -8.155 197.682 -7.98038 197.82 -7.74108L202.618 0.569204L198.106 3.17395L193.301 -5.14986C193.162 -5.38917 193.125 -5.67356 193.197 -5.94048C193.268 -6.20739 193.443 -6.43496 193.682 -6.57312L193.649 -6.53615ZM192.35 -3.68078L196.757 3.95277L188.456 8.7455L184.531 1.94659C184.403 1.72523 184.368 1.46217 184.434 1.21527C184.501 0.96838 184.662 0.757879 184.884 0.630077L192.35 -3.68078ZM193.144 16.8547L189.219 10.0558L197.515 5.26563L201.923 12.8992L194.46 17.2074C194.239 17.3352 193.976 17.3699 193.729 17.3037C193.482 17.2375 193.272 17.076 193.144 16.8547ZM205.042 13.1974C204.803 13.3355 204.519 13.373 204.252 13.3015C203.985 13.2299 203.757 13.0553 203.619 12.816L198.824 4.51025L203.335 1.90551L208.141 10.2293C208.279 10.4686 208.317 10.753 208.245 11.0199C208.174 11.2868 207.999 11.5144 207.76 11.6526L205.012 13.2389L205.042 13.1974Z" fill="white"/>
        <path d="M104.513 65.442C105.159 65.5206 105.811 65.3439 106.329 64.9496C106.847 64.5552 107.191 63.9742 107.287 63.3302C107.384 62.6862 107.225 62.03 106.845 61.5011C106.465 60.9722 105.894 60.6124 105.253 60.4982L105.15 60.4851C105.415 59.8758 105.427 59.1862 105.183 58.5681C104.94 57.95 104.46 57.4539 103.851 57.1891C103.242 56.9242 102.552 56.9123 101.934 57.1558C101.316 57.3994 100.82 57.8785 100.555 58.4878L100.524 58.5595L99.2139 56.2908C98.9995 55.9213 98.6478 55.6514 98.2354 55.54C97.823 55.4285 97.3832 55.4846 97.0119 55.6959L95.2653 56.7044C94.9622 56.879 94.7237 57.1468 94.5853 57.4679C94.4468 57.789 94.4158 58.1463 94.4968 58.4865L89.6956 61.2584C89.333 61.4678 89.0681 61.8123 88.9589 62.2165C88.8497 62.6207 88.9051 63.0517 89.1129 63.4152L91.7623 68.0041C91.7702 68.0685 91.791 68.1306 91.8235 68.1868C91.8559 68.2429 91.8993 68.292 91.9511 68.3311L94.6005 72.92C94.8114 73.2817 95.157 73.5452 95.5616 73.6527C95.9663 73.7602 96.3971 73.703 96.7597 73.4937L101.561 70.7217C101.815 70.962 102.14 71.1138 102.487 71.1544C102.835 71.1951 103.186 71.1224 103.488 70.9473L105.235 69.9389C105.419 69.8329 105.581 69.6917 105.711 69.5232C105.841 69.3547 105.936 69.1624 105.992 68.957C106.047 68.7517 106.062 68.5375 106.034 68.3266C106.007 68.1157 105.938 67.9122 105.832 67.7278L104.513 65.442ZM106.204 62.1979C106.408 62.5516 106.463 62.972 106.358 63.3665C106.252 63.761 105.994 64.0973 105.64 64.3016C105.286 64.5058 104.866 64.5611 104.471 64.4554C104.077 64.3497 103.741 64.0916 103.536 63.7379L102.768 62.4071L104.105 61.6355C104.458 61.4326 104.877 61.3778 105.27 61.4833C105.664 61.5887 105.999 61.8456 106.204 62.1979ZM104.187 58.7046C104.389 59.0577 104.443 59.4763 104.337 59.869C104.231 60.2617 103.975 60.5967 103.623 60.8008L102.289 61.5708L101.521 60.24C101.317 59.8863 101.261 59.466 101.367 59.0715C101.473 58.677 101.731 58.3406 102.084 58.1364C102.438 57.9322 102.858 57.8768 103.253 57.9825C103.647 58.0882 103.984 58.3464 104.188 58.7001L104.187 58.7046ZM95.7471 57.539L97.4938 56.5306C97.6459 56.4427 97.8267 56.4189 97.9964 56.4644C98.1661 56.5098 98.3107 56.6209 98.3986 56.773L101.449 62.056L98.5806 63.7119L95.5255 58.4203C95.4377 58.2682 95.4139 58.0874 95.4594 57.9177C95.5048 57.748 95.6158 57.6033 95.768 57.5155L95.7471 57.539ZM94.9213 59.3542L97.7231 64.207L92.4458 67.2538L89.9504 62.9316C89.8691 62.7909 89.8471 62.6237 89.8892 62.4667C89.9312 62.3098 90.0339 62.1759 90.1746 62.0947L94.9213 59.3542ZM95.426 72.409L92.9305 68.0868L98.2049 65.0416L101.007 69.8944L96.2629 72.6333C96.1222 72.7145 95.9549 72.7365 95.798 72.6945C95.641 72.6524 95.5072 72.5497 95.426 72.409ZM102.99 70.084C102.838 70.1718 102.657 70.1956 102.487 70.1502C102.318 70.1047 102.173 69.9937 102.085 69.8416L99.0367 64.5614L101.905 62.9055L104.96 68.1971C105.048 68.3493 105.072 68.5301 105.026 68.6997C104.981 68.8694 104.87 69.0141 104.717 69.1019L102.971 70.1104L102.99 70.084Z" fill="white"/>
        <path d="M319.057 -5.61683C320.175 -5.48085 321.302 -5.78638 322.199 -6.46843C323.095 -7.15047 323.689 -8.15523 323.856 -9.269C324.023 -10.3828 323.749 -11.5177 323.092 -12.4323C322.435 -13.347 321.447 -13.9692 320.338 -14.1667L320.16 -14.1894C320.618 -15.2432 320.638 -16.4357 320.217 -17.5047C319.796 -18.5738 318.967 -19.4317 317.913 -19.8897C316.86 -20.3478 315.667 -20.3685 314.598 -19.9472C313.529 -19.526 312.671 -18.6973 312.213 -17.6436L312.159 -17.5197L309.894 -21.4432C309.523 -22.0823 308.915 -22.5491 308.201 -22.7418C307.488 -22.9345 306.728 -22.8375 306.086 -22.472L303.065 -20.728C302.541 -20.426 302.128 -19.9629 301.889 -19.4075C301.649 -18.8521 301.596 -18.2343 301.736 -17.6459L293.432 -12.852C292.805 -12.49 292.347 -11.8942 292.158 -11.1952C291.969 -10.4961 292.065 -9.7507 292.425 -9.12209L297.007 -1.18581C297.02 -1.07448 297.056 -0.967041 297.112 -0.869898C297.169 -0.772755 297.244 -0.687885 297.333 -0.620348L301.915 7.31593C302.28 7.94152 302.878 8.39714 303.577 8.58309C304.277 8.76904 305.022 8.67016 305.649 8.3081L313.953 3.51417C314.392 3.9297 314.954 4.19217 315.555 4.26246C316.155 4.33275 316.763 4.20712 317.286 3.90426L320.307 2.16023C320.626 1.97698 320.906 1.73272 321.13 1.44138C321.355 1.15004 321.519 0.817339 321.615 0.462265C321.711 0.107191 321.736 -0.263298 321.689 -0.62805C321.642 -0.992802 321.523 -1.34467 321.34 -1.66357L319.057 -5.61683ZM321.982 -11.2272C322.335 -10.6155 322.431 -9.88856 322.248 -9.20628C322.065 -8.524 321.619 -7.94229 321.007 -7.58911C320.396 -7.23594 319.669 -7.14023 318.986 -7.32305C318.304 -7.50587 317.722 -7.95223 317.369 -8.56395L316.04 -10.8655L318.352 -12.2C318.963 -12.5508 319.688 -12.6455 320.368 -12.4632C321.048 -12.2809 321.629 -11.8365 321.982 -11.2272ZM318.494 -17.2687C318.843 -16.6581 318.937 -15.9341 318.754 -15.2549C318.571 -14.5757 318.127 -13.9964 317.519 -13.6434L315.212 -12.3117L313.883 -14.6133C313.53 -15.225 313.434 -15.9519 313.617 -16.6342C313.8 -17.3165 314.246 -17.8982 314.858 -18.2514C315.47 -18.6046 316.197 -18.7003 316.879 -18.5175C317.561 -18.3346 318.143 -17.8883 318.496 -17.2766L318.494 -17.2687ZM303.898 -19.2846L306.919 -21.0286C307.182 -21.1805 307.495 -21.2217 307.788 -21.143C308.082 -21.0644 308.332 -20.8724 308.484 -20.6093L313.759 -11.4727L308.799 -8.6089L303.515 -17.7604C303.363 -18.0235 303.322 -18.3362 303.4 -18.6297C303.479 -18.9231 303.671 -19.1733 303.934 -19.3252L303.898 -19.2846ZM302.47 -16.1453L307.315 -7.75264L298.189 -2.48332L293.873 -9.95831C293.733 -10.2017 293.694 -10.4909 293.767 -10.7623C293.84 -11.0338 294.017 -11.2652 294.261 -11.4057L302.47 -16.1453ZM303.343 6.43221L299.027 -1.04277L308.149 -6.30923L312.994 2.08339L304.79 6.82005C304.547 6.96056 304.258 6.99863 303.986 6.9259C303.715 6.85317 303.483 6.67558 303.343 6.43221ZM316.424 2.41125C316.161 2.56315 315.848 2.60431 315.555 2.52568C315.262 2.44705 315.011 2.25507 314.859 1.99197L309.587 -7.13972L314.547 -10.0035L319.831 -0.851954C319.983 -0.58885 320.024 -0.276176 319.945 0.0172787C319.867 0.310734 319.675 0.56093 319.412 0.712833L316.391 2.45686L316.424 2.41125Z" fill="white"/>
        <path d="M337.207 54.8988C338.259 55.3225 339.435 55.319 340.484 54.8891C341.534 54.4592 342.374 53.6368 342.827 52.5969C343.279 51.5569 343.308 50.3815 342.908 49.3204C342.507 48.2594 341.708 47.3966 340.681 46.9155L340.513 46.847C341.234 45.9413 341.565 44.7866 341.433 43.6369C341.302 42.4872 340.72 41.4367 339.814 40.7164C338.909 39.9962 337.754 39.6652 336.604 39.7964C335.454 39.9275 334.404 40.5099 333.684 41.4156L333.599 41.522L332.418 37.1149C332.224 36.3966 331.754 35.784 331.11 35.4107C330.466 35.0373 329.701 34.9334 328.982 35.1216L325.588 36.0307C325 36.1879 324.478 36.5309 324.1 37.0087C323.723 37.4865 323.509 38.0736 323.492 38.6824L314.166 41.1815C313.461 41.3702 312.86 41.8303 312.494 42.4611C312.128 43.0919 312.027 43.842 312.213 44.5471L314.602 53.4616C314.586 53.5734 314.593 53.6873 314.622 53.7964C314.651 53.9055 314.702 54.0077 314.772 54.0967L317.16 63.0111C317.352 63.7147 317.815 64.3137 318.447 64.677C319.079 65.0403 319.83 65.1383 320.534 64.9496L329.861 62.4505C330.18 62.9692 330.658 63.371 331.224 63.596C331.79 63.8209 332.414 63.857 333.002 63.6989L336.395 62.7897C336.753 62.6945 337.089 62.5298 337.383 62.305C337.678 62.0801 337.925 61.7994 338.111 61.479C338.296 61.1586 338.417 60.8047 338.466 60.4376C338.516 60.0705 338.492 59.6973 338.397 59.3393L337.207 54.8988ZM341.514 50.2035C341.698 50.8906 341.602 51.6227 341.246 52.2388C340.891 52.8548 340.305 53.3043 339.618 53.4884C338.931 53.6726 338.198 53.5762 337.582 53.2205C336.966 52.8648 336.517 52.279 336.333 51.5919L335.64 49.0067L338.236 48.311C338.922 48.1289 339.652 48.2258 340.266 48.5805C340.88 48.9351 341.329 49.5187 341.514 50.2035ZM339.696 43.4174C339.876 44.1024 339.778 44.831 339.424 45.444C339.069 46.0571 338.486 46.5049 337.802 46.6897L335.211 47.3839L334.518 44.7987C334.334 44.1116 334.431 43.3795 334.786 42.7635C335.142 42.1474 335.728 41.6979 336.415 41.5138C337.102 41.3297 337.834 41.4261 338.45 41.7817C339.066 42.1374 339.516 42.7232 339.7 43.4103L339.696 43.4174ZM326.023 37.652L329.416 36.7429C329.711 36.6637 330.026 36.7051 330.291 36.8581C330.556 37.0111 330.75 37.2631 330.829 37.5586L333.579 47.8213L328.007 49.3142L325.253 39.0348C325.174 38.7392 325.215 38.4243 325.368 38.1594C325.521 37.8944 325.773 37.7011 326.069 37.6219L326.023 37.652ZM323.815 40.3336L326.341 49.7606L316.09 52.5075L313.84 44.1112C313.767 43.8378 313.805 43.5466 313.947 43.3015C314.088 43.0564 314.321 42.8775 314.595 42.8043L323.815 40.3336ZM318.78 62.5236L316.53 54.1273L326.776 51.3819L329.302 60.8089L320.086 63.2781C319.813 63.3514 319.522 63.313 319.277 63.1715C319.032 63.03 318.853 62.7969 318.78 62.5236ZM332.553 62.0218C332.257 62.101 331.942 62.0596 331.677 61.9066C331.412 61.7536 331.219 61.5016 331.14 61.2061L328.391 50.949L333.963 49.4561L336.717 59.7355C336.797 60.031 336.755 60.3459 336.602 60.6109C336.449 60.8759 336.197 61.0692 335.902 61.1484L332.509 62.0576L332.553 62.0218Z" fill="white"/>
        <path d="M366.034 -3.1137C366.572 -4.45071 366.568 -5.94504 366.022 -7.27885C365.475 -8.61266 364.43 -9.68071 363.109 -10.2559C361.787 -10.831 360.293 -10.8679 358.945 -10.3586C357.596 -9.8493 356.5 -8.83407 355.888 -7.52883L355.801 -7.31577C354.65 -8.2311 353.183 -8.65171 351.722 -8.48507C350.261 -8.31844 348.926 -7.5782 348.01 -6.42722C347.095 -5.27623 346.674 -3.80877 346.841 -2.34767C347.008 -0.88656 347.748 0.448507 348.899 1.36384L349.034 1.47181L343.433 2.97252C342.52 3.21912 341.742 3.81645 341.267 4.63441C340.793 5.45236 340.661 6.42468 340.9 7.33956L342.055 11.6516C342.255 12.3995 342.691 13.0628 343.298 13.5428C343.906 14.0229 344.652 14.2939 345.425 14.3155L348.601 26.1684C348.841 27.0636 349.426 27.8273 350.228 28.2924C351.029 28.7575 351.982 28.886 352.879 28.6499L364.208 25.6143C364.35 25.6342 364.494 25.6254 364.633 25.5882C364.772 25.551 364.902 25.4864 365.015 25.398L376.344 22.3624C377.238 22.1188 377.999 21.5309 378.461 20.7273C378.923 19.9237 379.047 18.97 378.807 18.0748L375.631 6.22186C376.29 5.81625 376.801 5.20852 377.087 4.48919C377.373 3.76987 377.419 2.97744 377.218 2.22993L376.062 -2.08216C375.941 -2.5371 375.732 -2.96377 375.446 -3.33782C375.16 -3.71186 374.804 -4.02594 374.397 -4.26214C373.989 -4.49834 373.54 -4.65203 373.073 -4.71443C372.607 -4.77682 372.132 -4.74671 371.677 -4.6258L366.034 -3.1137ZM360.067 -8.58776C360.94 -8.82174 361.871 -8.69925 362.654 -8.24724C363.436 -7.79523 364.008 -7.05072 364.242 -6.1775C364.476 -5.30428 364.353 -4.37387 363.901 -3.59096C363.449 -2.80805 362.705 -2.23677 361.831 -2.00279L358.546 -1.12248L357.662 -4.42204C357.43 -5.29331 357.554 -6.22079 358.004 -7.0015C358.455 -7.78221 359.197 -8.35257 360.067 -8.58776ZM351.443 -6.27692C352.313 -6.50617 353.239 -6.38175 354.018 -5.9308C354.798 -5.47984 355.367 -4.73898 355.602 -3.86994L356.484 -0.577456L353.198 0.302862C352.325 0.53684 351.395 0.414352 350.612 -0.0376606C349.829 -0.489674 349.258 -1.23418 349.024 -2.1074C348.79 -2.98062 348.912 -3.91102 349.364 -4.69393C349.816 -5.47684 350.561 -6.04813 351.434 -6.28211L351.443 -6.27692ZM344.116 11.0995L342.96 6.78746C342.86 6.41188 342.912 6.01171 343.107 5.67497C343.301 5.33824 343.622 5.09252 343.997 4.99189L357.04 1.49716L358.937 8.57777L345.873 12.0782C345.498 12.1788 345.097 12.1261 344.761 11.9317C344.424 11.7373 344.178 11.4171 344.078 11.0415L344.116 11.0995ZM347.524 13.905L359.504 10.6949L362.995 23.7232L352.325 26.5824C351.977 26.6754 351.607 26.6267 351.296 26.4469C350.984 26.267 350.757 25.9708 350.664 25.6234L347.524 13.905ZM375.724 20.3049L365.054 23.164L361.565 10.1428L373.545 6.93265L376.683 18.644C376.776 18.9914 376.727 19.3615 376.548 19.673C376.368 19.9845 376.071 20.2118 375.724 20.3049ZM375.086 2.80101C375.187 3.17659 375.134 3.57676 374.94 3.9135C374.746 4.25023 374.425 4.49594 374.05 4.59658L361.014 8.0894L359.117 1.00879L372.181 -2.49162C372.556 -2.59226 372.957 -2.53958 373.293 -2.34516C373.63 -2.15075 373.876 -1.83053 373.976 -1.45495L375.132 2.85715L375.086 2.80101Z" fill="white"/>
    </g>
</svg>
