<svg xmlns="http://www.w3.org/2000/svg" width="327" height="264" viewBox="0 0 327 264" fill="none">
    <g clip-path="url(#clip0)">
        <path opacity="0.1" d="M10.8438 212.781C10.8438 298.163 79.858 367.407 164.957 367.407C250.056 367.407 319.07 298.163 319.07 212.781C319.07 127.399 250.056 58.1552 164.957 58.1552C140.924 58.1552 118.199 63.691 97.9065 73.5427C86.6847 78.9846 76.1175 85.834 66.5789 93.7154C59.0977 99.9079 52.271 106.757 46.099 114.263C24.1229 141.004 10.8438 175.344 10.8438 212.781Z" fill="#4875FF"/>
        <path d="M139.055 105.068L137.091 104.412L136.062 106.194L138.868 107.602L139.055 105.068Z" fill="#45210A"/>
        <path d="M135.501 95.2167C135.595 90.7131 131.948 139.409 127.085 145.883C102.771 132.184 86.2188 132.09 86.2188 132.09L89.7723 124.678L135.501 95.2167Z" fill="#4F260B"/>
        <path d="M117.549 162.49C117.549 162.49 122.785 164.085 125.778 174.688C127.742 181.912 129.425 192.045 131.295 202.46C133.353 214.188 136.345 227.324 134.194 240.084C127.461 239.803 116.052 224.885 115.865 182.757C116.146 167.557 117.549 162.49 117.549 162.49Z" fill="url(#paint0_linear)"/>
        <path d="M122.036 235.018C122.036 235.018 120.54 224.04 126.899 222.633C133.258 221.132 138.495 237.833 137.747 241.867L133.258 240.647L131.949 244.682C131.949 244.682 123.158 247.591 122.036 235.018Z" fill="#EDEDED"/>
        <path d="M96.0382 128.619C96.0382 128.619 92.2976 151.043 87.9023 158.174C93.7003 164.836 100.059 166.9 102.117 166.806C104.081 166.618 108.382 160.332 108.382 160.332C108.382 160.332 109.224 144.851 109.13 136.5C101.462 131.997 96.0382 128.619 96.0382 128.619Z" fill="url(#paint1_linear)"/>
        <path d="M117.734 152.075C117.734 152.075 132.697 139.127 136.157 118.767C136.157 118.767 134.847 115.483 135.128 112.762C135.315 110.417 138.027 101.691 138.027 100.752C136.811 76.6391 123.252 65.38 112.965 64.3479C104.455 63.5034 81.3567 74.1996 79.954 81.7057C77.242 95.3105 89.399 143.631 117.734 152.075Z" fill="#FFB991"/>
        <path d="M124.654 117.36C124.654 117.36 129.611 117.735 131.948 116.14C134.941 114.076 134.754 111.449 134.754 111.449L124.654 117.36Z" fill="#EBA37A"/>
        <path d="M99.873 113.325C99.873 113.325 102.117 118.579 107.448 119.799C112.778 121.019 115.397 118.392 115.397 118.392L99.873 113.325Z" fill="#EBA37A"/>
        <path d="M122.879 129.839C122.879 129.839 122.318 134.061 124.656 133.685C126.994 133.31 130.08 131.152 128.771 129.557C127.368 127.962 122.879 129.839 122.879 129.839Z" fill="url(#paint2_linear)"/>
        <path d="M115.303 118.392C115.303 118.392 113.713 113.513 112.498 113.138C111.282 112.762 104.829 112.575 103.988 112.762C103.24 112.95 99.873 113.419 99.873 113.419C99.873 113.419 103.707 118.767 108.289 119.33C113.433 119.987 115.303 118.392 115.303 118.392Z" fill="white"/>
        <path d="M112.968 117.65C113.352 115.35 112.135 113.229 110.251 112.912C108.366 112.595 106.527 114.202 106.143 116.502C105.759 118.802 106.975 120.923 108.86 121.24C110.744 121.557 112.583 119.949 112.968 117.65Z" fill="#6B340F"/>
        <path d="M99.1265 104.318C99.1265 104.318 102.68 98.5006 108.197 97.3747C113.341 96.3426 118.204 100.565 118.204 100.565L117.923 102.441C117.923 102.441 112.686 98.2191 107.917 98.8759C103.148 99.5327 98.9395 104.975 98.9395 104.975L99.1265 104.318Z" fill="#6B340F"/>
        <path d="M123.627 134.624L123.346 133.498C126.993 132.56 127.928 131.34 128.115 130.871C128.302 130.495 128.209 130.308 128.209 130.12C127.835 129.369 126.245 128.994 122.785 130.402L122.224 130.589L122.037 130.026C119.044 122.332 120.447 116.14 122.13 112.293C124.001 108.071 126.525 105.725 126.713 105.631L127.461 106.476C127.087 106.851 117.829 115.389 122.878 128.994C127.367 127.305 128.77 128.525 129.237 129.557C129.424 130.12 129.424 130.683 129.144 131.246C128.77 132.278 127.461 133.592 123.627 134.624Z" fill="#DE8D60"/>
        <path d="M108.851 135.281C108.851 135.281 108.664 134.248 109.132 133.873C109.693 133.498 110.535 133.967 110.535 133.967L108.851 135.281Z" fill="#45210A"/>
        <path d="M109.129 134.155C109.129 134.155 116.61 138.283 121.66 138.471C121.099 139.878 117.919 143.068 117.919 143.068C117.919 143.068 111.934 140.253 109.129 134.155Z" fill="#45210A"/>
        <path d="M115.303 118.392C115.303 118.392 114.555 117.454 113.433 116.14C113.152 115.858 112.871 115.483 112.591 115.108C112.31 114.826 111.936 114.357 111.749 114.451C111.469 114.357 111.188 114.263 111.001 114.17C110.721 114.076 110.534 114.076 110.253 113.982C109.785 113.888 109.224 113.794 108.757 113.7C108.196 113.607 107.728 113.607 107.167 113.513C106.606 113.513 106.138 113.419 105.577 113.419C105.016 113.419 104.549 113.325 104.081 113.325H103.707H103.613C103.613 113.325 103.613 113.325 103.52 113.325H103.333C103.052 113.325 102.865 113.325 102.678 113.325C101.837 113.325 101.182 113.325 100.621 113.325C100.153 113.325 99.7793 113.325 99.7793 113.325C99.7793 113.325 100.06 113.137 100.527 112.95C100.714 112.856 100.995 112.668 101.369 112.575C101.743 112.481 102.117 112.293 102.491 112.199C102.678 112.105 102.959 112.105 103.146 112.012H103.333C103.333 112.012 103.333 112.012 103.426 112.012H103.52L103.894 111.918C104.362 111.824 104.923 111.73 105.484 111.73C106.606 111.636 107.822 111.636 109.037 111.824C109.692 111.918 110.253 112.105 110.814 112.293C111.095 112.387 111.375 112.481 111.656 112.668C111.936 112.762 112.123 112.95 112.404 113.044L112.497 113.137L112.591 113.231L112.684 113.325C112.778 113.419 112.871 113.419 112.965 113.513C113.058 113.607 113.246 113.794 113.339 113.888C113.526 114.17 113.713 114.357 113.807 114.639C114.087 115.108 114.274 115.577 114.461 115.952C115.116 117.172 115.303 118.392 115.303 118.392Z" fill="#4D250B"/>
        <path d="M88.9324 118.767C88.9324 118.767 81.5447 105.819 76.3078 114.263C70.7904 123.271 88.9324 127.305 90.7092 124.678C89.4 120.174 88.9324 118.767 88.9324 118.767Z" fill="#FFB991"/>
        <path d="M78.459 115.858C78.9266 115.014 79.8617 114.639 80.7969 114.639C81.2644 114.639 81.732 114.639 82.1996 114.826C82.3866 114.92 82.6672 114.92 82.8542 115.014C83.0412 115.108 83.3218 115.202 83.5088 115.296C83.8829 115.483 84.3505 115.671 84.7245 115.952C85.0986 116.234 85.4727 116.515 85.8467 116.797C86.2208 117.078 86.5013 117.454 86.8754 117.735C87.1559 118.11 87.4365 118.392 87.717 118.861L88.8392 120.737L86.9689 119.705C86.5949 119.518 86.2208 119.33 85.8467 119.236C85.4727 119.049 85.0986 118.955 84.7245 118.955C83.9764 118.861 83.3218 118.955 83.0413 119.612C83.0413 119.705 82.9478 119.799 82.9478 119.893C82.9478 119.987 82.8542 120.081 82.8542 120.174C82.8542 120.362 82.8542 120.55 82.8542 120.737C82.8542 121.113 83.0412 121.394 83.3218 121.676C83.8829 122.239 84.7245 122.52 85.6597 122.708C84.818 122.802 83.8829 122.614 83.0413 122.145C82.6672 121.863 82.2931 121.394 82.1996 120.925C82.1061 120.644 82.1061 120.456 82.1061 120.174C82.1061 119.987 82.1061 119.893 82.1061 119.799C82.1061 119.612 82.1996 119.518 82.1996 119.424C82.3866 118.955 82.7607 118.392 83.3218 118.204C83.8829 118.016 84.3505 118.016 84.9116 118.016C85.3791 118.11 85.8467 118.204 86.3143 118.392C86.7819 118.579 87.156 118.767 87.6235 118.955L86.8754 119.705C86.6883 119.424 86.4078 119.049 86.1273 118.767C85.8467 118.486 85.5662 118.11 85.2856 117.829C85.0051 117.547 84.631 117.266 84.3505 116.984C83.9764 116.703 83.6959 116.515 83.3218 116.328C83.1348 116.234 82.9478 116.14 82.7607 116.046C82.5737 115.952 82.3866 115.858 82.1996 115.765C81.8255 115.577 81.4515 115.483 80.9839 115.483C80.6098 115.389 80.1423 115.483 79.7682 115.577C79.2071 115.296 78.7395 115.483 78.459 115.858Z" fill="#EBC9B5"/>
        <path d="M80.702 160.238L87.9027 158.08L99.6856 163.616L108.382 160.238L117.547 162.49C117.547 162.49 117.36 191.013 121.568 198.332C125.776 205.65 128.582 210.998 128.582 210.998C128.582 210.998 127.179 218.88 117.641 219.724C114.274 225.354 113.619 240.272 113.713 251.062C113.806 262.603 118.108 276.395 118.108 278.272C118.108 286.998 118.108 291.032 118.108 291.032C118.108 291.032 106.886 297.225 90.147 289.531C73.5013 281.837 67.7969 269.358 67.7969 269.358C67.7969 269.358 86.2194 254.346 86.2194 239.146C86.2194 224.04 73.5013 181.068 80.702 160.238Z" fill="url(#paint3_linear)"/>
        <path d="M86.5938 158.456L99.6859 166.337L110.534 160.52L107.822 160.238L99.6859 163.616L89.2122 157.236L86.5938 158.456Z" fill="#ABA300"/>
        <path d="M126.71 105.35L126.43 107.039C126.43 107.039 133.63 107.226 137.839 102.723V102.254C137.745 102.254 134.285 106.57 126.71 105.35Z" fill="#6B340F"/>
        <path d="M80.703 160.238C80.703 160.238 72.6607 161.083 67.3303 177.221C65.5535 182.569 66.1146 191.576 64.7119 199.927C59.1009 233.235 67.1432 240.46 67.7043 240.741C67.9849 240.929 72.6606 232.578 75.092 220.193C77.3364 208.84 79.4872 197.112 80.3289 193.359C82.3862 185.29 81.5446 161.646 80.703 160.238Z" fill="#BAB100"/>
        <path d="M62 243.275L67.7979 240.647L69.4812 246.558C69.4812 246.558 77.1495 240.366 78.2717 235.675C80.329 226.949 77.2429 219.443 70.9774 219.443C64.7119 219.443 59.5686 231.828 62 243.275Z" fill="#EDEDED"/>
        <path d="M67.7981 240.647C67.7981 240.647 60.4104 232.015 67.05 223.946C73.6896 215.877 80.9837 209.028 86.5946 198.144C87.7168 201.991 87.7168 201.991 87.7168 201.991C87.7168 201.991 80.1421 241.492 67.7981 240.647Z" fill="#FFB991"/>
        <path d="M85.9395 199.458L89.8671 184.07C89.8671 184.07 107.355 185.478 110.534 182.944C110.628 186.228 108.477 187.729 103.707 187.542C102.492 187.542 99.6862 187.917 99.0316 188.48C99.0316 188.48 98.4705 194.766 98.0029 195.705C94.5429 201.803 90.6153 203.398 88.3709 202.366C86.033 201.147 85.9395 199.458 85.9395 199.458Z" fill="url(#paint4_radial)"/>
        <path d="M96.9739 186.791C96.9739 186.791 100.434 187.26 100.153 188.668C99.8728 190.075 97.3479 195.705 97.3479 195.705C97.3479 195.705 96.4127 196.174 95.7581 194.11C95.1035 191.952 96.9739 186.791 96.9739 186.791Z" fill="#FFB991"/>
        <path d="M93.9805 186.041C93.9805 186.041 96.973 186.791 96.7859 188.011C96.5989 189.231 94.8221 194.391 94.8221 194.391C94.8221 194.391 94.074 194.766 93.3259 192.702C92.6713 190.732 93.9805 186.041 93.9805 186.041Z" fill="#FFB991"/>
        <path d="M90.5215 202.46C90.5215 202.46 95.7583 200.959 97.1611 199.458C98.5638 197.956 102.211 197.863 102.211 197.863C102.211 197.863 102.772 194.766 100.06 195.892C97.3481 196.924 95.1038 197.112 95.1038 197.112L90.5215 202.46Z" fill="url(#paint5_radial)"/>
        <path d="M134.193 240.084C134.193 240.084 130.92 225.729 125.496 227.699C120.073 229.67 119.979 238.114 113.059 240.084C112.965 242.618 113.713 242.899 113.713 242.899C113.713 242.899 124.374 246.371 134.193 240.084Z" fill="#FFB991"/>
        <path d="M113.525 234.08L112.123 232.484L111.562 234.361L111.188 244.682L113.712 242.899L113.525 234.08Z" fill="#FFB991"/>
        <path d="M102.023 231.64L99.5918 231.171C99.5918 231.171 99.5918 233.986 102.584 234.08C103.052 232.485 102.023 231.64 102.023 231.64Z" fill="#FFB991"/>
        <path d="M100.809 227.512L104.549 246.934L111.563 247.028L112.779 225.823L100.809 227.512Z" fill="#F7D7B2"/>
        <path d="M98.8418 228.262C99.2159 228.262 114.272 227.043 114.272 227.043L113.711 222.351L99.5899 224.978L98.8418 228.262Z" fill="#40281C"/>
        <path d="M112.125 232.484C112.125 232.484 106.514 232.954 106.233 234.08C105.953 235.112 112.592 235.112 112.592 235.112C112.592 235.112 113.153 233.047 112.125 232.484Z" fill="#FFB991"/>
        <path d="M112.218 235.299C112.218 235.299 106.887 235.768 106.607 236.894C106.326 237.926 112.685 237.926 112.685 237.926C112.685 237.926 113.153 235.862 112.218 235.299Z" fill="#FFB991"/>
        <path d="M112.122 237.927C112.122 237.927 107.54 238.959 107.353 240.085C107.259 241.21 112.777 240.46 112.777 240.46C112.777 240.46 113.057 238.396 112.122 237.927Z" fill="#FFB991"/>
        <path d="M112.311 240.46C112.311 240.46 108.758 241.679 108.758 242.805C108.758 243.837 113.153 242.899 113.153 242.899C113.153 242.899 113.06 240.835 112.311 240.46Z" fill="#FFB991"/>
        <path d="M99.4989 187.448C99.4989 187.448 102.959 187.917 102.678 189.324C102.398 190.732 99.873 196.361 99.873 196.361C99.873 196.361 98.9379 196.924 98.2833 194.766C97.5351 192.608 99.4989 187.448 99.4989 187.448Z" fill="#FFB991"/>
        <path d="M95.5691 144.663C95.5691 144.663 91.8284 118.486 98.5615 92.0266C122.127 81.1428 134.939 84.802 134.939 84.802C134.939 84.802 140.924 62.8466 132.321 54.7776C119.041 51.7751 89.7711 69.9774 83.5056 73.9181C80.139 77.9527 63.6804 104.13 69.8524 127.774C78.4558 139.221 87.7138 142.505 87.7138 142.505L88.6489 135.374L90.1452 143.256L95.5691 144.663Z" fill="#6B340F"/>
        <path d="M101.183 156.016V161.833L104.269 155.453L107.822 160.238L99.6864 163.616L93.7949 160.614L101.183 156.016Z" fill="#D4D4D4"/>
        <path d="M90.0541 152.075L85.9395 158.08L92.4855 162.49L101.182 156.016L90.0541 152.075Z" fill="#EDEDED"/>
        <path d="M104.27 155.453L106.233 162.49L111.19 160.238L108.665 154.703L104.27 155.453Z" fill="#EDEDED"/>
        <path d="M118.109 186.228C117.921 185.29 117.828 184.07 117.641 182.85L118.763 182.757C118.857 183.976 119.044 185.102 119.137 186.134L118.109 186.228ZM117.36 179.473C117.267 178.347 117.267 177.221 117.173 176.095L118.296 176.001C118.389 177.127 118.389 178.253 118.483 179.379L117.36 179.473ZM117.08 172.717C117.08 171.497 116.986 170.372 116.986 169.339H118.109C118.109 170.372 118.109 171.497 118.202 172.717H117.08ZM116.986 165.868V164.273C116.986 163.147 116.986 162.49 116.986 162.49H118.109C118.109 162.49 118.109 163.147 118.109 164.273V165.868H116.986Z" fill="#9E961B"/>
        <path d="M80.7025 194.673L79.6738 194.297C79.7673 194.11 79.8608 193.922 79.8608 193.64L80.8895 194.016C80.8895 194.297 80.796 194.485 80.7025 194.673ZM81.8247 190.732L80.7025 190.544C80.8895 189.512 81.0765 188.386 81.2635 187.26L82.3857 187.354C82.1987 188.48 82.0117 189.606 81.8247 190.732ZM82.6663 183.883L81.5441 183.789C81.6376 182.663 81.6376 181.537 81.6376 180.411H82.7598C82.7598 181.631 82.7598 182.85 82.6663 183.883ZM81.6376 177.127C81.6376 176.001 81.5441 174.875 81.5441 173.749L82.6663 173.655C82.7598 174.781 82.7598 175.907 82.7598 177.033L81.6376 177.127ZM81.3571 170.372C81.2636 169.152 81.1701 168.026 81.0766 166.994L82.1987 166.9C82.2922 167.932 82.3858 169.058 82.4793 170.278L81.3571 170.372ZM80.609 163.616C80.3284 161.552 80.1414 160.332 80.1414 160.238L81.2635 160.051C81.2635 160.051 81.4506 161.364 81.7311 163.428L80.609 163.616Z" fill="#9E961B"/>
        <path d="M100.903 67.9133C103.614 68.7578 110.628 81.3305 113.34 86.5847C113.621 86.4909 113.901 86.3971 114.182 86.3971C111.376 80.9552 104.363 68.101 101.183 67.0689C98.8453 66.3183 88.9326 72.0417 82.3865 75.6071C82.106 75.9824 81.8255 76.4515 81.5449 76.9206C87.5299 73.5429 98.5647 67.2565 100.903 67.9133Z" fill="#592B0D"/>
        <path d="M126.994 55.1529C124.282 55.0591 120.354 55.9035 115.211 57.5924C115.211 57.5924 111.938 58.9998 109.693 59.8442C116.146 57.8739 122.879 55.9974 126.994 56.0912C127.835 56.0912 128.49 56.5603 129.051 57.4986C132.231 62.659 129.612 80.0169 128.583 84.2391C128.864 84.2391 129.145 84.2391 129.425 84.2391C130.36 80.5798 131.389 71.4787 131.389 66.7874C131.482 59.1875 129.986 55.2467 126.994 55.1529Z" fill="#592B0D"/>
        <path d="M94.3556 86.1156C94.3556 86.1156 94.3556 86.0218 94.3556 86.1156L94.2621 86.0218C92.8594 84.3329 91.2696 82.7379 89.7734 81.7996C86.6874 79.9231 83.5078 78.6095 78.8321 81.1428C78.5515 81.612 78.3645 82.0811 78.084 82.5502C80.9829 80.6737 83.3208 80.3922 85.3781 80.8613C84.0689 84.7082 75.0915 111.824 73.4082 132.184C73.6887 132.466 73.9693 132.747 74.2498 133.029C75.6525 112.668 85.0041 84.802 86.2198 81.049C87.2485 81.4243 88.2771 81.8934 89.2123 82.5502C90.5215 83.3947 91.9242 84.802 93.327 86.3971C92.2983 90.9008 85.3782 123.083 85.7522 141.755C86.1263 141.942 86.4068 142.036 86.6874 142.224C86.2198 124.584 92.6723 93.8094 94.0751 87.3354C95.1972 88.7427 96.2259 90.244 97.1611 91.3699C97.6286 92.0267 98.0027 92.5896 98.3768 92.9649C98.4703 92.6834 98.5638 92.3081 98.5638 92.0267C98.5638 92.0267 98.6573 92.0267 98.6573 91.9328C98.3768 91.5575 98.0962 91.1822 97.8157 90.8069C96.8805 89.3995 95.6648 87.7107 94.3556 86.1156Z" fill="#592B0D"/>
        <path d="M118.858 58.9998C118.858 58.9998 118.764 58.9998 118.858 58.9998C115.772 58.4369 107.636 61.2517 99.2196 64.9109C97.5363 65.6615 97.0687 66.1306 95.666 66.7874C103.428 63.6911 115.211 59.2813 118.671 59.8443C121.289 60.3134 122.037 74.1997 121.944 84.802C122.224 84.802 122.505 84.7082 122.879 84.7082C122.879 76.4515 122.598 59.6566 118.858 58.9998Z" fill="#592B0D"/>
        <path d="M119.232 140.816C119.232 140.816 114.556 140.253 109.787 134.999C116.894 138.658 121.009 139.034 121.009 139.034L119.232 140.816Z" fill="white"/>
        <path d="M124.656 117.36C124.656 117.36 129.987 106.007 135.223 107.883C135.504 113.701 130.922 117.829 124.656 117.36Z" fill="white"/>
        <path d="M132.324 114.17C131.576 116.515 129.892 118.204 128.49 118.016C127.087 117.829 126.526 115.765 127.18 113.513C127.928 111.167 129.612 109.478 131.108 109.666C132.417 109.854 132.978 111.824 132.324 114.17Z" fill="#6B340F"/>
        <path d="M124.654 117.36C124.654 117.36 124.748 116.234 125.309 114.639C125.87 113.138 126.992 111.167 128.675 109.572C129.517 108.822 130.452 108.165 131.481 107.696C131.761 107.602 131.948 107.508 132.229 107.414L132.603 107.32L132.977 107.226C133.445 107.133 133.912 107.039 134.38 107.039C134.847 107.039 135.222 107.039 135.502 107.133C135.876 107.133 136.157 107.226 136.344 107.32C136.811 107.508 137.092 107.602 137.092 107.602C137.092 107.602 136.811 107.602 136.344 107.696C136.157 107.696 135.876 107.789 135.502 107.883C135.222 107.977 134.847 108.071 134.567 108.165C134.193 108.259 133.912 108.446 133.445 108.634L133.164 108.822L132.884 109.009C132.697 109.103 132.51 109.291 132.323 109.384C131.574 109.854 130.826 110.51 130.172 111.261C128.769 112.668 127.46 114.17 126.431 115.389C125.496 116.515 124.654 117.36 124.654 117.36Z" fill="#4D250B"/>
        <path d="M119.23 112.199C119.23 112.199 123.158 109.76 124.654 109.76C126.151 109.76 125.964 111.636 125.964 111.636L126.712 108.822C126.712 108.822 126.431 107.789 125.215 107.883C123.906 107.977 119.23 110.229 119.23 110.229V112.199Z" fill="#45210A"/>
        <path d="M98.5633 112.95L95.0098 111.918V115.014L97.3477 115.483L98.5633 112.95Z" fill="#45210A"/>
        <path opacity="0.5" d="M104.549 127.774C104.549 127.774 107.167 122.802 108.009 117.641C114.555 116.891 118.95 115.952 118.95 115.952C118.95 115.952 118.202 127.774 104.549 127.774Z" fill="white"/>
        <path opacity="0.5" d="M125.308 115.108C125.308 114.92 130.545 113.982 133.257 112.856C133.257 118.204 130.171 122.708 130.171 122.708C130.171 122.708 123.906 124.96 125.308 115.108Z" fill="white"/>
        <path d="M104.174 128.619C101.181 128.619 99.0305 127.681 97.8148 125.71C94.7288 121.113 97.8148 112.575 98.8435 110.041L98.937 109.76L99.3111 109.666L118.762 107.508L118.856 107.977C118.949 108.259 121.1 116.046 117.547 121.957C115.676 125.147 112.497 127.211 108.195 128.15C106.699 128.431 105.39 128.619 104.174 128.619ZM99.7786 110.698C98.937 112.856 95.9445 121.019 98.6564 125.053C99.6851 126.649 101.555 127.399 104.08 127.399C105.203 127.399 106.418 127.211 107.821 126.93C111.842 126.086 114.741 124.209 116.424 121.3C119.323 116.515 118.108 110.323 117.734 108.634L99.7786 110.698Z" fill="#45210A"/>
        <path d="M128.582 123.458C127.272 123.458 126.244 122.989 125.589 121.957C122.784 117.923 126.898 106.476 126.992 106.007L127.085 105.725L139.523 101.503V102.254C139.523 103.004 139.803 119.987 131.013 122.989C130.171 123.365 129.33 123.458 128.582 123.458ZM128.02 106.663C126.805 110.041 124.467 118.392 126.524 121.3C126.992 121.957 127.646 122.332 128.675 122.332C129.236 122.332 129.984 122.239 130.732 121.957C137.746 119.612 138.401 106.476 138.494 103.098L128.02 106.663Z" fill="#45210A"/>
        <path d="M210.876 107.883C210.876 107.883 181.606 110.041 177.211 111.449C180.952 115.202 192.734 117.923 192.734 117.923L210.876 107.883Z" fill="#78ACBD"/>
        <path d="M135.503 217.472C135.503 217.472 134.474 234.267 141.114 238.489C147.753 242.711 156.357 238.583 156.357 238.583L157.105 232.391L162.716 233.704C162.716 233.704 168.327 225.917 166.457 215.127C164.68 204.337 135.503 217.472 135.503 217.472Z" fill="#D9F6FF"/>
        <path d="M267.734 136.688C267.734 136.688 276.338 138.095 279.611 139.409C281.575 140.159 282.416 140.722 282.416 140.722C282.416 140.722 284.38 137.438 283.164 136.782C282.042 136.219 275.122 135.562 275.122 135.562L267.734 136.688Z" fill="#E8A984"/>
        <path d="M204.985 60.97L208.913 117.453C208.913 117.453 202.928 128.243 191.799 127.868C180.765 127.493 179.549 120.268 179.549 120.268L180.671 104.505L196.849 92.4957L204.985 60.97Z" fill="url(#paint6_linear)"/>
        <path d="M161.687 18.1854C161.687 18.1854 148.221 36.8568 149.437 57.6862H151.962L157.479 76.17L155.515 82.3625C155.515 82.3625 166.363 112.575 187.404 108.728C208.445 104.881 204.798 67.1627 204.798 67.1627L211.064 49.5233C211.064 49.5233 216.02 27.0989 200.777 14.9014C185.627 2.70403 165.615 11.8052 161.687 18.1854Z" fill="#F7B894"/>
        <path d="M169.543 51.7751L170.104 42.4863C170.104 42.4863 182.916 43.4246 188.433 47.7406C188.807 50.8369 188.433 51.6813 188.433 51.6813C188.433 51.6813 178.146 49.6171 169.543 51.7751Z" fill="#853F16"/>
        <path d="M170.197 86.397C169.449 86.2094 162.623 84.4267 161.688 81.8933C160.752 79.4539 162.249 76.4514 162.342 76.2638L162.529 75.8885L162.903 75.9823C162.903 75.9823 165.148 76.3576 167.86 76.2638C171.039 70.3527 165.335 56.185 164.587 54.4961L160.939 52.2442L161.594 51.2122L165.522 53.6516L165.615 53.8393C165.896 54.4961 172.722 70.6342 168.701 77.202L168.514 77.4835H168.234C165.896 77.5773 164.025 77.3897 163.184 77.2959C162.81 78.0465 162.155 80.0168 162.716 81.518C163.277 82.9254 167.766 84.6143 170.385 85.2711L170.197 86.397Z" fill="#DE8D60"/>
        <path d="M174.968 62.7527C174.968 62.7527 181.14 58.4367 184.6 58.5306C185.441 59.938 186.657 63.5034 186.657 63.5034C186.657 63.5034 184.88 66.1305 179.082 67.9132C179.082 67.9132 176.931 66.5996 175.996 65.0046C174.5 62.7527 174.968 62.7527 174.968 62.7527Z" fill="white"/>
        <path d="M181.616 68.4987C182.5 67.5538 181.75 65.4084 179.942 63.7068C178.133 62.0053 175.951 61.3919 175.068 62.3368C174.185 63.2817 174.935 65.4271 176.743 67.1287C178.551 68.8302 180.733 69.4436 181.616 68.4987Z" fill="#29536B"/>
        <path d="M158.227 64.3478L166.269 63.4095C166.269 63.4095 167.11 67.1626 167.204 68.3823C164.211 70.3527 161.78 70.3527 161.78 70.3527C161.78 70.3527 160.564 70.4465 158.975 67.9132C157.385 65.2861 158.227 64.3478 158.227 64.3478Z" fill="white"/>
        <path d="M162.531 66.412C164.121 68.2885 164.682 70.4465 163.747 71.1971C162.811 71.9477 161.128 70.8218 159.538 68.9453C157.949 67.0688 157.013 65.1922 157.949 64.4416C158.884 63.691 160.941 64.5355 162.531 66.412Z" fill="#29536B"/>
        <path d="M210.223 28.9753C208.82 28.7877 205.266 26.442 203.303 26.2544C200.03 25.9729 198.066 27.9433 194.699 28.6C197.598 34.8864 201.806 51.6813 200.778 56.185C200.778 56.185 201.713 59.2812 205.828 64.4417L211.158 49.4295C211.158 49.5233 213.402 39.3901 210.223 28.9753Z" fill="#D4926C"/>
        <path d="M154.02 32.7284L163.932 28.6L161.22 22.126L174.686 26.2543L172.536 23.3457C172.536 23.3457 189.462 29.0691 193.577 31.9777C200.497 32.3531 205.453 30.195 205.453 30.195L204.05 27.4741L211.251 33.479L210.69 25.2223L207.604 17.1532L209.942 16.4026L203.863 9.74092L207.136 4.48665C207.136 4.48665 203.489 2.32864 197.598 1.20273C197.037 0.264465 197.037 0.264465 197.037 0.264465C197.037 0.264465 163.932 1.1089 154.02 32.7284Z" fill="#853F16"/>
        <path d="M156.076 83.7699C156.076 83.7699 161.594 87.5229 171.226 86.0217C178.426 84.8958 198.813 72.2292 198.813 72.2292C198.813 72.2292 200.402 62.2836 200.777 56.1849C204.143 55.4343 205.639 54.6837 205.639 54.6837C205.639 54.6837 207.79 79.923 205.639 89.8686C205.359 91.1821 203.769 94.1846 203.769 94.1846C203.769 94.1846 201.712 101.222 200.87 102.817C200.028 104.412 192.828 108.915 192.828 108.915L191.518 109.854C191.518 109.854 182.728 110.604 179.549 109.854C178.426 110.417 178.426 110.417 178.426 110.417C178.426 110.417 169.168 105.725 167.205 103.098C166.082 103.38 166.082 103.38 166.082 103.38C166.082 103.38 158.882 93.2463 156.076 83.7699Z" fill="url(#paint7_linear)"/>
        <path d="M205.545 54.7775L208.07 51.7751C208.07 51.7751 215.27 50.9307 218.45 53.2763C220.32 58.3429 213.587 73.5428 210.034 75.044C206.48 76.5452 206.48 74.1996 206.48 74.1996L205.545 54.7775Z" fill="#F7B894"/>
        <path d="M208.164 67.3503C208.351 67.1626 208.632 66.8811 208.819 66.6935L209.567 66.0367C210.035 65.6614 210.596 65.1923 211.063 64.817L210.97 65.0046C211.063 63.2219 211.157 61.4392 211.344 59.7503L211.624 60.2195C210.409 59.5627 209.1 58.9059 207.884 58.1553L207.51 57.8738L207.697 57.4047C208.071 56.4664 208.351 55.4343 208.726 54.4961L208.819 54.2146L209.1 54.1208C210.128 53.9331 211.157 53.8393 212.186 53.8393C212.747 53.8393 213.214 53.8393 213.775 53.8393C214.056 53.8393 214.336 53.9331 214.617 53.9331C214.71 53.9331 214.898 54.0269 215.085 54.1208C215.272 54.2146 215.365 54.3084 215.552 54.4961C215.646 54.6837 215.833 55.1529 215.833 55.3405C215.833 55.622 215.833 55.9035 215.833 56.185C215.833 56.7479 215.833 57.217 215.739 57.78C215.646 58.8121 215.459 59.8442 215.178 60.7824C215.178 59.7503 215.272 58.7183 215.178 57.6862C215.178 57.217 215.178 56.6541 215.085 56.185C215.085 55.9035 214.991 55.7158 214.991 55.4343C214.897 55.1529 214.991 55.1529 214.804 54.8714C214.804 54.9652 214.617 54.7776 214.43 54.7776C214.243 54.7776 213.962 54.6837 213.775 54.7776C213.308 54.7776 212.84 54.7776 212.279 54.8714C211.25 54.9652 210.315 55.1529 209.287 55.2467L209.754 54.8714C209.38 55.8097 209.1 56.8417 208.726 57.78L208.445 57.1232C209.661 57.8738 210.876 58.5306 212.092 59.2812L212.373 59.4689V59.7503C212.092 61.533 211.812 63.2219 211.531 65.0046V65.1923L211.437 65.2861C210.315 65.9429 209.287 66.5058 208.164 67.3503Z" fill="#DE936B"/>
        <path d="M161.127 44.4566L162.155 52.901C162.155 52.901 155.796 51.6812 149.624 55.9972C148.876 53.2763 149.718 52.1504 149.718 52.1504C149.718 52.1504 152.43 47.6467 161.127 44.4566Z" fill="#853F16"/>
        <path d="M162.248 52.9948C162.248 52.9948 161.687 45.2072 162.528 43.1431C163.276 45.1134 162.248 52.9948 162.248 52.9948Z" fill="#853F16"/>
        <path d="M169.542 51.7751C169.542 51.4936 168.232 42.111 168.232 42.111C168.232 42.111 169.168 43.8937 169.729 48.7726C169.822 50.2739 169.542 51.7751 169.542 51.7751Z" fill="#853F16"/>
        <path d="M157.853 64.817L155.982 63.222C155.982 63.222 163.37 61.8146 166.269 63.4096C163.931 63.9726 157.853 64.817 157.853 64.817Z" fill="#853F16"/>
        <path d="M175.06 63.1281L173.283 61.9083C173.283 61.9083 181.045 57.3108 184.599 58.6244C181.98 59.375 175.06 63.1281 175.06 63.1281Z" fill="#853F16"/>
        <path d="M172.254 99.8141C170.477 95.3105 168.046 88.8365 167.111 86.3032C166.737 86.3032 166.456 86.3032 166.176 86.3032C166.737 87.8044 168.046 91.3698 171.413 100.189L171.506 100.283C171.787 100.565 176.649 106.382 182.447 110.229C183.008 110.229 183.663 110.229 184.224 110.229C178.239 106.757 172.815 100.471 172.254 99.8141Z" fill="#6B3110"/>
        <path d="M195.258 74.4811C194.977 74.6687 194.697 74.7626 194.416 74.9502C196.754 78.6094 200.869 84.0514 206.105 86.96C206.105 86.5847 206.199 86.3032 206.199 85.9279C201.336 83.1131 197.502 77.9527 195.258 74.4811Z" fill="#6B3110"/>
        <path d="M196.848 106.194C197.128 106.007 197.409 105.819 197.69 105.631C189.086 100.846 183.195 88.555 180.67 82.3625C180.389 82.4563 180.109 82.644 179.828 82.7378C180.95 85.4588 182.634 89.2118 184.971 93.1525C188.619 99.3451 192.733 103.755 196.848 106.194Z" fill="#6B3110"/>
        <path d="M173.375 91.7451C173.375 91.7451 184.971 88.8365 191.049 81.7995C190.021 88.0859 184.41 95.7796 179.36 97.4685C175.152 94.5599 173.375 91.7451 173.375 91.7451Z" fill="#261005"/>
        <path d="M174.498 92.0265L177.116 94.6537C177.116 94.6537 186.375 91.9327 190.115 83.3945C184.037 89.5871 174.498 92.0265 174.498 92.0265Z" fill="white"/>
        <path d="M179.455 97.4685C179.455 97.4685 182.635 93.2463 184.224 91.9327C185.908 90.6192 188.246 89.0241 188.246 89.0241C188.246 89.0241 185.44 95.3105 179.455 97.4685Z" fill="#5E2408"/>
        <path d="M183.945 17.1532L184.412 15.7458L183.945 15.652C178.24 14.2446 169.45 14.9014 163.652 15.652C163.371 16.0273 162.997 16.4026 162.717 16.6841C168.234 16.0273 177.399 15.1828 183.197 16.4026L182.729 17.7161L183.197 17.81C183.384 17.9038 198.066 22.4075 204.612 30.3827C205.079 30.195 205.36 30.1012 205.36 30.1012L204.986 29.4444C198.907 22.2198 186.563 17.9976 183.945 17.1532Z" fill="#6B3110"/>
        <path d="M203.957 9.74092L204.518 8.89649C192.735 5.70639 180.484 6.83231 172.255 8.42736C171.6 8.89649 170.946 9.27179 170.291 9.74092C178.146 8.05205 191.332 6.36318 203.957 9.74092Z" fill="#6B3110"/>
        <path d="M190.303 56.0911L208.071 51.7751L206.2 53.9331L190.864 58.3429L190.303 56.0911Z" fill="#525252"/>
        <path opacity="0.35" d="M164.866 74.481L163.744 67.3502L167.204 66.1305C167.204 66.1305 168.233 70.5403 166.83 72.6983C165.427 74.7625 164.866 74.481 164.866 74.481Z" fill="white"/>
        <path opacity="0.35" d="M177.583 72.1353L176.367 65.5675C176.367 65.5675 184.597 66.1305 187.776 64.7231C187.87 68.6638 187.776 71.4786 187.776 71.4786C187.776 71.4786 182.352 72.9798 177.583 72.1353Z" fill="white"/>
        <path d="M181.42 72.886C178.24 72.886 175.622 72.4169 174.687 72.1354C172.255 71.291 169.637 61.0639 169.169 58.9998L168.982 58.4368L190.397 54.4961L190.584 54.8714C190.678 55.1529 193.67 62.096 192.361 68.0071C191.52 72.3231 185.161 72.886 181.42 72.886ZM170.666 60.2195C172.068 65.7552 173.939 70.728 175.154 71.1972C175.996 71.4786 178.521 71.854 181.513 71.854C184.225 71.854 190.584 71.4786 191.426 67.9132C192.548 63.1281 190.865 58.8121 190.21 57.3109L170.666 60.2195Z" fill="#525252"/>
        <path d="M161.126 75.5132C159.162 75.5132 157.479 75.044 156.357 74.1996C153.364 71.9478 151.494 63.1281 151.494 62.7528L151.4 62.1898L165.802 58.9998L165.989 59.4689C166.643 61.4392 169.542 71.1972 167.766 73.3552C166.55 74.6687 163.931 75.5132 161.126 75.5132ZM152.803 63.6911C153.458 66.5059 154.954 71.7601 157.011 73.2613C157.946 74.012 159.443 74.3873 161.126 74.3873C163.464 74.3873 165.895 73.6366 166.737 72.6046C167.672 71.4786 166.643 66.0367 165.241 61.4392L152.803 63.6911Z" fill="#525252"/>
        <path d="M167.204 64.6292L166.082 64.3478C166.176 63.8786 166.83 62.3774 168.233 62.0959C169.729 61.8145 170.758 62.5651 170.758 62.5651L170.851 63.9725C170.851 63.9725 169.542 63.5972 168.326 63.7848C167.391 64.0663 167.204 64.5354 167.204 64.6292Z" fill="#525252"/>
        <path d="M163.84 125.523C163.84 125.523 171.134 120.737 183.572 118.767C186.845 118.204 188.902 123.083 192.83 123.083C196.664 123.083 201.62 118.204 204.8 118.767C217.331 120.737 224.718 125.616 224.718 125.616L229.207 277.709L215.086 286.059L208.447 284.464L206.389 291.126L168.516 277.615L163.84 125.523Z" fill="url(#paint8_radial)"/>
        <path d="M203.208 166.337L222.285 167.369C222.285 167.369 223.968 192.515 212.466 191.764C200.964 190.92 203.208 166.337 203.208 166.337Z" fill="#D9F6FF"/>
        <path d="M207.883 284.746L201.898 274.706L198.157 271.516L201.243 265.605L192.266 123.177L193.388 123.083L202.365 265.793L199.56 271.235L202.833 274.05L208.818 284.183L207.883 284.746Z" fill="#ADD2DE"/>
        <path d="M224.717 125.523C236.033 131.34 259.785 159.581 263.152 183.507C266.519 207.339 269.698 214.47 262.872 229.67C249.686 223.196 226.588 189.324 226.588 189.324C226.588 189.324 211.906 119.049 224.717 125.523Z" fill="#C1EAF7"/>
        <path d="M252.676 182.944C268.48 170.559 276.803 216.346 274.185 225.823C271.566 235.205 264.085 237.926 264.085 237.926L262.869 229.67L250.993 230.233C250.899 230.233 232.664 198.707 252.676 182.944Z" fill="#D9F6FF"/>
        <path d="M163.839 125.523C151.121 133.404 114.463 167.557 138.964 226.949C145.977 240.084 163.839 236.425 166.457 215.127C169.169 193.828 163.839 125.523 163.839 125.523Z" fill="#C1EAF7"/>
        <path d="M227.148 189.418L226.026 189.231C226.026 188.855 225.839 187.542 225.745 187.166L226.868 186.979C227.055 188.198 227.148 188.855 227.148 189.231C227.148 189.324 227.148 189.418 227.148 189.418ZM225.371 184.915L224.997 182.663L226.119 182.475L226.494 184.727L225.371 184.915ZM224.53 180.505C224.436 179.754 224.249 179.097 224.156 178.253L225.278 178.065C225.371 178.816 225.558 179.566 225.652 180.317L224.53 180.505ZM223.782 176.001C223.688 175.25 223.501 174.5 223.407 173.749L224.53 173.562C224.623 174.312 224.81 175.063 224.904 175.813L223.782 176.001ZM223.033 171.591C222.94 170.841 222.846 170.09 222.659 169.339L223.782 169.152C223.875 169.902 223.969 170.653 224.156 171.404L223.033 171.591ZM222.379 167.088C222.285 166.337 222.192 165.586 222.098 164.836L223.22 164.742C223.314 165.493 223.408 166.243 223.501 166.994L222.379 167.088ZM221.818 162.584C221.724 161.833 221.631 161.083 221.537 160.332L222.659 160.238C222.753 160.989 222.846 161.739 222.94 162.49L221.818 162.584ZM221.35 158.08C221.257 157.33 221.257 156.579 221.163 155.828L222.285 155.735C222.379 156.485 222.379 157.236 222.472 157.986L221.35 158.08ZM220.976 153.577C220.976 152.826 220.883 152.075 220.883 151.325L222.005 151.231C222.005 151.982 222.098 152.732 222.098 153.483L220.976 153.577ZM220.789 148.979C220.789 148.229 220.789 147.478 220.789 146.727H221.911C221.911 147.478 221.911 148.229 221.911 148.979H220.789ZM221.911 144.475H220.789C220.789 143.725 220.789 142.974 220.883 142.224H222.005C221.911 142.974 221.911 143.725 221.911 144.475ZM222.098 139.972L220.976 139.878C221.07 139.127 221.07 138.377 221.163 137.626L222.285 137.72C222.192 138.471 222.098 139.221 222.098 139.972ZM222.566 135.562L221.444 135.374C221.537 134.624 221.631 133.873 221.818 133.122L222.94 133.31C222.753 134.061 222.659 134.811 222.566 135.562ZM223.407 131.152L222.285 130.871C222.472 130.12 222.659 129.369 222.846 128.619L223.875 128.994C223.688 129.745 223.501 130.402 223.407 131.152ZM224.717 126.93L223.688 126.555C223.875 126.179 224.062 125.71 224.249 125.335L225.278 125.804C224.997 126.179 224.81 126.555 224.717 126.93Z" fill="#ADD2DE"/>
        <path d="M166.459 190.45L165.43 189.981C165.711 189.324 165.991 188.668 166.272 187.917L167.301 188.292C167.114 189.043 166.833 189.794 166.459 190.45ZM168.049 186.134L166.927 185.853C167.114 185.196 167.301 184.445 167.488 183.695L168.61 183.976C168.423 184.727 168.236 185.384 168.049 186.134ZM169.077 181.631L167.955 181.443C168.049 180.692 168.142 179.942 168.236 179.191L169.358 179.379C169.264 180.223 169.171 180.974 169.077 181.631ZM169.639 177.127L168.516 177.033C168.61 176.283 168.61 175.532 168.703 174.781L169.826 174.875C169.732 175.626 169.732 176.376 169.639 177.127ZM169.919 172.623H168.797C168.797 171.873 168.797 171.122 168.89 170.372H170.013C169.919 171.122 169.919 171.873 169.919 172.623ZM168.797 168.12C168.797 167.369 168.797 166.618 168.797 165.868H169.919C169.919 166.618 169.919 167.369 169.919 168.12H168.797ZM168.703 163.616C168.703 162.865 168.61 162.115 168.61 161.364L169.732 161.27C169.732 162.021 169.826 162.772 169.826 163.522L168.703 163.616ZM168.423 159.112C168.329 158.362 168.329 157.611 168.236 156.861L169.358 156.767C169.452 157.517 169.452 158.268 169.545 159.019L168.423 159.112ZM168.049 154.609C167.955 153.858 167.862 153.108 167.768 152.357L168.89 152.263C168.984 153.014 169.077 153.764 169.171 154.515L168.049 154.609ZM167.581 150.105C167.488 149.354 167.394 148.604 167.301 147.853L168.423 147.666C168.516 148.416 168.61 149.167 168.703 149.917L167.581 150.105ZM166.927 145.601C166.833 144.851 166.74 144.1 166.646 143.35L167.768 143.162C167.862 143.913 167.955 144.663 168.142 145.414L166.927 145.601ZM166.272 141.192C166.178 140.441 165.991 139.69 165.898 138.94L167.02 138.752C167.114 139.503 167.301 140.253 167.394 141.004L166.272 141.192ZM165.524 136.688C165.43 135.937 165.243 135.187 165.15 134.436L166.272 134.248C166.366 134.999 166.553 135.75 166.646 136.5L165.524 136.688ZM164.682 132.278C164.495 131.434 164.402 130.777 164.215 130.026L165.337 129.839C165.43 130.495 165.617 131.246 165.804 132.09L164.682 132.278ZM163.841 127.868C163.56 126.461 163.373 125.71 163.373 125.71L164.495 125.429C164.495 125.429 164.682 126.273 164.963 127.681L163.841 127.868Z" fill="#ADD2DE"/>
        <path d="M152.337 231.452L155.142 230.514L158.977 231.828L161.876 231.171L164.775 232.484L167.486 230.514L169.731 231.265L172.723 228.825L171.321 228.075H151.215L152.337 231.452Z" fill="#E8A47D"/>
        <path d="M262.872 229.67C262.872 229.67 239.025 213.25 251.089 186.791C263.433 159.675 259.505 135.28 259.505 135.28L263.994 134.061C263.994 134.061 281.107 181.161 275.683 203.68C270.353 226.386 262.872 229.67 262.872 229.67Z" fill="#F7B894"/>
        <path d="M113.714 219.443C113.901 224.415 118.203 228.45 123.159 228.45H199.936C204.892 228.45 208.632 224.415 208.258 219.443L204.331 166.337C203.957 161.364 199.655 157.705 194.699 158.174L120.167 165.493C115.211 165.962 111.376 170.465 111.657 175.438L113.714 219.443Z" fill="#E6E6E6"/>
        <path d="M150.09 230.983C150.09 230.983 148.127 224.978 148.22 223.759C150.277 222.633 153.083 222.633 153.083 222.633L154.018 230.608C154.112 230.514 153.083 233.141 150.09 230.983Z" fill="#F7B894"/>
        <path d="M156.545 230.796C156.545 230.796 156.264 222.351 156.545 221.131C158.789 220.193 161.501 220.381 161.501 220.381L160.472 230.702C160.472 230.702 159.257 233.235 156.545 230.796Z" fill="#F7B894"/>
        <path d="M162.902 231.452C162.902 231.452 162.621 223.008 162.902 221.788C165.146 220.85 167.858 221.038 167.858 221.038L166.923 231.359C166.83 231.359 165.614 233.892 162.902 231.452Z" fill="#F7B894"/>
        <path d="M168.42 230.42C168.42 230.42 169.449 221.695 169.729 220.381C171.974 219.443 174.218 221.319 174.218 221.319L172.348 230.42C172.348 230.42 171.132 232.86 168.42 230.42Z" fill="#F7B894"/>
        <path d="M259.411 137.063C259.411 137.063 255.951 131.621 259.037 129.932C262.216 128.244 269.791 131.621 272.784 130.777C275.682 129.932 276.805 125.898 276.805 124.115C276.805 120.456 281.2 118.861 281.2 118.861L279.517 127.962L277.553 130.777L283.257 127.399C283.257 127.399 285.034 123.928 284.94 122.614C284.847 121.3 284.847 118.11 288.588 117.453C288.681 121.488 288.588 123.834 288.588 123.834C288.588 123.834 285.689 130.402 285.502 130.026C285.408 129.651 291.393 124.866 291.206 124.96C291.112 125.053 290.832 119.705 293.17 118.579C294.479 120.925 294.386 125.616 294.386 125.616C294.386 125.616 297.191 121.3 300.277 121.582C299.903 123.74 297.472 127.962 297.472 127.962C297.472 127.962 289.99 134.905 288.307 135.374C286.624 135.843 259.411 137.063 259.411 137.063Z" fill="#F7B894"/>
        <path d="M166.925 194.485C166.925 198.895 163.372 202.366 159.07 202.366C154.675 202.366 151.215 198.801 151.215 194.485C151.215 190.075 154.768 186.603 159.07 186.603C163.372 186.603 166.925 190.169 166.925 194.485Z" fill="white"/>
        <path d="M184.225 120.081C184.225 120.081 187.872 123.083 192.828 123.083C197.784 123.083 204.798 118.673 204.798 118.673L197.223 115.202L192.828 121.863L189.929 115.483L184.225 120.081Z" fill="#B7DEEB"/>
        <path d="M171.131 120.644L177.209 111.449L189.927 115.483L182.914 125.053L171.131 120.644Z" fill="#C7F2FF"/>
        <path d="M197.131 115.202L202.555 124.303L216.582 118.204L210.878 107.883L197.131 115.202Z" fill="#C7F2FF"/>
        <path d="M269.044 204.43C267.454 204.43 266.238 204.337 266.145 204.337L266.238 203.211C268.763 203.398 275.59 203.492 277.46 201.522L278.302 202.272C276.618 204.149 272.13 204.43 269.044 204.43Z" fill="#853F16"/>
        <path d="M272.129 196.361L272.035 195.235C272.035 195.235 276.056 194.766 277.459 192.515L278.394 193.171C276.617 195.798 272.316 196.361 272.129 196.361Z" fill="#853F16"/>
        <path d="M272.41 186.979L271.568 186.228C272.691 185.102 275.59 181.912 276.151 180.599L277.179 181.068C276.431 182.85 272.597 186.791 272.41 186.979Z" fill="#853F16"/>
        <path d="M39.1783 308.39C38.9912 306.795 38.8042 305.106 38.8042 303.511L42.5448 303.323C42.6384 304.825 42.7318 306.42 42.9189 307.921L39.1783 308.39ZM42.3578 298.726H38.6172C38.6172 297.037 38.7107 295.442 38.8042 293.847L42.5448 294.128C42.4513 295.536 42.4513 297.131 42.3578 298.726ZM43.1059 289.437L39.3653 288.874C39.6458 287.279 39.9264 285.59 40.3005 284.089L43.9476 284.933C43.667 286.341 43.3865 287.936 43.1059 289.437ZM45.3503 280.43L41.7967 279.21C42.3578 277.615 42.9189 276.114 43.5735 274.613L47.0336 276.114C46.379 277.521 45.8179 279.022 45.3503 280.43ZM48.9974 272.079L45.7243 270.203C46.566 268.795 47.4077 267.388 48.3428 265.98L51.4288 268.139C50.5872 269.452 49.7455 270.766 48.9974 272.079ZM54.3278 264.667L51.5223 262.134C52.6445 260.914 53.7667 259.694 54.9824 258.568L57.5073 261.289C56.3851 262.415 55.3564 263.541 54.3278 264.667ZM61.0609 258.474L58.8165 255.472C60.1257 254.534 61.4349 253.595 62.8377 252.657L64.8015 255.847C63.4923 256.692 62.1831 257.536 61.0609 258.474ZM68.8226 253.595L67.1394 250.218C68.5421 249.467 70.0383 248.81 71.6281 248.154L73.0308 251.625C71.5346 252.282 70.1318 252.939 68.8226 253.595Z" fill="#E0E0E0"/>
        <path d="M77.4247 250.03L76.209 246.465C76.9571 246.183 77.7052 245.995 78.5469 245.714L79.6691 249.279C78.8274 249.561 78.0793 249.842 77.4247 250.03Z" fill="#E0E0E0"/>
        <path d="M21.8319 125.749C23.2085 124.345 23.1903 122.088 21.7914 120.707C20.3924 119.326 18.1425 119.344 16.7659 120.747C15.3894 122.151 15.4075 124.408 16.8064 125.789C18.2054 127.171 20.4553 127.152 21.8319 125.749Z" fill="#E0E0E0"/>
        <path d="M303.805 91.2372C305.366 90.0431 305.666 87.8059 304.476 86.2403C303.286 84.6747 301.056 84.3734 299.495 85.5675C297.935 86.7616 297.635 88.9988 298.825 90.5644C300.015 92.13 302.245 92.4313 303.805 91.2372Z" fill="#E0E0E0"/>
        <path d="M24.3112 115.952L20.6641 115.202C20.6641 115.202 20.8511 114.263 21.3187 112.762L24.8722 113.794C24.4982 115.202 24.3112 115.952 24.3112 115.952Z" fill="#E0E0E0"/>
        <path d="M26.2745 109.76L22.8145 108.352C23.3755 106.945 24.0302 105.444 24.6848 104.036L28.0513 105.631C27.3967 107.039 26.8356 108.352 26.2745 109.76ZM30.1087 101.878L26.8357 100.002C27.5838 98.6882 28.4254 97.2808 29.3605 96.0611L32.4466 98.2191C31.6049 99.345 30.8568 100.565 30.1087 101.878ZM35.065 94.7475L32.166 92.3081C33.1947 91.0883 34.2233 89.9624 35.3455 88.8365L37.9639 91.5574C37.0288 92.4957 36.0001 93.6216 35.065 94.7475ZM41.237 88.6488L38.8991 85.7402C40.1148 84.8019 41.424 83.8637 42.7333 83.0193L44.7906 86.2093C43.5749 86.96 42.3592 87.8044 41.237 88.6488ZM48.5312 84.0513L46.8479 80.6736C48.2506 80.0168 49.6534 79.36 51.1496 78.7971L52.4588 82.3625C51.0561 82.8316 49.7469 83.3946 48.5312 84.0513ZM56.5735 81.0489L55.6384 77.3897C57.1346 77.0144 58.6308 76.6391 60.2206 76.4514L60.7817 80.1106C59.379 80.3921 57.9762 80.6736 56.5735 81.0489Z" fill="#E0E0E0"/>
        <path d="M65.0833 79.6415L64.8027 75.8884C65.6444 75.7946 66.3925 75.7946 67.2341 75.7946L67.3277 79.5477C66.6731 79.5477 65.8314 79.6415 65.0833 79.6415Z" fill="#E0E0E0"/>
        <path d="M270.726 40.516C260.626 40.516 252.396 48.7727 252.396 58.9059C252.396 65.9429 256.418 73.8243 262.496 77.8588V94.0908H267.078C267.078 96.155 268.668 97.75 270.726 97.75C272.783 97.75 274.373 96.155 274.373 94.0908H278.955V77.8588C284.94 73.9181 289.055 66.0367 289.055 58.9059C288.961 48.7727 280.732 40.516 270.726 40.516ZM273.905 75.8885H272.689V60.501H268.762V75.8885H267.546C261.187 73.7305 256.418 65.7553 256.418 58.9059C256.418 51.0245 262.87 44.5505 270.726 44.5505C278.581 44.5505 285.033 51.0245 285.033 58.9059C285.033 65.7553 280.264 73.7305 273.905 75.8885Z" fill="#FFBB00"/>
        <path d="M304.017 35.398L294.217 41.0723L296.18 44.4853L305.98 38.8111L304.017 35.398Z" fill="#FFBB00"/>
        <path d="M297.794 66.7811L295.83 70.1938L305.629 75.8714L307.593 72.4588L297.794 66.7811Z" fill="#FFBB00"/>
        <path d="M243.634 66.7393L233.834 72.4147L235.797 75.8277L245.598 70.1524L243.634 66.7393Z" fill="#FFBB00"/>
        <path d="M237.429 35.4604L235.465 38.873L245.264 44.5507L247.228 41.138L237.429 35.4604Z" fill="#FFBB00"/>
        <path d="M272.687 18.5606H268.76V29.9136H272.687V18.5606Z" fill="#FFBB00"/>
        <path d="M307.661 267.482V250.968H239.676V292.064H248.653V305.387L261.932 292.064V304.825H302.051L312.711 315.521V304.825H321.689V267.482H307.661ZM260.436 288.217L252.394 296.286V288.217H243.416V254.628H303.921V288.217H260.436Z" fill="#FFBB00"/>
        <path d="M294.196 263.541H253.891V267.294H294.196V263.541Z" fill="#FFBB00"/>
        <path d="M167.858 267.669L170.476 268.514L171.785 264.292L169.167 263.447C169.167 262.978 169.073 262.509 168.98 262.04C168.886 261.571 168.699 261.102 168.512 260.632L170.57 258.756L167.577 255.472L165.52 257.348C164.678 256.879 163.743 256.598 162.808 256.504L162.247 253.783L157.945 254.721L158.506 257.442C157.665 257.911 156.916 258.568 156.355 259.413L153.737 258.568L152.428 262.79L155.046 263.635C155.046 264.104 155.14 264.573 155.233 265.042C155.327 265.511 155.514 265.98 155.701 266.45L153.643 268.326L156.636 271.61L158.693 269.734C159.535 270.203 160.47 270.484 161.405 270.578L161.966 273.299L166.268 272.361L165.707 269.64C166.549 269.077 167.297 268.42 167.858 267.669ZM163.275 268.608C162.901 268.701 162.527 268.701 162.153 268.701C159.722 268.701 157.571 267.013 157.103 264.573C156.542 261.758 158.319 259.037 161.031 258.381C161.405 258.287 161.779 258.287 162.153 258.287C164.585 258.287 166.736 259.976 167.203 262.415C167.858 265.23 166.081 267.951 163.275 268.608Z" fill="#F0F0F0"/>
        <path d="M34.9704 225.448C31.5103 225.448 28.6113 222.633 28.6113 219.067C28.6113 215.596 31.4168 212.687 34.9704 212.687C38.4304 212.687 41.3294 215.502 41.3294 219.067C41.2359 222.633 38.4304 225.448 34.9704 225.448ZM34.9704 215.783C33.1936 215.783 31.6973 217.285 31.6973 219.067C31.6973 220.85 33.1936 222.351 34.9704 222.351C36.7471 222.351 38.2434 220.85 38.2434 219.067C38.2434 217.285 36.7471 215.783 34.9704 215.783Z" fill="#F0F0F0"/>
        <path d="M245.755 103.38H241.266V98.782H238.18V103.38H233.691V106.382H238.18V110.979H241.266V106.382H245.755V103.38Z" fill="#F0F0F0"/>
        <path d="M326.459 168.026L323.56 165.68L316.547 174.594H301.21L301.117 174.5L301.023 174.594H297.75V196.455H319.633V176.752L326.459 168.026ZM313.648 178.347L308.785 184.539L304.109 178.347H313.648ZM315.892 192.702H301.584V181.162L308.691 190.638L315.892 181.443V192.702Z" fill="#F0F0F0"/>
        <path d="M131.198 33.6667L128.58 32.8222C128.58 32.2593 128.486 31.6963 128.393 31.1334C128.299 30.5704 128.112 30.1013 127.832 29.5383L129.889 27.6618L126.709 24.1902L124.652 26.0668C123.717 25.5038 122.688 25.1285 121.566 25.0347L121.005 22.4075L116.423 23.4396L116.984 26.0668C116.049 26.6297 115.207 27.3803 114.552 28.3186L111.934 27.4741L110.531 31.9778L113.15 32.8222C113.15 33.3852 113.243 33.9482 113.337 34.5111C113.43 35.0741 113.617 35.5432 113.898 36.1062L111.84 37.9827L115.02 41.4543L117.077 39.5777C118.012 40.1407 119.041 40.516 120.163 40.6098L120.724 43.237L125.307 42.2049L124.746 39.5777C125.681 39.0148 126.522 38.2642 127.177 37.3259L129.795 38.1703L131.198 33.6667ZM120.911 38.1703C118.48 38.1703 116.236 36.3876 115.768 33.9482C115.113 31.0395 116.984 28.2248 119.789 27.6618C120.163 27.568 120.537 27.568 120.911 27.568C123.343 27.568 125.587 29.3507 126.055 31.7902C126.709 34.6988 124.839 37.5136 122.034 38.0765C121.66 38.0765 121.285 38.1703 120.911 38.1703Z" fill="#F0F0F0"/>
        <path d="M301.209 153.107L298.965 150.105C298.965 150.105 300.368 149.073 302.238 147.103L304.95 149.636C302.892 151.888 301.303 153.107 301.209 153.107ZM308.129 145.883L305.137 143.631C306.072 142.411 306.914 141.098 307.662 139.878L310.841 141.754C310.093 143.162 309.158 144.569 308.129 145.883ZM313.273 137.251L309.813 135.75C310.467 134.342 310.935 132.935 311.402 131.527L314.956 132.653C314.488 134.155 313.927 135.75 313.273 137.251ZM316.172 127.774L312.525 127.118C312.805 125.616 312.992 124.115 313.086 122.614L316.826 122.802C316.639 124.397 316.452 126.085 316.172 127.774ZM312.992 118.016C312.899 116.515 312.712 115.014 312.431 113.513L316.078 112.856C316.359 114.545 316.546 116.14 316.639 117.829L312.992 118.016ZM311.496 109.009C311.122 107.602 310.654 106.1 310.093 104.599L313.553 103.286C314.114 104.881 314.675 106.382 315.049 107.977L311.496 109.009ZM308.223 100.377C307.568 98.9697 306.914 97.6561 306.072 96.2487L309.345 94.466C310.187 95.9672 310.935 97.3746 311.589 98.8758L308.223 100.377Z" fill="#E0E0E0"/>
        <path d="M17.6693 141.098C27.2079 153.201 25.8052 175.72 24.9636 183.976H17.6693H10.3751C9.53351 175.626 8.13077 153.107 17.6693 141.098ZM17.6693 135.562C0.930086 150.574 7.10211 187.635 7.10211 187.635H17.6693H28.2366C28.2366 187.635 34.4086 150.574 17.6693 135.562Z" fill="#FFBB00"/>
        <path d="M4.57856 203.398C4.57856 203.398 -7.11081 186.04 7.01 179.003C9.90897 186.04 10.8441 187.729 10.8441 187.729C10.8441 187.729 1.77311 188.855 6.91645 201.522L4.57856 203.398Z" fill="#FFBB00"/>
        <path d="M30.7635 203.398C30.7635 203.398 42.453 186.04 28.3322 179.003C25.4332 186.04 24.498 187.729 24.498 187.729C24.498 187.729 34.0366 187.729 28.4256 201.522L30.7635 203.398Z" fill="#FFBB00"/>
        <path d="M23.5619 191.858H11.7789L10.8438 187.635H24.497L23.5619 191.858Z" fill="#FFBB00"/>
        <path d="M12.902 194.485H23.0017C23.0017 194.485 24.498 198.425 24.498 201.146C24.498 203.867 21.786 205.932 21.786 205.932C21.786 205.932 23.0952 200.208 21.0379 200.208C18.9805 200.208 19.7287 205.556 21.0379 207.245C22.3471 208.934 21.0379 212.875 19.3546 212.875C19.3546 212.875 21.0379 209.309 17.7648 207.808C14.4918 206.307 14.6788 202.741 16.1751 200.49C17.6713 198.332 14.2113 197.862 13.5567 200.583C12.902 203.304 13.7437 204.618 13.7437 204.618C13.7437 204.618 10.3771 203.023 10.5642 200.114C10.7512 197.206 12.902 194.485 12.902 194.485Z" fill="#FFBB00"/>
        <path d="M17.673 176.189C19.9972 176.189 21.8812 174.298 21.8812 171.966C21.8812 169.635 19.9972 167.744 17.673 167.744C15.3489 167.744 13.4648 169.635 13.4648 171.966C13.4648 174.298 15.3489 176.189 17.673 176.189Z" fill="#FFBB00"/>
        <path d="M17.6697 163.053C19.0125 163.053 20.1011 161.961 20.1011 160.614C20.1011 159.266 19.0125 158.174 17.6697 158.174C16.3268 158.174 15.2383 159.266 15.2383 160.614C15.2383 161.961 16.3268 163.053 17.6697 163.053Z" fill="#FFBB00"/>
    </g>
    <defs>
        <linearGradient id="paint0_linear" x1="121.624" y1="191.463" x2="126.72" y2="214.321" gradientUnits="userSpaceOnUse">
            <stop stop-color="#BAB100"/>
            <stop offset="1" stop-color="#9E9600"/>
        </linearGradient>
        <linearGradient id="paint1_linear" x1="98.5293" y1="158.253" x2="98.5293" y2="142.272" gradientUnits="userSpaceOnUse">
            <stop stop-color="#FFB991"/>
            <stop offset="1" stop-color="#E09367"/>
        </linearGradient>
        <linearGradient id="paint2_linear" x1="123.307" y1="132.499" x2="128.104" y2="129.187" gradientUnits="userSpaceOnUse">
            <stop stop-color="#FFB991"/>
            <stop offset="0.1747" stop-color="#FEAE80"/>
            <stop offset="0.4779" stop-color="#FC9E68"/>
            <stop offset="0.7605" stop-color="#FA945A"/>
            <stop offset="1" stop-color="#FA9155"/>
        </linearGradient>
        <linearGradient id="paint3_linear" x1="98.1802" y1="174.06" x2="98.1802" y2="275.157" gradientUnits="userSpaceOnUse">
            <stop stop-color="#BAB100"/>
            <stop offset="0.2801" stop-color="#B8AF00"/>
            <stop offset="0.3808" stop-color="#B1A900"/>
            <stop offset="0.4525" stop-color="#A69D00"/>
            <stop offset="0.4635" stop-color="#A39B00"/>
            <stop offset="1" stop-color="#BAB100"/>
        </linearGradient>
        <radialGradient id="paint4_radial" cx="0" cy="0" r="1" gradientUnits="userSpaceOnUse" gradientTransform="translate(96.264 196.589) rotate(-22.1091) scale(9.48567 9.50828)">
            <stop stop-color="#E09367"/>
            <stop offset="1" stop-color="#FFB991"/>
        </radialGradient>
        <radialGradient id="paint5_radial" cx="0" cy="0" r="1" gradientUnits="userSpaceOnUse" gradientTransform="translate(95.8974 196.398) rotate(-22.1091) scale(9.76783 9.79111)">
            <stop stop-color="#E09367"/>
            <stop offset="1" stop-color="#FFB991"/>
        </radialGradient>
        <linearGradient id="paint6_linear" x1="194.268" y1="119.672" x2="194.268" y2="99.3155" gradientUnits="userSpaceOnUse">
            <stop stop-color="#F7B894"/>
            <stop offset="1" stop-color="#D98D64"/>
        </linearGradient>
        <linearGradient id="paint7_linear" x1="181.297" y1="57.4077" x2="181.297" y2="75.0221" gradientUnits="userSpaceOnUse">
            <stop stop-color="#D4926C"/>
            <stop offset="1" stop-color="#853F16"/>
        </linearGradient>
        <radialGradient id="paint8_radial" cx="0" cy="0" r="1" gradientUnits="userSpaceOnUse" gradientTransform="translate(180.207 213.367) scale(49.4619 49.6264)">
            <stop stop-color="#A8D7E6"/>
            <stop offset="0.4037" stop-color="#AEDBEA"/>
            <stop offset="0.9371" stop-color="#BFE8F5"/>
            <stop offset="1" stop-color="#C1EAF7"/>
        </radialGradient>
        <clipPath id="clip0">
            <rect width="327" height="264" fill="white"/>
        </clipPath>
    </defs>
</svg>
